<svg width="360" height="360" viewBox="0 0 360 360" fill="none" xmlns="http://www.w3.org/2000/svg">
<rect width="360" height="360" fill="white"/>
<path d="M31.0345 20H20V31.0345H31.0345V20Z" fill="#006DF0"/>
<path d="M31.0345 31.0347H20V42.0692H31.0345V31.0347Z" fill="#006DF0"/>
<path d="M31.0345 42.0688H20V53.1033H31.0345V42.0688Z" fill="#006DF0"/>
<path d="M31.0345 53.1035H20V64.138H31.0345V53.1035Z" fill="#006DF0"/>
<path d="M31.0345 64.1377H20V75.1722H31.0345V64.1377Z" fill="#006DF0"/>
<path d="M31.0345 75.1724H20V86.2068H31.0345V75.1724Z" fill="#006DF0"/>
<path d="M31.0345 86.207H20V97.2415H31.0345V86.207Z" fill="#006DF0"/>
<path d="M31.0345 108.276H20V119.31H31.0345V108.276Z" fill="#006DF0"/>
<path d="M31.0345 130.345H20V141.379H31.0345V130.345Z" fill="#006DF0"/>
<path d="M31.0345 141.379H20V152.414H31.0345V141.379Z" fill="#006DF0"/>
<path d="M31.0345 152.414H20V163.448H31.0345V152.414Z" fill="#006DF0"/>
<path d="M31.0345 174.483H20V185.517H31.0345V174.483Z" fill="#006DF0"/>
<path d="M31.0345 262.759H20V273.793H31.0345V262.759Z" fill="#006DF0"/>
<path d="M31.0345 273.793H20V284.827H31.0345V273.793Z" fill="#006DF0"/>
<path d="M31.0345 284.828H20V295.862H31.0345V284.828Z" fill="#006DF0"/>
<path d="M31.0345 295.862H20V306.897H31.0345V295.862Z" fill="#006DF0"/>
<path d="M31.0345 306.896H20V317.931H31.0345V306.896Z" fill="#006DF0"/>
<path d="M31.0345 317.931H20V328.966H31.0345V317.931Z" fill="#006DF0"/>
<path d="M31.0345 328.965H20V340H31.0345V328.965Z" fill="#006DF0"/>
<path d="M42.0687 20H31.0342V31.0345H42.0687V20Z" fill="#006DF0"/>
<path d="M42.0687 86.207H31.0342V97.2415H42.0687V86.207Z" fill="#006DF0"/>
<path d="M42.0687 108.276H31.0342V119.31H42.0687V108.276Z" fill="#006DF0"/>
<path d="M42.0687 119.311H31.0342V130.345H42.0687V119.311Z" fill="#006DF0"/>
<path d="M42.0687 141.379H31.0342V152.414H42.0687V141.379Z" fill="#006DF0"/>
<path d="M42.0687 152.414H31.0342V163.448H42.0687V152.414Z" fill="#006DF0"/>
<path d="M42.0687 174.483H31.0342V185.517H42.0687V174.483Z" fill="#006DF0"/>
<path d="M42.0687 196.552H31.0342V207.586H42.0687V196.552Z" fill="#006DF0"/>
<path d="M42.0687 229.655H31.0342V240.69H42.0687V229.655Z" fill="#006DF0"/>
<path d="M42.0687 240.689H31.0342V251.724H42.0687V240.689Z" fill="#006DF0"/>
<path d="M42.0687 262.759H31.0342V273.793H42.0687V262.759Z" fill="#006DF0"/>
<path d="M42.0687 328.965H31.0342V340H42.0687V328.965Z" fill="#006DF0"/>
<path d="M53.1038 20H42.0693V31.0345H53.1038V20Z" fill="#006DF0"/>
<path d="M53.1038 42.0688H42.0693V53.1033H53.1038V42.0688Z" fill="#006DF0"/>
<path d="M53.1038 53.1035H42.0693V64.138H53.1038V53.1035Z" fill="#006DF0"/>
<path d="M53.1038 64.1377H42.0693V75.1722H53.1038V64.1377Z" fill="#006DF0"/>
<path d="M53.1038 86.207H42.0693V97.2415H53.1038V86.207Z" fill="#006DF0"/>
<path d="M53.1038 130.345H42.0693V141.379H53.1038V130.345Z" fill="#006DF0"/>
<path d="M53.1038 152.414H42.0693V163.448H53.1038V152.414Z" fill="#006DF0"/>
<path d="M53.1038 174.483H42.0693V185.517H53.1038V174.483Z" fill="#006DF0"/>
<path d="M53.1038 185.517H42.0693V196.552H53.1038V185.517Z" fill="#006DF0"/>
<path d="M53.1038 207.586H42.0693V218.621H53.1038V207.586Z" fill="#006DF0"/>
<path d="M53.1038 218.621H42.0693V229.655H53.1038V218.621Z" fill="#006DF0"/>
<path d="M53.1038 262.759H42.0693V273.793H53.1038V262.759Z" fill="#006DF0"/>
<path d="M53.1038 284.828H42.0693V295.862H53.1038V284.828Z" fill="#006DF0"/>
<path d="M53.1038 295.862H42.0693V306.897H53.1038V295.862Z" fill="#006DF0"/>
<path d="M53.1038 306.896H42.0693V317.931H53.1038V306.896Z" fill="#006DF0"/>
<path d="M53.1038 328.965H42.0693V340H53.1038V328.965Z" fill="#006DF0"/>
<path d="M64.138 20H53.1035V31.0345H64.138V20Z" fill="#006DF0"/>
<path d="M64.138 42.0688H53.1035V53.1033H64.138V42.0688Z" fill="#006DF0"/>
<path d="M64.138 53.1035H53.1035V64.138H64.138V53.1035Z" fill="#006DF0"/>
<path d="M64.138 64.1377H53.1035V75.1722H64.138V64.1377Z" fill="#006DF0"/>
<path d="M64.138 86.207H53.1035V97.2415H64.138V86.207Z" fill="#006DF0"/>
<path d="M64.138 119.311H53.1035V130.345H64.138V119.311Z" fill="#006DF0"/>
<path d="M64.138 141.379H53.1035V152.414H64.138V141.379Z" fill="#006DF0"/>
<path d="M64.138 152.414H53.1035V163.448H64.138V152.414Z" fill="#006DF0"/>
<path d="M64.138 174.483H53.1035V185.517H64.138V174.483Z" fill="#006DF0"/>
<path d="M64.138 185.517H53.1035V196.552H64.138V185.517Z" fill="#006DF0"/>
<path d="M64.138 196.552H53.1035V207.586H64.138V196.552Z" fill="#006DF0"/>
<path d="M64.138 218.621H53.1035V229.655H64.138V218.621Z" fill="#006DF0"/>
<path d="M64.138 229.655H53.1035V240.69H64.138V229.655Z" fill="#006DF0"/>
<path d="M64.138 262.759H53.1035V273.793H64.138V262.759Z" fill="#006DF0"/>
<path d="M64.138 284.828H53.1035V295.862H64.138V284.828Z" fill="#006DF0"/>
<path d="M64.138 295.862H53.1035V306.897H64.138V295.862Z" fill="#006DF0"/>
<path d="M64.138 306.896H53.1035V317.931H64.138V306.896Z" fill="#006DF0"/>
<path d="M64.138 328.965H53.1035V340H64.138V328.965Z" fill="#006DF0"/>
<path d="M75.1722 20H64.1377V31.0345H75.1722V20Z" fill="#006DF0"/>
<path d="M75.1722 42.0688H64.1377V53.1033H75.1722V42.0688Z" fill="#006DF0"/>
<path d="M75.1722 53.1035H64.1377V64.138H75.1722V53.1035Z" fill="#006DF0"/>
<path d="M75.1722 64.1377H64.1377V75.1722H75.1722V64.1377Z" fill="#006DF0"/>
<path d="M75.1722 86.207H64.1377V97.2415H75.1722V86.207Z" fill="#006DF0"/>
<path d="M75.1722 119.311H64.1377V130.345H75.1722V119.311Z" fill="#006DF0"/>
<path d="M75.1722 130.345H64.1377V141.379H75.1722V130.345Z" fill="#006DF0"/>
<path d="M75.1722 152.414H64.1377V163.448H75.1722V152.414Z" fill="#006DF0"/>
<path d="M75.1722 163.448H64.1377V174.483H75.1722V163.448Z" fill="#006DF0"/>
<path d="M75.1722 207.586H64.1377V218.621H75.1722V207.586Z" fill="#006DF0"/>
<path d="M75.1722 262.759H64.1377V273.793H75.1722V262.759Z" fill="#006DF0"/>
<path d="M75.1722 284.828H64.1377V295.862H75.1722V284.828Z" fill="#006DF0"/>
<path d="M75.1722 295.862H64.1377V306.897H75.1722V295.862Z" fill="#006DF0"/>
<path d="M75.1722 306.896H64.1377V317.931H75.1722V306.896Z" fill="#006DF0"/>
<path d="M75.1722 328.965H64.1377V340H75.1722V328.965Z" fill="#006DF0"/>
<path d="M86.2073 20H75.1729V31.0345H86.2073V20Z" fill="#006DF0"/>
<path d="M86.2073 86.207H75.1729V97.2415H86.2073V86.207Z" fill="#006DF0"/>
<path d="M86.2073 108.276H75.1729V119.31H86.2073V108.276Z" fill="#006DF0"/>
<path d="M86.2073 130.345H75.1729V141.379H86.2073V130.345Z" fill="#006DF0"/>
<path d="M86.2073 141.379H75.1729V152.414H86.2073V141.379Z" fill="#006DF0"/>
<path d="M86.2073 152.414H75.1729V163.448H86.2073V152.414Z" fill="#006DF0"/>
<path d="M86.2073 163.448H75.1729V174.483H86.2073V163.448Z" fill="#006DF0"/>
<path d="M86.2073 229.655H75.1729V240.69H86.2073V229.655Z" fill="#006DF0"/>
<path d="M86.2073 262.759H75.1729V273.793H86.2073V262.759Z" fill="#006DF0"/>
<path d="M86.2073 328.965H75.1729V340H86.2073V328.965Z" fill="#006DF0"/>
<path d="M97.2415 20H86.207V31.0345H97.2415V20Z" fill="#006DF0"/>
<path d="M97.2415 31.0347H86.207V42.0692H97.2415V31.0347Z" fill="#006DF0"/>
<path d="M97.2415 42.0688H86.207V53.1033H97.2415V42.0688Z" fill="#006DF0"/>
<path d="M97.2415 53.1035H86.207V64.138H97.2415V53.1035Z" fill="#006DF0"/>
<path d="M97.2415 64.1377H86.207V75.1722H97.2415V64.1377Z" fill="#006DF0"/>
<path d="M97.2415 75.1724H86.207V86.2068H97.2415V75.1724Z" fill="#006DF0"/>
<path d="M97.2415 86.207H86.207V97.2415H97.2415V86.207Z" fill="#006DF0"/>
<path d="M97.2415 108.276H86.207V119.31H97.2415V108.276Z" fill="#006DF0"/>
<path d="M97.2415 130.345H86.207V141.379H97.2415V130.345Z" fill="#006DF0"/>
<path d="M97.2415 152.414H86.207V163.448H97.2415V152.414Z" fill="#006DF0"/>
<path d="M97.2415 174.483H86.207V185.517H97.2415V174.483Z" fill="#006DF0"/>
<path d="M97.2415 196.552H86.207V207.586H97.2415V196.552Z" fill="#006DF0"/>
<path d="M97.2415 218.621H86.207V229.655H97.2415V218.621Z" fill="#006DF0"/>
<path d="M97.2415 240.689H86.207V251.724H97.2415V240.689Z" fill="#006DF0"/>
<path d="M97.2415 262.759H86.207V273.793H97.2415V262.759Z" fill="#006DF0"/>
<path d="M97.2415 273.793H86.207V284.827H97.2415V273.793Z" fill="#006DF0"/>
<path d="M97.2415 284.828H86.207V295.862H97.2415V284.828Z" fill="#006DF0"/>
<path d="M97.2415 295.862H86.207V306.897H97.2415V295.862Z" fill="#006DF0"/>
<path d="M97.2415 306.896H86.207V317.931H97.2415V306.896Z" fill="#006DF0"/>
<path d="M97.2415 317.931H86.207V328.966H97.2415V317.931Z" fill="#006DF0"/>
<path d="M97.2415 328.965H86.207V340H97.2415V328.965Z" fill="#006DF0"/>
<path d="M108.276 108.276H97.2412V119.31H108.276V108.276Z" fill="#006DF0"/>
<path d="M108.276 119.311H97.2412V130.345H108.276V119.311Z" fill="#006DF0"/>
<path d="M108.276 174.483H97.2412V185.517H108.276V174.483Z" fill="#006DF0"/>
<path d="M108.276 218.621H97.2412V229.655H108.276V218.621Z" fill="#006DF0"/>
<path d="M108.276 240.689H97.2412V251.724H108.276V240.689Z" fill="#006DF0"/>
<path d="M119.31 53.1035H108.275V64.138H119.31V53.1035Z" fill="#006DF0"/>
<path d="M119.31 64.1377H108.275V75.1722H119.31V64.1377Z" fill="#006DF0"/>
<path d="M119.31 86.207H108.275V97.2415H119.31V86.207Z" fill="#006DF0"/>
<path d="M119.31 119.311H108.275V130.345H119.31V119.311Z" fill="#006DF0"/>
<path d="M119.31 152.414H108.275V163.448H119.31V152.414Z" fill="#006DF0"/>
<path d="M119.31 163.448H108.275V174.483H119.31V163.448Z" fill="#006DF0"/>
<path d="M119.31 218.621H108.275V229.655H119.31V218.621Z" fill="#006DF0"/>
<path d="M119.31 229.655H108.275V240.69H119.31V229.655Z" fill="#006DF0"/>
<path d="M119.31 240.689H108.275V251.724H119.31V240.689Z" fill="#006DF0"/>
<path d="M119.31 251.724H108.275V262.759H119.31V251.724Z" fill="#006DF0"/>
<path d="M119.31 262.759H108.275V273.793H119.31V262.759Z" fill="#006DF0"/>
<path d="M119.31 273.793H108.275V284.827H119.31V273.793Z" fill="#006DF0"/>
<path d="M119.31 317.931H108.275V328.966H119.31V317.931Z" fill="#006DF0"/>
<path d="M119.31 328.965H108.275V340H119.31V328.965Z" fill="#006DF0"/>
<path d="M130.345 20H119.311V31.0345H130.345V20Z" fill="#006DF0"/>
<path d="M130.345 42.0688H119.311V53.1033H130.345V42.0688Z" fill="#006DF0"/>
<path d="M130.345 75.1724H119.311V86.2068H130.345V75.1724Z" fill="#006DF0"/>
<path d="M130.345 97.2412H119.311V108.276H130.345V97.2412Z" fill="#006DF0"/>
<path d="M130.345 108.276H119.311V119.31H130.345V108.276Z" fill="#006DF0"/>
<path d="M130.345 130.345H119.311V141.379H130.345V130.345Z" fill="#006DF0"/>
<path d="M130.345 152.414H119.311V163.448H130.345V152.414Z" fill="#006DF0"/>
<path d="M130.345 174.483H119.311V185.517H130.345V174.483Z" fill="#006DF0"/>
<path d="M130.345 185.517H119.311V196.552H130.345V185.517Z" fill="#006DF0"/>
<path d="M130.345 196.552H119.311V207.586H130.345V196.552Z" fill="#006DF0"/>
<path d="M130.345 218.621H119.311V229.655H130.345V218.621Z" fill="#006DF0"/>
<path d="M130.345 273.793H119.311V284.827H130.345V273.793Z" fill="#006DF0"/>
<path d="M130.345 295.862H119.311V306.897H130.345V295.862Z" fill="#006DF0"/>
<path d="M130.345 306.896H119.311V317.931H130.345V306.896Z" fill="#006DF0"/>
<path d="M130.345 328.965H119.311V340H130.345V328.965Z" fill="#006DF0"/>
<path d="M141.379 20H130.345V31.0345H141.379V20Z" fill="#006DF0"/>
<path d="M141.379 42.0688H130.345V53.1033H141.379V42.0688Z" fill="#006DF0"/>
<path d="M141.379 53.1035H130.345V64.138H141.379V53.1035Z" fill="#006DF0"/>
<path d="M141.379 64.1377H130.345V75.1722H141.379V64.1377Z" fill="#006DF0"/>
<path d="M141.379 75.1724H130.345V86.2068H141.379V75.1724Z" fill="#006DF0"/>
<path d="M141.379 86.207H130.345V97.2415H141.379V86.207Z" fill="#006DF0"/>
<path d="M141.379 108.276H130.345V119.31H141.379V108.276Z" fill="#006DF0"/>
<path d="M141.379 119.311H130.345V130.345H141.379V119.311Z" fill="#006DF0"/>
<path d="M141.379 141.379H130.345V152.414H141.379V141.379Z" fill="#006DF0"/>
<path d="M141.379 152.414H130.345V163.448H141.379V152.414Z" fill="#006DF0"/>
<path d="M141.379 163.448H130.345V174.483H141.379V163.448Z" fill="#006DF0"/>
<path d="M141.379 196.552H130.345V207.586H141.379V196.552Z" fill="#006DF0"/>
<path d="M141.379 218.621H130.345V229.655H141.379V218.621Z" fill="#006DF0"/>
<path d="M141.379 251.724H130.345V262.759H141.379V251.724Z" fill="#006DF0"/>
<path d="M141.379 262.759H130.345V273.793H141.379V262.759Z" fill="#006DF0"/>
<path d="M141.379 273.793H130.345V284.827H141.379V273.793Z" fill="#006DF0"/>
<path d="M141.379 284.828H130.345V295.862H141.379V284.828Z" fill="#006DF0"/>
<path d="M141.379 295.862H130.345V306.897H141.379V295.862Z" fill="#006DF0"/>
<path d="M141.379 328.965H130.345V340H141.379V328.965Z" fill="#006DF0"/>
<path d="M152.413 20H141.379V31.0345H152.413V20Z" fill="#006DF0"/>
<path d="M152.413 31.0347H141.379V42.0692H152.413V31.0347Z" fill="#006DF0"/>
<path d="M152.413 42.0688H141.379V53.1033H152.413V42.0688Z" fill="#006DF0"/>
<path d="M152.413 53.1035H141.379V64.138H152.413V53.1035Z" fill="#006DF0"/>
<path d="M152.413 130.345H141.379V141.379H152.413V130.345Z" fill="#006DF0"/>
<path d="M152.413 141.379H141.379V152.414H152.413V141.379Z" fill="#006DF0"/>
<path d="M152.413 229.655H141.379V240.69H152.413V229.655Z" fill="#006DF0"/>
<path d="M152.413 240.689H141.379V251.724H152.413V240.689Z" fill="#006DF0"/>
<path d="M152.413 284.828H141.379V295.862H152.413V284.828Z" fill="#006DF0"/>
<path d="M152.413 306.896H141.379V317.931H152.413V306.896Z" fill="#006DF0"/>
<path d="M152.413 317.931H141.379V328.966H152.413V317.931Z" fill="#006DF0"/>
<path d="M152.413 328.965H141.379V340H152.413V328.965Z" fill="#006DF0"/>
<path d="M163.449 31.0347H152.414V42.0692H163.449V31.0347Z" fill="#006DF0"/>
<path d="M163.449 64.1377H152.414V75.1722H163.449V64.1377Z" fill="#006DF0"/>
<path d="M163.449 86.207H152.414V97.2415H163.449V86.207Z" fill="#006DF0"/>
<path d="M163.449 97.2412H152.414V108.276H163.449V97.2412Z" fill="#006DF0"/>
<path d="M163.449 108.276H152.414V119.31H163.449V108.276Z" fill="#006DF0"/>
<path d="M163.449 130.345H152.414V141.379H163.449V130.345Z" fill="#006DF0"/>
<path d="M163.449 163.448H152.414V174.483H163.449V163.448Z" fill="#006DF0"/>
<path d="M163.449 185.517H152.414V196.552H163.449V185.517Z" fill="#006DF0"/>
<path d="M163.449 196.552H152.414V207.586H163.449V196.552Z" fill="#006DF0"/>
<path d="M163.449 218.621H152.414V229.655H163.449V218.621Z" fill="#006DF0"/>
<path d="M163.449 251.724H152.414V262.759H163.449V251.724Z" fill="#006DF0"/>
<path d="M163.449 273.793H152.414V284.827H163.449V273.793Z" fill="#006DF0"/>
<path d="M163.449 284.828H152.414V295.862H163.449V284.828Z" fill="#006DF0"/>
<path d="M163.449 306.896H152.414V317.931H163.449V306.896Z" fill="#006DF0"/>
<path d="M163.449 328.965H152.414V340H163.449V328.965Z" fill="#006DF0"/>
<path d="M174.483 31.0347H163.448V42.0692H174.483V31.0347Z" fill="#006DF0"/>
<path d="M174.483 53.1035H163.448V64.138H174.483V53.1035Z" fill="#006DF0"/>
<path d="M174.483 75.1724H163.448V86.2068H174.483V75.1724Z" fill="#006DF0"/>
<path d="M174.483 108.276H163.448V119.31H174.483V108.276Z" fill="#006DF0"/>
<path d="M174.483 119.311H163.448V130.345H174.483V119.311Z" fill="#006DF0"/>
<path d="M174.483 174.483H163.448V185.517H174.483V174.483Z" fill="#006DF0"/>
<path d="M174.483 196.552H163.448V207.586H174.483V196.552Z" fill="#006DF0"/>
<path d="M174.483 207.586H163.448V218.621H174.483V207.586Z" fill="#006DF0"/>
<path d="M174.483 240.689H163.448V251.724H174.483V240.689Z" fill="#006DF0"/>
<path d="M174.483 251.724H163.448V262.759H174.483V251.724Z" fill="#006DF0"/>
<path d="M174.483 295.862H163.448V306.897H174.483V295.862Z" fill="#006DF0"/>
<path d="M174.483 306.896H163.448V317.931H174.483V306.896Z" fill="#006DF0"/>
<path d="M185.517 20H174.482V31.0345H185.517V20Z" fill="#006DF0"/>
<path d="M185.517 31.0347H174.482V42.0692H185.517V31.0347Z" fill="#006DF0"/>
<path d="M185.517 42.0688H174.482V53.1033H185.517V42.0688Z" fill="#006DF0"/>
<path d="M185.517 64.1377H174.482V75.1722H185.517V64.1377Z" fill="#006DF0"/>
<path d="M185.517 86.207H174.482V97.2415H185.517V86.207Z" fill="#006DF0"/>
<path d="M185.517 97.2412H174.482V108.276H185.517V97.2412Z" fill="#006DF0"/>
<path d="M185.517 108.276H174.482V119.31H185.517V108.276Z" fill="#006DF0"/>
<path d="M185.517 119.311H174.482V130.345H185.517V119.311Z" fill="#006DF0"/>
<path d="M185.517 141.379H174.482V152.414H185.517V141.379Z" fill="#006DF0"/>
<path d="M185.517 174.483H174.482V185.517H185.517V174.483Z" fill="#006DF0"/>
<path d="M185.517 196.552H174.482V207.586H185.517V196.552Z" fill="#006DF0"/>
<path d="M185.517 240.689H174.482V251.724H185.517V240.689Z" fill="#006DF0"/>
<path d="M185.517 251.724H174.482V262.759H185.517V251.724Z" fill="#006DF0"/>
<path d="M185.517 273.793H174.482V284.827H185.517V273.793Z" fill="#006DF0"/>
<path d="M185.517 306.896H174.482V317.931H185.517V306.896Z" fill="#006DF0"/>
<path d="M185.517 317.931H174.482V328.966H185.517V317.931Z" fill="#006DF0"/>
<path d="M196.552 108.276H185.518V119.31H196.552V108.276Z" fill="#006DF0"/>
<path d="M196.552 119.311H185.518V130.345H196.552V119.311Z" fill="#006DF0"/>
<path d="M196.552 130.345H185.518V141.379H196.552V130.345Z" fill="#006DF0"/>
<path d="M196.552 163.448H185.518V174.483H196.552V163.448Z" fill="#006DF0"/>
<path d="M196.552 174.483H185.518V185.517H196.552V174.483Z" fill="#006DF0"/>
<path d="M196.552 207.586H185.518V218.621H196.552V207.586Z" fill="#006DF0"/>
<path d="M196.552 218.621H185.518V229.655H196.552V218.621Z" fill="#006DF0"/>
<path d="M196.552 229.655H185.518V240.69H196.552V229.655Z" fill="#006DF0"/>
<path d="M196.552 251.724H185.518V262.759H196.552V251.724Z" fill="#006DF0"/>
<path d="M196.552 262.759H185.518V273.793H196.552V262.759Z" fill="#006DF0"/>
<path d="M196.552 273.793H185.518V284.827H196.552V273.793Z" fill="#006DF0"/>
<path d="M196.552 284.828H185.518V295.862H196.552V284.828Z" fill="#006DF0"/>
<path d="M196.552 295.862H185.518V306.897H196.552V295.862Z" fill="#006DF0"/>
<path d="M196.552 306.896H185.518V317.931H196.552V306.896Z" fill="#006DF0"/>
<path d="M196.552 328.965H185.518V340H196.552V328.965Z" fill="#006DF0"/>
<path d="M207.586 20H196.552V31.0345H207.586V20Z" fill="#006DF0"/>
<path d="M207.586 64.1377H196.552V75.1722H207.586V64.1377Z" fill="#006DF0"/>
<path d="M207.586 75.1724H196.552V86.2068H207.586V75.1724Z" fill="#006DF0"/>
<path d="M207.586 86.207H196.552V97.2415H207.586V86.207Z" fill="#006DF0"/>
<path d="M207.586 97.2412H196.552V108.276H207.586V97.2412Z" fill="#006DF0"/>
<path d="M207.586 141.379H196.552V152.414H207.586V141.379Z" fill="#006DF0"/>
<path d="M207.586 152.414H196.552V163.448H207.586V152.414Z" fill="#006DF0"/>
<path d="M207.586 163.448H196.552V174.483H207.586V163.448Z" fill="#006DF0"/>
<path d="M207.586 207.586H196.552V218.621H207.586V207.586Z" fill="#006DF0"/>
<path d="M207.586 229.655H196.552V240.69H207.586V229.655Z" fill="#006DF0"/>
<path d="M207.586 295.862H196.552V306.897H207.586V295.862Z" fill="#006DF0"/>
<path d="M207.586 328.965H196.552V340H207.586V328.965Z" fill="#006DF0"/>
<path d="M218.62 31.0347H207.586V42.0692H218.62V31.0347Z" fill="#006DF0"/>
<path d="M218.62 53.1035H207.586V64.138H218.62V53.1035Z" fill="#006DF0"/>
<path d="M218.62 75.1724H207.586V86.2068H218.62V75.1724Z" fill="#006DF0"/>
<path d="M218.62 108.276H207.586V119.31H218.62V108.276Z" fill="#006DF0"/>
<path d="M218.62 163.448H207.586V174.483H218.62V163.448Z" fill="#006DF0"/>
<path d="M218.62 174.483H207.586V185.517H218.62V174.483Z" fill="#006DF0"/>
<path d="M218.62 196.552H207.586V207.586H218.62V196.552Z" fill="#006DF0"/>
<path d="M218.62 240.689H207.586V251.724H218.62V240.689Z" fill="#006DF0"/>
<path d="M218.62 251.724H207.586V262.759H218.62V251.724Z" fill="#006DF0"/>
<path d="M218.62 262.759H207.586V273.793H218.62V262.759Z" fill="#006DF0"/>
<path d="M218.62 295.862H207.586V306.897H218.62V295.862Z" fill="#006DF0"/>
<path d="M218.62 306.896H207.586V317.931H218.62V306.896Z" fill="#006DF0"/>
<path d="M218.62 328.965H207.586V340H218.62V328.965Z" fill="#006DF0"/>
<path d="M229.656 20H218.621V31.0345H229.656V20Z" fill="#006DF0"/>
<path d="M229.656 42.0688H218.621V53.1033H229.656V42.0688Z" fill="#006DF0"/>
<path d="M229.656 75.1724H218.621V86.2068H229.656V75.1724Z" fill="#006DF0"/>
<path d="M229.656 86.207H218.621V97.2415H229.656V86.207Z" fill="#006DF0"/>
<path d="M229.656 97.2412H218.621V108.276H229.656V97.2412Z" fill="#006DF0"/>
<path d="M229.656 152.414H218.621V163.448H229.656V152.414Z" fill="#006DF0"/>
<path d="M229.656 163.448H218.621V174.483H229.656V163.448Z" fill="#006DF0"/>
<path d="M229.656 207.586H218.621V218.621H229.656V207.586Z" fill="#006DF0"/>
<path d="M229.656 218.621H218.621V229.655H229.656V218.621Z" fill="#006DF0"/>
<path d="M229.656 251.724H218.621V262.759H229.656V251.724Z" fill="#006DF0"/>
<path d="M229.656 295.862H218.621V306.897H229.656V295.862Z" fill="#006DF0"/>
<path d="M229.656 317.931H218.621V328.966H229.656V317.931Z" fill="#006DF0"/>
<path d="M240.69 42.0688H229.655V53.1033H240.69V42.0688Z" fill="#006DF0"/>
<path d="M240.69 64.1377H229.655V75.1722H240.69V64.1377Z" fill="#006DF0"/>
<path d="M240.69 119.311H229.655V130.345H240.69V119.311Z" fill="#006DF0"/>
<path d="M240.69 141.379H229.655V152.414H240.69V141.379Z" fill="#006DF0"/>
<path d="M240.69 163.448H229.655V174.483H240.69V163.448Z" fill="#006DF0"/>
<path d="M240.69 185.517H229.655V196.552H240.69V185.517Z" fill="#006DF0"/>
<path d="M240.69 207.586H229.655V218.621H240.69V207.586Z" fill="#006DF0"/>
<path d="M240.69 218.621H229.655V229.655H240.69V218.621Z" fill="#006DF0"/>
<path d="M240.69 262.759H229.655V273.793H240.69V262.759Z" fill="#006DF0"/>
<path d="M240.69 273.793H229.655V284.827H240.69V273.793Z" fill="#006DF0"/>
<path d="M240.69 284.828H229.655V295.862H240.69V284.828Z" fill="#006DF0"/>
<path d="M240.69 317.931H229.655V328.966H240.69V317.931Z" fill="#006DF0"/>
<path d="M240.69 328.965H229.655V340H240.69V328.965Z" fill="#006DF0"/>
<path d="M251.724 20H240.689V31.0345H251.724V20Z" fill="#006DF0"/>
<path d="M251.724 64.1377H240.689V75.1722H251.724V64.1377Z" fill="#006DF0"/>
<path d="M251.724 75.1724H240.689V86.2068H251.724V75.1724Z" fill="#006DF0"/>
<path d="M251.724 86.207H240.689V97.2415H251.724V86.207Z" fill="#006DF0"/>
<path d="M251.724 97.2412H240.689V108.276H251.724V97.2412Z" fill="#006DF0"/>
<path d="M251.724 130.345H240.689V141.379H251.724V130.345Z" fill="#006DF0"/>
<path d="M251.724 152.414H240.689V163.448H251.724V152.414Z" fill="#006DF0"/>
<path d="M251.724 163.448H240.689V174.483H251.724V163.448Z" fill="#006DF0"/>
<path d="M251.724 174.483H240.689V185.517H251.724V174.483Z" fill="#006DF0"/>
<path d="M251.724 185.517H240.689V196.552H251.724V185.517Z" fill="#006DF0"/>
<path d="M251.724 207.586H240.689V218.621H251.724V207.586Z" fill="#006DF0"/>
<path d="M251.724 240.689H240.689V251.724H251.724V240.689Z" fill="#006DF0"/>
<path d="M251.724 251.724H240.689V262.759H251.724V251.724Z" fill="#006DF0"/>
<path d="M251.724 262.759H240.689V273.793H251.724V262.759Z" fill="#006DF0"/>
<path d="M251.724 273.793H240.689V284.827H251.724V273.793Z" fill="#006DF0"/>
<path d="M251.724 284.828H240.689V295.862H251.724V284.828Z" fill="#006DF0"/>
<path d="M251.724 295.862H240.689V306.897H251.724V295.862Z" fill="#006DF0"/>
<path d="M262.759 163.448H251.725V174.483H262.759V163.448Z" fill="#006DF0"/>
<path d="M262.759 185.517H251.725V196.552H262.759V185.517Z" fill="#006DF0"/>
<path d="M262.759 207.586H251.725V218.621H262.759V207.586Z" fill="#006DF0"/>
<path d="M262.759 240.689H251.725V251.724H262.759V240.689Z" fill="#006DF0"/>
<path d="M262.759 284.828H251.725V295.862H262.759V284.828Z" fill="#006DF0"/>
<path d="M262.759 295.862H251.725V306.897H262.759V295.862Z" fill="#006DF0"/>
<path d="M262.759 306.896H251.725V317.931H262.759V306.896Z" fill="#006DF0"/>
<path d="M273.793 20H262.759V31.0345H273.793V20Z" fill="#006DF0"/>
<path d="M273.793 31.0347H262.759V42.0692H273.793V31.0347Z" fill="#006DF0"/>
<path d="M273.793 42.0688H262.759V53.1033H273.793V42.0688Z" fill="#006DF0"/>
<path d="M273.793 53.1035H262.759V64.138H273.793V53.1035Z" fill="#006DF0"/>
<path d="M273.793 64.1377H262.759V75.1722H273.793V64.1377Z" fill="#006DF0"/>
<path d="M273.793 75.1724H262.759V86.2068H273.793V75.1724Z" fill="#006DF0"/>
<path d="M273.793 86.207H262.759V97.2415H273.793V86.207Z" fill="#006DF0"/>
<path d="M273.793 130.345H262.759V141.379H273.793V130.345Z" fill="#006DF0"/>
<path d="M273.793 141.379H262.759V152.414H273.793V141.379Z" fill="#006DF0"/>
<path d="M273.793 152.414H262.759V163.448H273.793V152.414Z" fill="#006DF0"/>
<path d="M273.793 163.448H262.759V174.483H273.793V163.448Z" fill="#006DF0"/>
<path d="M273.793 185.517H262.759V196.552H273.793V185.517Z" fill="#006DF0"/>
<path d="M273.793 207.586H262.759V218.621H273.793V207.586Z" fill="#006DF0"/>
<path d="M273.793 218.621H262.759V229.655H273.793V218.621Z" fill="#006DF0"/>
<path d="M273.793 240.689H262.759V251.724H273.793V240.689Z" fill="#006DF0"/>
<path d="M273.793 262.759H262.759V273.793H273.793V262.759Z" fill="#006DF0"/>
<path d="M273.793 284.828H262.759V295.862H273.793V284.828Z" fill="#006DF0"/>
<path d="M273.793 306.896H262.759V317.931H273.793V306.896Z" fill="#006DF0"/>
<path d="M273.793 317.931H262.759V328.966H273.793V317.931Z" fill="#006DF0"/>
<path d="M273.793 328.965H262.759V340H273.793V328.965Z" fill="#006DF0"/>
<path d="M284.827 20H273.793V31.0345H284.827V20Z" fill="#006DF0"/>
<path d="M284.827 86.207H273.793V97.2415H284.827V86.207Z" fill="#006DF0"/>
<path d="M284.827 119.311H273.793V130.345H284.827V119.311Z" fill="#006DF0"/>
<path d="M284.827 130.345H273.793V141.379H284.827V130.345Z" fill="#006DF0"/>
<path d="M284.827 141.379H273.793V152.414H284.827V141.379Z" fill="#006DF0"/>
<path d="M284.827 152.414H273.793V163.448H284.827V152.414Z" fill="#006DF0"/>
<path d="M284.827 174.483H273.793V185.517H284.827V174.483Z" fill="#006DF0"/>
<path d="M284.827 196.552H273.793V207.586H284.827V196.552Z" fill="#006DF0"/>
<path d="M284.827 207.586H273.793V218.621H284.827V207.586Z" fill="#006DF0"/>
<path d="M284.827 240.689H273.793V251.724H284.827V240.689Z" fill="#006DF0"/>
<path d="M284.827 284.828H273.793V295.862H284.827V284.828Z" fill="#006DF0"/>
<path d="M284.827 306.896H273.793V317.931H284.827V306.896Z" fill="#006DF0"/>
<path d="M295.862 20H284.827V31.0345H295.862V20Z" fill="#006DF0"/>
<path d="M295.862 42.0688H284.827V53.1033H295.862V42.0688Z" fill="#006DF0"/>
<path d="M295.862 53.1035H284.827V64.138H295.862V53.1035Z" fill="#006DF0"/>
<path d="M295.862 64.1377H284.827V75.1722H295.862V64.1377Z" fill="#006DF0"/>
<path d="M295.862 86.207H284.827V97.2415H295.862V86.207Z" fill="#006DF0"/>
<path d="M295.862 108.276H284.827V119.31H295.862V108.276Z" fill="#006DF0"/>
<path d="M295.862 119.311H284.827V130.345H295.862V119.311Z" fill="#006DF0"/>
<path d="M295.862 130.345H284.827V141.379H295.862V130.345Z" fill="#006DF0"/>
<path d="M295.862 163.448H284.827V174.483H295.862V163.448Z" fill="#006DF0"/>
<path d="M295.862 185.517H284.827V196.552H295.862V185.517Z" fill="#006DF0"/>
<path d="M295.862 207.586H284.827V218.621H295.862V207.586Z" fill="#006DF0"/>
<path d="M295.862 229.655H284.827V240.69H295.862V229.655Z" fill="#006DF0"/>
<path d="M295.862 240.689H284.827V251.724H295.862V240.689Z" fill="#006DF0"/>
<path d="M295.862 251.724H284.827V262.759H295.862V251.724Z" fill="#006DF0"/>
<path d="M295.862 262.759H284.827V273.793H295.862V262.759Z" fill="#006DF0"/>
<path d="M295.862 273.793H284.827V284.827H295.862V273.793Z" fill="#006DF0"/>
<path d="M295.862 284.828H284.827V295.862H295.862V284.828Z" fill="#006DF0"/>
<path d="M295.862 306.896H284.827V317.931H295.862V306.896Z" fill="#006DF0"/>
<path d="M295.862 328.965H284.827V340H295.862V328.965Z" fill="#006DF0"/>
<path d="M306.897 20H295.862V31.0345H306.897V20Z" fill="#006DF0"/>
<path d="M306.897 42.0688H295.862V53.1033H306.897V42.0688Z" fill="#006DF0"/>
<path d="M306.897 53.1035H295.862V64.138H306.897V53.1035Z" fill="#006DF0"/>
<path d="M306.897 64.1377H295.862V75.1722H306.897V64.1377Z" fill="#006DF0"/>
<path d="M306.897 86.207H295.862V97.2415H306.897V86.207Z" fill="#006DF0"/>
<path d="M306.897 108.276H295.862V119.31H306.897V108.276Z" fill="#006DF0"/>
<path d="M306.897 141.379H295.862V152.414H306.897V141.379Z" fill="#006DF0"/>
<path d="M306.897 174.483H295.862V185.517H306.897V174.483Z" fill="#006DF0"/>
<path d="M306.897 196.552H295.862V207.586H306.897V196.552Z" fill="#006DF0"/>
<path d="M306.897 218.621H295.862V229.655H306.897V218.621Z" fill="#006DF0"/>
<path d="M306.897 251.724H295.862V262.759H306.897V251.724Z" fill="#006DF0"/>
<path d="M306.897 262.759H295.862V273.793H306.897V262.759Z" fill="#006DF0"/>
<path d="M306.897 284.828H295.862V295.862H306.897V284.828Z" fill="#006DF0"/>
<path d="M306.897 295.862H295.862V306.897H306.897V295.862Z" fill="#006DF0"/>
<path d="M306.897 306.896H295.862V317.931H306.897V306.896Z" fill="#006DF0"/>
<path d="M306.897 317.931H295.862V328.966H306.897V317.931Z" fill="#006DF0"/>
<path d="M317.931 20H306.896V31.0345H317.931V20Z" fill="#006DF0"/>
<path d="M317.931 42.0688H306.896V53.1033H317.931V42.0688Z" fill="#006DF0"/>
<path d="M317.931 53.1035H306.896V64.138H317.931V53.1035Z" fill="#006DF0"/>
<path d="M317.931 64.1377H306.896V75.1722H317.931V64.1377Z" fill="#006DF0"/>
<path d="M317.931 86.207H306.896V97.2415H317.931V86.207Z" fill="#006DF0"/>
<path d="M317.931 119.311H306.896V130.345H317.931V119.311Z" fill="#006DF0"/>
<path d="M317.931 174.483H306.896V185.517H317.931V174.483Z" fill="#006DF0"/>
<path d="M317.931 185.517H306.896V196.552H317.931V185.517Z" fill="#006DF0"/>
<path d="M317.931 196.552H306.896V207.586H317.931V196.552Z" fill="#006DF0"/>
<path d="M317.931 207.586H306.896V218.621H317.931V207.586Z" fill="#006DF0"/>
<path d="M317.931 240.689H306.896V251.724H317.931V240.689Z" fill="#006DF0"/>
<path d="M317.931 262.759H306.896V273.793H317.931V262.759Z" fill="#006DF0"/>
<path d="M317.931 295.862H306.896V306.897H317.931V295.862Z" fill="#006DF0"/>
<path d="M317.931 306.896H306.896V317.931H317.931V306.896Z" fill="#006DF0"/>
<path d="M317.931 317.931H306.896V328.966H317.931V317.931Z" fill="#006DF0"/>
<path d="M317.931 328.965H306.896V340H317.931V328.965Z" fill="#006DF0"/>
<path d="M328.965 20H317.931V31.0345H328.965V20Z" fill="#006DF0"/>
<path d="M328.965 86.207H317.931V97.2415H328.965V86.207Z" fill="#006DF0"/>
<path d="M328.965 119.311H317.931V130.345H328.965V119.311Z" fill="#006DF0"/>
<path d="M328.965 163.448H317.931V174.483H328.965V163.448Z" fill="#006DF0"/>
<path d="M328.965 207.586H317.931V218.621H328.965V207.586Z" fill="#006DF0"/>
<path d="M328.965 240.689H317.931V251.724H328.965V240.689Z" fill="#006DF0"/>
<path d="M328.965 273.793H317.931V284.827H328.965V273.793Z" fill="#006DF0"/>
<path d="M328.965 284.828H317.931V295.862H328.965V284.828Z" fill="#006DF0"/>
<path d="M328.965 306.896H317.931V317.931H328.965V306.896Z" fill="#006DF0"/>
<path d="M340 20H328.966V31.0345H340V20Z" fill="#006DF0"/>
<path d="M340 31.0347H328.966V42.0692H340V31.0347Z" fill="#006DF0"/>
<path d="M340 42.0688H328.966V53.1033H340V42.0688Z" fill="#006DF0"/>
<path d="M340 53.1035H328.966V64.138H340V53.1035Z" fill="#006DF0"/>
<path d="M340 64.1377H328.966V75.1722H340V64.1377Z" fill="#006DF0"/>
<path d="M340 75.1724H328.966V86.2068H340V75.1724Z" fill="#006DF0"/>
<path d="M340 86.207H328.966V97.2415H340V86.207Z" fill="#006DF0"/>
<path d="M340 152.414H328.966V163.448H340V152.414Z" fill="#006DF0"/>
<path d="M340 163.448H328.966V174.483H340V163.448Z" fill="#006DF0"/>
<path d="M340 185.517H328.966V196.552H340V185.517Z" fill="#006DF0"/>
<path d="M340 207.586H328.966V218.621H340V207.586Z" fill="#006DF0"/>
<path d="M340 218.621H328.966V229.655H340V218.621Z" fill="#006DF0"/>
<path d="M340 240.689H328.966V251.724H340V240.689Z" fill="#006DF0"/>
<path d="M340 273.793H328.966V284.827H340V273.793Z" fill="#006DF0"/>
<path d="M340 295.862H328.966V306.897H340V295.862Z" fill="#006DF0"/>
<path d="M340 317.931H328.966V328.966H340V317.931Z" fill="#006DF0"/>
</svg>
