<svg width="48" height="48" fill="none" xmlns="http://www.w3.org/2000/svg"><path fill-rule="evenodd" clip-rule="evenodd" d="M4.5 20.25a.75.75 0 01.75-.75h28.5a.75.75 0 010 1.5H6v7.564L10.436 33h27.128L42 28.564V21h-3.75a.75.75 0 010-1.5h4.5a.75.75 0 01.75.75v8.625a.75.75 0 01-.22.53l-4.875 4.875a.75.75 0 01-.53.22h-27.75a.75.75 0 01-.53-.22L4.72 29.405a.75.75 0 01-.22-.53V20.25z" fill="#D09D38"/><path d="M12 26.25a.75.75 0 01.75-.75h22.5a.75.75 0 010 1.5h-22.5a.75.75 0 01-.75-.75zm21.75-15a.75.75 0 011.5 0v4.5a.75.75 0 01-1.5 0v-4.5zm-21 0a.75.75 0 011.5 0v4.5a.75.75 0 01-1.5 0v-4.5zm3 0a.75.75 0 011.5 0v4.5a.75.75 0 01-1.5 0v-4.5zm10.5 0a.75.75 0 011.5 0v4.5a.75.75 0 01-1.5 0v-4.5zm3.75 0a.75.75 0 011.5 0v4.5a.75.75 0 01-1.5 0v-4.5z" fill="#D09D38"/><path fill-rule="evenodd" clip-rule="evenodd" d="M26.52 10.674a.75.75 0 011.056.096l1.299 1.559 1.299-1.56a.75.75 0 111.152.961l-1.875 2.25a.75.75 0 01-1.152 0l-1.875-2.25a.75.75 0 01.096-1.056zm-7.02.764c0-.518.42-.938.938-.938h1.312A2.25 2.25 0 0124 12.75v1.5a2.25 2.25 0 01-2.25 2.25h-1.313a.937.937 0 01-.937-.938v-4.124zM21 12v3h.75a.75.75 0 00.75-.75v-1.5a.75.75 0 00-.75-.75H21z" fill="#D09D38"/><path d="M13.5 12.75h3v1.5h-3v-1.5z" fill="#D09D38"/></svg>