<svg width="48" height="48" fill="none" xmlns="http://www.w3.org/2000/svg"><path fill-rule="evenodd" clip-rule="evenodd" d="M4.658 30.08A1.5 1.5 0 016 29.25h36a1.5 1.5 0 011.342.83l4.5 9a1.5 1.5 0 01.158.67v3a1.5 1.5 0 01-1.5 1.5h-45a1.5 1.5 0 01-1.5-1.5v-3a1.5 1.5 0 01.158-.67l4.5-9zM42 30.75H6l-4.5 9v3h45v-3l-4.5-9z" fill="#D09D38"/><path fill-rule="evenodd" clip-rule="evenodd" d="M46.5 41.25h-45v-1.5h45v1.5z" fill="#D09D38"/><path fill-rule="evenodd" clip-rule="evenodd" d="M19.538 35.763a.75.75 0 01.712-.513h7.5a.75.75 0 01.712.513l1.5 4.5a.75.75 0 01-.712.987h-10.5a.75.75 0 01-.712-.987l1.5-4.5zm1.253.987l-1 3h8.418l-1-3h-6.418zM40.5 5.25h-33A1.5 1.5 0 006 6.75v22.5h36V6.75a1.5 1.5 0 00-1.5-1.5zm-33-1.5a3 3 0 00-3 3v24h39v-24a3 3 0 00-3-3h-33z" fill="#D09D38"/><path fill-rule="evenodd" clip-rule="evenodd" d="M8.25 9a1.5 1.5 0 011.5-1.5h15.404a.75.75 0 110 1.5H9.75v16.5h28.5V9h-9.635a.75.75 0 010-1.5h9.635a1.5 1.5 0 011.5 1.5v16.5a1.5 1.5 0 01-1.5 1.5H9.75a1.5 1.5 0 01-1.5-1.5V9z" fill="#D09D38"/></svg>