<svg width="186" height="30" fill="none" xmlns="http://www.w3.org/2000/svg"><g clip-path="url(#clip0)"><path d="M100.763 5.342l2.8 3.791 2.812-3.79h1.208v8.012h-1.333V7.61l-2.675 3.634-2.7-3.646v5.757h-1.32V5.342h1.208zm9.418 8.013V5.342h1.333V11.1l4.504-5.757h1.152v8.013h-1.321V7.589l-4.516 5.766h-1.152zm12.133-2.775h-1.231v2.775h-1.321V5.342h2.552c1.649 0 2.777 1.14 2.777 2.619 0 1.479-1.128 2.618-2.777 2.618zm-.012-3.995h-1.219v2.754h1.219c.949 0 1.491-.599 1.491-1.376 0-.781-.542-1.378-1.491-1.378zM99.555 24.63v-8.01h1.332v5.756l4.504-5.756h1.152v8.012h-1.32v-5.766l-4.516 5.766h-1.152zm9.581-8.011h1.32v3.318h3.964v-3.319h1.32v8.013h-1.32v-3.442h-3.964v3.442h-1.32v-8.012zm9.203 0h2.767c1.435 0 2.393 1.003 2.393 2.21 0 .724-.305 1.22-.745 1.548.733.304 1.288.914 1.288 1.907 0 1.32-1.061 2.347-2.585 2.347h-3.116v-8.012h-.002zm2.699 3.374c.723 0 1.164-.463 1.164-1.084 0-.587-.441-1.083-1.164-1.083h-1.377v2.167h1.377zm.384 3.43c.859 0 1.332-.474 1.332-1.151 0-.667-.475-1.151-1.332-1.151h-1.761v2.302h1.761zm4.718-6.804h4.82v1.263h-3.5v2.055h2.823V21.2h-2.823v2.167h3.5v1.264h-4.82v-8.012zm6.308 4.006c0-2.347 1.784-4.142 4.176-4.142 1.932 0 3.468 1.252 3.861 2.822h-1.423c-.34-.915-1.309-1.547-2.44-1.547-1.671 0-2.844 1.252-2.844 2.867 0 1.614 1.175 2.866 2.844 2.866 1.129 0 2.1-.632 2.44-1.546h1.423c-.395 1.568-1.931 2.822-3.861 2.822-2.392 0-4.176-1.795-4.176-4.142zm11.627-2.743h-2.327v-1.264h5.984v1.264h-2.337v6.749h-1.32v-6.749zm5.534 6.748v-8.01h1.332v5.756l4.504-5.756h1.152v8.012h-1.32v-5.766l-4.517 5.766h-1.151zm16.853-1.263v2.934h-1.221v-1.67h-6.051v-8.012h1.331v6.748h3.592v-6.748h1.333v6.748h1.016zm2 1.263v-8.01h1.333v5.756l4.504-5.756h1.152v8.012h-1.32v-5.766l-4.517 5.766h-1.152zm9.584 0v-8.01h1.332v5.756l4.505-5.756h1.151v8.012h-1.32v-5.766l-4.516 5.766h-1.152zm1.728-10.393h.868c0 .676.384 1.095 1.005 1.095.62 0 1.004-.417 1.004-1.096h.869c0 1.152-.836 1.875-1.875 1.875-1.036 0-1.871-.723-1.871-1.875zM49.802 13.015c.787.3 1.49.706 2.06 1.224a6.588 6.588 0 011.383 1.931c.325.735.488 1.55.488 2.449 0 .898-.163 1.688-.487 2.42-.354.735-.813 1.387-1.383 1.905-.57.544-1.274.953-2.061 1.25a7.51 7.51 0 01-2.629.463h-9.467V5.342h14.373v3.754H41.663v3.481h5.51c.95.003 1.816.14 2.629.438zm-.65 3.81c-.516-.409-1.192-.627-2.033-.627h-5.456v4.815h5.456c.841 0 1.517-.217 2.033-.626.516-.41.758-.979.758-1.768 0-.79-.242-1.388-.758-1.794zm11.968 7.832h-3.791V5.342h3.79v8.188l6.743-8.188h4.712l-7.69 9.277 9.294 10.038h-4.95l-8.109-8.759v8.76zm18.883-.485a9.888 9.888 0 01-3.178-2.118 9.756 9.756 0 01-2.12-3.149c-.516-1.222-.76-2.523-.76-3.908 0-1.384.247-2.686.76-3.908a9.881 9.881 0 012.12-3.177 9.887 9.887 0 013.178-2.118c1.222-.517 2.579-.76 4.047-.76 1.085 0 2.144.163 3.15.488 1.005.354 1.927.814 2.77 1.413a10.06 10.06 0 012.119 2.173 8.673 8.673 0 011.302 2.823h-4.264a4.104 4.104 0 00-.814-1.302 5.375 5.375 0 00-1.222-.976c-.463-.245-.922-.462-1.44-.597a6.284 6.284 0 00-1.601-.216c-.923 0-1.765.162-2.5.462-.759.325-1.41.76-1.956 1.33a6.145 6.145 0 00-1.247 1.956c-.3.733-.434 1.547-.434 2.415 0 .868.137 1.684.434 2.415.3.733.705 1.384 1.248 1.955a5.325 5.325 0 001.956 1.302c.734.326 1.576.488 2.499.488.542 0 1.085-.082 1.602-.217a5.703 5.703 0 001.439-.625c.463-.245.868-.57 1.222-.95s.626-.814.814-1.302h4.264a8.499 8.499 0 01-1.302 2.794 9.395 9.395 0 01-2.12 2.173 9.59 9.59 0 01-2.77 1.413 9.442 9.442 0 01-3.15.517c-1.464-.006-2.824-.277-4.046-.794z" fill="#fff"/><mask id="a" maskUnits="userSpaceOnUse" x="0" y="0" width="30" height="30"><path d="M15 30c8.284 0 15-6.716 15-15 0-8.284-6.716-15-15-15C6.716 0 0 6.716 0 15c0 8.284 6.716 15 15 15z" fill="#C4C4C4"/></mask><g mask="url(#a)"><path d="M22.337 1.597c7.494 4.23 10.21 13.61 6.065 20.955-4.144 7.345-13.579 9.868-21.073 5.639C-.165 23.96-2.881 14.58 1.263 7.235c4.145-7.344 13.58-9.867 21.074-5.638z" fill="url(#paint0_linear)"/><path d="M22.337 1.597c7.494 4.23 10.21 13.61 6.065 20.955-4.144 7.345-13.579 9.868-21.073 5.639C-.165 23.96-2.881 14.58 1.263 7.235c4.145-7.344 13.58-9.867 21.074-5.638z" fill="url(#paint1_linear)"/><path d="M8.015 20.815C2.359 15.27 1.818 7.098 6.805 2.56c4.986-4.536 13.614-3.72 19.27 1.825 5.657 5.544 6.198 13.715 1.209 18.253-4.99 4.538-13.615 3.72-19.27-1.824z" fill="url(#paint2_radial)"/><path d="M13.963 15.035c-5.752-3.293-8.5-8.88-6.14-12.475 2.36-3.594 8.938-3.84 14.69-.548 5.752 3.293 8.501 8.88 6.139 12.476-2.363 3.597-8.937 3.842-14.689.547z" fill="url(#paint3_radial)"/></g></g><defs><radialGradient id="paint2_radial" cx="0" cy="0" r="1" gradientUnits="userSpaceOnUse" gradientTransform="matrix(-32.95508 -14.42787 29.74812 -67.94847 33.914 16.717)"><stop offset=".097" stop-color="#4581E9"/><stop offset=".46" stop-color="#80ACF0"/><stop offset=".794" stop-color="#F0F6FD"/></radialGradient><radialGradient id="paint3_radial" cx="0" cy="0" r="1" gradientUnits="userSpaceOnUse" gradientTransform="rotate(176.049 22.78 2.16) scale(31.645 37.9577)"><stop stop-color="#4581E9"/><stop offset=".537" stop-color="#87B1F0"/><stop offset=".806" stop-color="#CCE0FD"/><stop offset="1" stop-color="#F0F6FD"/></radialGradient><linearGradient id="paint0_linear" x1="14.348" y1="30.24" x2="14.856" y2="1.721" gradientUnits="userSpaceOnUse"><stop stop-color="#4581E9"/><stop offset=".479" stop-color="#80ACF0"/><stop offset="1" stop-color="#fff"/></linearGradient><linearGradient id="paint1_linear" x1="38.874" y1="29.956" x2="12.798" y2="6.584" gradientUnits="userSpaceOnUse"><stop stop-color="#4581E9"/><stop offset="1" stop-color="#4581E9" stop-opacity="0"/></linearGradient><clipPath id="clip0"><path fill="#fff" d="M0 0h185.034v30H0z"/></clipPath></defs></svg>