<svg width="622" height="79" fill="none" xmlns="http://www.w3.org/2000/svg"><g clip-path="url(#clip0)"><path d="M271.605 60.118c1.197.212 2.255.285 4.158.285 3.027 0 5.5-1.482 7.542-5.43l1.196-2.254-19.593-38.214h6.063l16.566 32.5 17.477-32.5h5.712l-21.635 40.541c-4.158 7.684-7.332 10.362-12.825 10.362-2.254 0-3.451-.212-4.656-.423v-4.867h-.005zm51.113-45.613h34.396v50.057h-5.354V19.584h-23.679v32.5c0 10.362-4.582 13.324-9.869 13.324-1.692 0-2.679-.073-3.737-.285v-4.932c.92.212 2.116.212 3.175.212 3.384 0 5.076-1.978 5.076-9.238v-36.66h-.008zm65.756 20.743c10.703 0 17.149 5.857 17.149 14.68s-6.446 14.68-17.149 14.68h-15.098V14.506h5.383v20.75h9.715v-.007zm-.214 24.343c7.724 0 11.905-3.455 11.905-9.67 0-6.209-4.181-9.67-11.905-9.67h-9.501v19.333h9.501v.007zm33.631-40.002h-16.268v-5.084h37.844v5.084H427.2v45.02h-5.309v-45.02zm32.77 45.02V14.505h5.367v41.003l32.01-41.003h4.731V64.61h-5.368V23.606l-32.01 41.003h-4.73zm63.298-50.104l19.319 25.76 19.319-25.76h4.933V64.61h-5.357V23.752l-18.895 25.19-18.896-25.19v40.857h-5.356V14.505h4.933zm76.831 0h4.307l22.397 50.104h-5.653l-6.998-15.594h-23.948l-6.924 15.594h-5.514l22.333-50.104zm-7.702 29.5h19.57l-9.821-21.948-9.749 21.948zm-457.903-9.598c2.041.78 3.868 1.833 5.347 3.176 1.479 1.41 2.669 3.102 3.587 5.009.842 1.907 1.264 4.022 1.264 6.352s-.422 4.378-1.264 6.278c-.918 1.907-2.108 3.599-3.587 4.942-1.479 1.41-3.306 2.47-5.347 3.243a19.45 19.45 0 01-6.818 1.202H97.808V14.505h37.286v9.736h-27.021v9.03h14.294c2.463.008 4.711.364 6.818 1.136zm-1.686 9.884c-1.338-1.06-3.091-1.625-5.273-1.625h-14.153v12.489h14.153c2.182 0 3.935-.564 5.273-1.625 1.339-1.061 1.967-2.538 1.967-4.586 0-2.048-.628-3.6-1.967-4.653zm31.045 20.318h-9.833V14.505h9.833v21.238l17.489-21.238h12.224L168.31 38.57l24.108 26.039h-12.839l-21.035-22.722v22.722zm48.983-1.259c-3.17-1.34-5.919-3.17-8.245-5.495a25.315 25.315 0 01-5.497-8.168c-1.34-3.17-1.97-6.546-1.97-10.138 0-3.591.637-6.968 1.97-10.137 1.341-3.17 3.171-5.917 5.497-8.242 2.326-2.325 5.075-4.154 8.245-5.495 3.171-1.34 6.69-1.97 10.497-1.97 2.815 0 5.564.423 8.171 1.267 2.608.918 5 2.11 7.186 3.665 2.111 1.622 3.948 3.451 5.497 5.636 1.548 2.184 2.674 4.65 3.378 7.323h-11.061a10.644 10.644 0 00-2.111-3.376 13.935 13.935 0 00-3.17-2.533c-1.2-.637-2.393-1.2-3.734-1.548a16.296 16.296 0 00-4.156-.562c-2.393 0-4.578.422-6.482 1.2-1.97.843-3.659 1.969-5.074 3.45-1.408 1.481-2.467 3.17-3.237 5.073-.778 1.903-1.126 4.013-1.126 6.264 0 2.252.355 4.37 1.126 6.265.777 1.903 1.829 3.591 3.237 5.072 1.407 1.481 3.096 2.607 5.074 3.377 1.904.844 4.089 1.267 6.482 1.267 1.408 0 2.815-.215 4.156-.563 1.341-.356 2.534-.918 3.734-1.622 1.2-.637 2.252-1.48 3.17-2.466a10.367 10.367 0 002.111-3.377h11.061a22.06 22.06 0 01-3.378 7.25c-1.549 2.184-3.378 4.088-5.497 5.635-2.186 1.622-4.578 2.814-7.186 3.666-2.607.918-5.356 1.34-8.171 1.34-3.8-.015-7.326-.718-10.497-2.059z" fill="#fff"/><mask id="a" maskUnits="userSpaceOnUse" x="0" y="0" width="78" height="79"><path d="M38.91 78.467c21.49 0 38.91-17.42 38.91-38.91 0-21.49-17.42-38.91-38.91-38.91C17.42.647 0 18.067 0 39.557c0 21.49 17.42 38.91 38.91 38.91z" fill="#C4C4C4"/></mask><g mask="url(#a)"><path d="M57.942 4.79c19.44 10.97 26.485 35.306 15.734 54.358C62.924 78.2 38.45 84.744 19.01 73.774-.43 62.803-7.474 38.467 3.277 19.415S38.502-6.18 57.942 4.79z" fill="url(#paint0_linear)"/><path d="M57.942 4.79c19.44 10.97 26.485 35.306 15.734 54.358C62.924 78.2 38.45 84.744 19.01 73.774-.43 62.803-7.474 38.467 3.277 19.415S38.502-6.18 57.942 4.79z" fill="url(#paint1_linear)"/><path d="M20.79 54.64C6.118 40.26 4.714 19.058 17.65 7.29c12.937-11.766 35.317-9.648 49.99 4.733 14.67 14.381 16.075 35.577 3.134 47.35C57.832 71.145 35.457 69.02 20.79 54.64z" fill="url(#paint2_radial)"/><path d="M36.22 39.647C21.3 31.105 14.17 16.614 20.292 7.29c6.123-9.325 23.186-9.965 38.107-1.422C73.32 14.409 80.45 28.9 74.322 38.23c-6.127 9.33-23.181 9.965-38.102 1.417z" fill="url(#paint3_radial)"/><path d="M38.91 78.467c21.49 0 38.91-17.42 38.91-38.91 0-21.49-17.42-38.91-38.91-38.91C17.42.647 0 18.067 0 39.557c0 21.49 17.42 38.91 38.91 38.91z" fill="#000"/><path d="M38.91 78.467c21.49 0 38.91-17.42 38.91-38.91 0-21.49-17.42-38.91-38.91-38.91C17.42.647 0 18.067 0 39.557c0 21.49 17.42 38.91 38.91 38.91z" fill="#8B9195"/></g></g><defs><radialGradient id="paint2_radial" cx="0" cy="0" r="1" gradientUnits="userSpaceOnUse" gradientTransform="matrix(-85.48552 -37.42591 77.16654 -176.25815 87.974 44.012)"><stop offset=".097" stop-color="#4581E9"/><stop offset=".46" stop-color="#80ACF0"/><stop offset=".794" stop-color="#F0F6FD"/></radialGradient><radialGradient id="paint3_radial" cx="0" cy="0" r="1" gradientUnits="userSpaceOnUse" gradientTransform="rotate(176.049 59.08 5.929) scale(82.087 98.4623)"><stop stop-color="#4581E9"/><stop offset=".537" stop-color="#87B1F0"/><stop offset=".806" stop-color="#CCE0FD"/><stop offset="1" stop-color="#F0F6FD"/></radialGradient><linearGradient id="paint0_linear" x1="37.217" y1="79.089" x2="38.537" y2="5.112" gradientUnits="userSpaceOnUse"><stop stop-color="#4581E9"/><stop offset=".479" stop-color="#80ACF0"/><stop offset="1" stop-color="#fff"/></linearGradient><linearGradient id="paint1_linear" x1="100.838" y1="78.354" x2="33.198" y2="17.727" gradientUnits="userSpaceOnUse"><stop stop-color="#4581E9"/><stop offset="1" stop-color="#4581E9" stop-opacity="0"/></linearGradient><clipPath id="clip0"><path fill="#fff" transform="translate(0 .647)" d="M0 0h621.494v77.82H0z"/></clipPath></defs></svg>