<svg width="240" height="496" fill="none" xmlns="http://www.w3.org/2000/svg"><path d="M46.793 219.821c-.791-2.789-2.085-4.125-4.045-4.597l4.045 4.597zm62.806 37.55c-.026.63.062 1.33.539 1.788.507.481 1.281.556 1.927.711 2.004.481 3.976.958 6.041 1.058 2.13.1 4.244.394 6.355.669 2.133.28 4.283.41 6.435.4 1.091-.007 2.201-.016 3.289-.126.978-.1 1.926-.368 2.862-.665.22-.068.436-.139.656-.21.138-.045.551-.1.648-.21.094-.103.049-.497.052-.639a3.216 3.216 0 00-.061-.7 2.377 2.377 0 00-.168-.494c-.12-.246-.139-.313-.397-.307-.539.016-1.117.191-1.649.284-2.034.349-4.067.707-6.103 1.02-1.056.162-2.043.042-3.089-.106-1.074-.155-2.149-.31-3.224-.468-4.702-.691-9.401-1.372-14.113-2.005zm-70.545-13.073c-.712.049-1.443-.006-2.148.12-.776.135-1.48.332-2.28.316-1.538-.029-3.134-.426-4.592-.891-.721-.232-1.36-.439-2.112-.265-.674.152-1.339.349-1.983.597-1.263.488-2.435 1.198-3.4 2.154-.843.836-.865 2.098.097 2.834 1.055.81 2.133 1.704 3.475 1.962.795.152 1.645.132 2.452.174.86.049 1.719.094 2.578.139 1.688.091 3.375.175 5.062.255.51.026 1.02.055 1.529.075.353.012.587-.088.914-.217.254-.097.216-.132.207-.397a8.574 8.574 0 01.003-.623c.015-.394.054-.784.1-1.175.202-1.688.501-3.373.098-5.058zm152.351 123.939c.865.759 1.723 1.653 2.901 1.869.655.123 1.327.126 1.988.191a6.168 6.168 0 002.508-.236c.813-.255 1.539-.697 2.188-1.246.739-.63 1.491-1.272 2.101-2.034 1.071-1.339 1.933-2.927 2.278-4.616.084-.416.139-.836.162-1.255.006-.136.067-.559-.016-.662-.029-.036-.168-.061-.21-.077a13.594 13.594 0 00-.794-.256 11.85 11.85 0 00-1.775-.338c-2.133-.249-4.309-.184-6.448-.152-.981.013-1.962.032-2.944.052-.303.006-.606.012-.91.022-.074 0-.335-.022-.377.007-.071.051-.107.345-.129.422a13.265 13.265 0 00-.352 1.621c-.342 2.211-.181 4.461-.171 6.688zm-153.89-6.139c-1.602-.891-3.255-1.25-5.074-1.305a309.96 309.96 0 00-5.785-.112c-.98-.013-1.96-.023-2.94-.033-.617-.006-1.5-.174-2.079.116-.13.065-.241.152-.337.262-.177.2-.155.313-.117.565.067.458.117.917.205 1.368.134.701.374 1.379.632 2.04.886 2.273 2.331 4.329 4.55 5.452 2.343 1.188 5.29 1.427 7.658.188a6.91 6.91 0 002.966-3.035c.378-.758.64-1.591.688-2.437.058-1.039-.176-2.056-.366-3.069zm174.428-116.551c-3.859.514-7.832 1.44-11.657.246a13.23 13.23 0 01-4.411-2.392c-.704-.575-1.324-1.224-1.946-1.885-.304-.323-.627-.646-1.02-.862-.152-.084-.346-.191-.52-.204-.271-.016-.465.252-.674.433-.336.291-.675.581-1.014.872-.103.09-.264.187-.345.297-.152.209-.136.593-.168.858-.11.868-.229 1.734-.294 2.608a86.781 86.781 0 00-.187 3.383c-.019.491-.045.985-.035 1.475.003.284.038.559.093.836.049.242.075.63.188.843.109.21-.094.097.213.197.1.032.242.035.351.051.255.039.507.081.762.123.497.081 1 .155 1.507.171 1.114.036 2.237-.01 3.35-.042 2.227-.064 4.46-.148 6.671-.407 2.301-.271 4.809-.616 6.845-1.791.816-.471 1.801-1.094 2.362-1.869.652-.904.181-1.976-.071-2.941zM38.112 274.376c.136-.681.27-1.285.28-1.982.012-.817.015-1.633.01-2.45-.01-1.508-.053-3.015-.065-4.522-.024-3.048.071-6.088.534-9.103.086-.562.158-1.14-.052-1.685-.107-.274-.218-.484-.482-.575-.344-.119-.81-.109-1.17-.135-1.564-.104-3.132-.162-4.697-.239-1.49-.074-2.981-.136-4.471-.213-1.168-.061-2.35-.204-3.447-.63-1.207-.468-2.033-1.439-3.2-1.946-.075-.036-.41-.239-.479-.22-.075.017-.267.365-.318.433-.169.223-.342.445-.51.671-.445.601-.79 1.237-1.14 1.895a687.324 687.324 0 00-4.296 8.215c-.65 1.262-1.349 2.392-1.134 3.867.185 1.262.989 2.15 1.981 2.876 1.063.778 2.204 1.466 3.442 1.927.303.113.612.213.925.297.385.104.524-.058.802-.329.412-.397.72-.878.972-1.391.688-1.404 1.259-2.866 1.942-4.274.35-.723.67-1.501 1.085-2.188.15-.249.326-.426.637-.362.127.029.245.11.348.184.258.191.245.239.144.523-1.024 2.879-2.228 5.691-2.934 8.673 1.642-.448 3.111.117 4.572.836.801.394 1.619.753 2.433 1.121.712.319 1.487.748 2.28.807.276.019 1.027.006 1.209-.243.094-.129.095-.487.126-.645.057-.278.113-.559.168-.839a30.68 30.68 0 00.409-2.87c.04-.413.02-1.591.756-1.411.339.084.416.775.463 1.101.064.449.057.904.031 1.353-.057 1-.22 2.011-.03 3.008.062.332.146.362.462.478.242.09.454.097.71.09.569-.016 1.136-.071 1.704-.103zm154.871-.133c.384-1.62.733-3.237 1.052-4.874.081-.429.168-.858.255-1.288.065-.313.09-.713.265-.994.122-.203.3-.29.539-.274.196.013.351.064.397.219.058.197-.062.546-.084.752-.104.911-.194 1.821-.31 2.728-.11.881-.307 1.821-.229 2.708.032.388.164.749.29 1.114.058.171.084.384.226.449.165.08.481.029.668.032.807.029 1.617.01 2.424-.049 3.008-.226 6.103-.997 8.688-2.595.119-.074.303-.155.406-.261.162-.171.139-.368.152-.623.023-.455.026-.914.01-1.369a20.834 20.834 0 00-.275-2.647 29.883 29.883 0 00-.542-2.605c-.11-.416-.513-1.372-.08-1.727a.615.615 0 01.406-.122c.194.022.197.09.297.261.229.391.413.775.565 1.201.29.804.587 1.601.833 2.418.245.82.429 1.656.503 2.508.048.581.103 1.417.745 1.678.336.136.84.007 1.204-.013.436-.029.875-.055 1.311-.08.793-.052 1.613-.065 2.394-.23 1.407-.297 2.805-1.133 3.615-2.343.952-1.417.406-2.77-.107-4.235a914.751 914.751 0 00-1.862-5.281 344.433 344.433 0 00-1.872-5.132c-.316-.846-.571-1.782-1.003-2.573-.081-.148-.178-.287-.268-.426-.042-.061-.133-.239-.197-.291-.181-.148.048-.164-.249-.071-.306.097-.645.33-.903.52-1.252.933-2.492 1.646-4.002 2.098-1.62.484-3.318.743-4.996.956a55.88 55.88 0 01-5.39.426c-1.817.058-3.634.148-5.454.194-.855.019-1.713.009-2.569.009 0 3.728-.035 7.447.21 11.172.061.92.161 1.837.184 2.76.023.897-.003 1.798.032 2.695.02.481.058.965.129 1.44.039.242.081.481.139.72.02.087.078.471.142.535.171.162.839.184 1.078.239l1.233.271zM34.28 227.82c.58.274 1.345.794 2.014.836.495.032 1.005-.313 1.363-.61a5.455 5.455 0 001.64-2.363c.3-.869.137-1.705-.202-2.541-.913-2.249-3.292-2.924-5.53-3.06a16.22 16.22 0 00-1.946.007c-.689.039-1.354.064-1.98.381-.973.487-1.83 1.246-2.361 2.201-.576 1.039-.677 2.195-.806 3.351-.139 1.246-.235 2.508-.034 3.754.106.652.345 1.217.554 1.836.181.536.155 1.108.4 1.65.401.891 1.116 1.582 1.783 2.276.784.813 1.53 1.601 2.532 2.156 1.055.584 2.185.752 3.339 1.042 1.307.326 2.581.594 3.938.488a9.628 9.628 0 003.39-.93c1.892-.91 3.615-2.343 4.657-4.18a9.07 9.07 0 001.027-2.866c.087-.494.093-.991.161-1.485.084-.594.265-1.159.297-1.763.142-2.656-1.5-4.567-3.027-6.549-1.523-1.972-3.034-4.122-5.066-5.607-1.785-1.304-3.891-2.082-6.062-2.437-1.188-.194-2.463-.339-3.584.207-.447.216-.827.526-1.346.532-.633.007-1.224-.019-1.849.126-1.079.255-2.051.81-2.959 1.43-.937.639-1.998 1.294-2.67 2.227-.711.988-1.136 2.321-1.504 3.47-.38 1.188-.638 2.418-.695 3.664a11.27 11.27 0 00.48 3.812c.404 1.324.746 2.66 1.126 3.99.168.591.317 1.207.584 1.759.25.523.632.991.985 1.449a19.39 19.39 0 002.209 2.428 16.817 16.817 0 005.544 3.415c2.515.936 5.092.936 7.671.258a24.529 24.529 0 001.857-.578c.234-.08.66-.148.84-.306.173-.152.212-.436.307-.639-1.41.268-2.821.61-4.27.5-1.485-.113-2.94-.717-4.376-1.075-.618-.155-1.23-.284-1.806-.571-.621-.313-1.093-.765-1.568-1.266a93.228 93.228 0 01-3.105-3.428c-.903-1.042-1.147-2.511-1.397-3.834-.274-1.45-.396-2.931-.293-4.407.171-2.433.9-5.322 2.809-7.001.83-.726 1.816-1.084 2.898-1.233 1.407-.194 2.84-.265 4.252-.074 2.352.319 4.738 1.362 5.935 3.515.945 1.701.977 3.799.051 5.517-.569 1.052-1.538 2.082-2.566 2.695-1.114.668-2.392.494-3.558.068-1.085-.397-1.815-1.133-1.99-2.302-.038-.248-.119-.633-.052-.878.086-.313.462-.704.646-.978.38-.558.781-1.094 1.423-1.365.845-.355 2.911-.175 2.86 1.097-.01.223-.125.71-.347.826-.088.046-.41-.025-.512-.032a53.969 53.969 0 00-.695-.045c-.156-.013-.386-.068-.538-.036-.153-.067-.239-.019-.256.143a16.96 16.96 0 00-.137.293c-.162.346-.324.691-.485 1.04zm34.18 174.333c-.328 2.02-.273 4.106-.325 6.152-.055 2.114-.168 4.258-.03 6.369.072 1.042.207 2.075.317 3.115.023.206.003.532.142.658.107.097.387.181.526.236.41.161.878.113 1.314.126 2.159.061 4.321.129 6.483.184 2.163.055 4.328.132 6.49.116 1.05-.01 2.101-.048 3.15-.081 1.062-.032 2.133 0 3.192-.064.988-.062 1.962-.217 2.947-.278a10.467 10.467 0 011.523.01c.471.039.968.239 1.433.216.994-.048 1.998-.184 2.995-.232.629-.033 1.562.1 2.088-.352.513-.442.448-1.346.429-1.947-.035-1.026-.148-2.053-.21-3.076-.132-2.075-.206-4.157-.109-6.236.048-1.059.141-2.114.293-3.16.061-.426.258-.956.139-1.372-.071-.249-.094-.242-.287-.291-.475-.119-1.036-.09-1.52-.116-4.522-.242-9.063-.258-13.59-.294-5.103-.042-10.212-.058-15.314.065-.713.019-1.372.129-2.075.252zm64.118 16.139c.358.117.697.3 1.071.368.416.081.868.046 1.288.058l2.462.059c1.704.041 3.411.08 5.115.109 3.296.052 6.613.142 9.908.058.83-.022 1.659-.071 2.482-.171.397-.048.794-.109 1.188-.184.345-.064.71-.2 1.061-.158.811.094 1.543.268 2.373.236.81-.036 1.613-.165 2.42-.242.784-.078 1.575-.062 2.362-.071.265-.004.339 0 .472-.233.083-.142.151-.287.209-.442.12-.316.175-.652.188-.988.054-1.485-.191-2.998-.249-4.48-.065-1.65-.074-3.309-.081-4.958-.006-1.611.084-3.235.526-4.794.094-.326.113-.529.023-.858-.035-.133-.065-.31-.126-.43-.074-.145.01-.09-.129-.164-.081-.042-.265-.026-.358-.039-.804-.09-1.562-.142-2.372-.093-1.659.106-3.321.222-4.98.306-3.301.165-6.587-.032-9.882.029-3.321.065-6.629.484-9.953.459-1.543-.013-3.185-.339-4.667.193-.148.055-.329.091-.468.168-.206.113-.167.152-.164.4 0 .375.003.746.003 1.12-.003.798-.029 1.592-.048 2.389-.081 3.27-.268 6.575-.004 9.839.068.842.175 1.685.33 2.514zm62.041-233.765c-.426 1.898-.894 3.783-1.217 5.704-.322 1.914-.651 3.815-1.184 5.687-.242.846-.649 1.698-.758 2.573-.097.784.164 1.459.648 2.066 1.027 1.297 1.698 2.831 2.837 4.044 4.334 4.629 11.744 3.871 16.405.165a17.057 17.057 0 001.765-1.614c.248-.265.51-.533.684-.855.229-.423.339-.94.484-1.395.552-1.714 1.12-3.525 1.078-5.349-.071-2.998-2.398-5.358-4.915-6.691-2.395-1.269-5.277-1.788-7.933-1.165-2.453.571-4.347 2.392-4.667 4.948-.287 2.282.946 4.887 3.244 5.623 1.1.352 2.169-.003 2.808-.981.197-.304.342-.636.458-.975.052-.145.21-.458.197-.607-.013-.187-.3-.3-.494-.381-.62-.248-1.233-.084-1.814.178-.587.268-1.155.62-1.807.707-.003-.33-.065-.681.006-1.004.081-.375.388-.63.675-.859a4.15 4.15 0 011.933-.855c.639-.107 1.549-.168 2.133.158.649.361.998 1.259 1.114 1.956.242 1.427-.707 2.844-1.833 3.638-1.088.765-2.456 1.001-3.75.729-2.821-.59-4.835-3.482-5.016-6.275-.216-3.276 1.898-6.297 4.916-7.446 2.646-1.011 5.851-.824 8.526.006 2.666.826 4.973 2.537 6.6 4.8.949 1.317 1.233 2.889 1.294 4.48.068 1.682-.171 3.361-.649 4.971-.442 1.495-1.013 3.29-2.133 4.419-1.049 1.062-2.314 1.979-3.602 2.728a15.764 15.764 0 01-8.261 2.159c-3.202-.061-6.223-1.346-8.598-3.479a20.61 20.61 0 01-1.769-1.814c.084.51.094 1.052.226 1.552.133.491.423.959.697 1.382a8.261 8.261 0 002.185 2.237c2.05 1.443 4.67 2.204 7.123 2.572 2.592.391 5.238.242 7.775-.41 2.423-.619 4.928-1.626 6.922-3.166 1.985-1.533 2.998-3.667 3.663-6.04.72-2.582.959-5.458.365-8.092-.581-2.573-1.93-4.961-3.553-7.014-.775-.978-1.621-1.95-2.582-2.75-1.001-.83-2.159-1.388-3.36-1.869-2.627-1.056-5.46-1.566-8.288-1.317-3.049.264-5.954 1.375-8.578 2.921zm-3.033 54.587c-.94-1.001-1.54-2.221-1.905-3.534a25.722 25.722 0 01-.406-1.837c-.149-.749-.426-1.433-.617-2.166-.79-3.005-.025-6.265 1.136-9.071 1.017-2.449 2.266-5.119 4.532-6.659 1.003-.678 2.359-.923 3.172-1.862.077-.091.21-.223.245-.339.065-.207-.048-.207-.239-.339-.361-.249-.722-.497-1.081-.746-.668-.458-1.336-.92-2.001-1.378-1.216-.839-2.427-1.64-3.333-2.828-.849-1.11-1.379-2.421-1.617-3.792-.401.303-.623.455-.868.916-.255.484-.51.969-.762 1.453-.494.942-.981 1.888-1.446 2.847-.858 1.775-1.694 3.551-2.73 5.232-1.056 1.708-2.35 3.186-3.553 4.781-1.208 1.604-2.382 3.234-3.612 4.822-2.443 3.154-5.044 6.201-8.02 8.861-1.558 1.391-3.182 2.708-4.77 4.064-1.587 1.356-3.108 2.782-4.686 4.145a104.386 104.386 0 01-5.444 4.377c-.907.681-1.824 1.352-2.743 2.014-.488.348-.975.694-1.462 1.036-.162.116-.41.223-.497.403-.071.159-.052.417-.084.581 1.352-.497 2.714-.978 4.076-1.442 1.375-.472 2.746-.736 4.176-.972 2.901-.484 5.712-1.33 8.591-1.914 1.465-.3 2.937-.565 4.409-.833 1.458-.265 2.907-.562 4.389-.707 2.972-.294 5.883-1.039 8.83-1.523 3.059-.504 5.738-1.918 8.32-3.59zm-143.825-.707c.113.21.152.43.323.601.255.251.668.429.968.629.639.423 1.271.859 1.917 1.272a18.117 18.117 0 004.244 1.988c3.117 1.004 6.393 1.753 9.62 2.321 1.646.287 3.305.494 4.945.823 1.62.323 3.207.794 4.805 1.217 3.314.881 6.716 1.488 10.079 2.166 1.9.384 3.802.759 5.709 1.123 1.859.359 3.847.93 5.754.646-.097-1.039-1.517-1.194-2.291-1.501a47.604 47.604 0 01-3.712-1.691c-1.239-.627-2.465-1.282-3.695-1.921-1.204-.623-2.307-1.22-3.366-2.076-2.259-1.83-4.502-3.676-6.748-5.519-2.14-1.756-4.415-3.396-6.397-5.333-1.926-1.882-3.647-3.954-5.354-6.033-1.726-2.098-3.46-4.183-5.063-6.378a86.546 86.546 0 01-4.49-6.801c-1.43-2.408-2.681-4.913-4.03-7.366-.21-.378-.349-.979-.678-1.272-.578-.51-.965.258-1.243.684a11.024 11.024 0 01-2.407 2.637 10.421 10.421 0 01-3.16 1.663c-.597.193-1.2.339-1.781.587-.662.281-1.304.607-1.966.888 1.76.539 3.547 1.004 5.129 1.979a10.287 10.287 0 013.624 3.818c1.08 1.982 1.775 4.284 2.272 6.479.542 2.395.38 4.651-.41 6.965-.849 2.476-1.733 4.939-2.598 7.405zM171.26 70.259c.242.442.549.845.781 1.294.216.413.3.865.465 1.298.251.649.642 1.249 1.236 1.636 1.213.791 2.917.627 4.282.465 1.805-.213 3.563-.771 5.08-1.795 1.743-1.181 3.098-2.927 4.493-4.483 1.491-1.666 2.982-3.322 4.182-5.213 1.139-1.792 2.079-3.71 2.905-5.662.435-1.02.736-2.088 1.052-3.15.035-.12.306-.74.261-.843-.051-.116-.548-.226-.681-.28l-1.581-.656c-.097-.039-.326-.087-.397-.165-.107-.116-.026-.21.029-.39.084-.271.161-.54.239-.807.161-.565.313-1.127.455-1.695a35.13 35.13 0 00.681-3.46c.329-2.308.223-4.6.252-6.924.029-2.389.213-4.823-.159-7.192-.348-2.227-.651-4.46-1.271-6.633-.6-2.111-1.417-4.158-2.359-6.14-.488-1.03-.952-1.904-1.843-2.637a49.547 49.547 0 00-2.759-2.082c-1.204-.852-2.395-1.743-3.667-2.492-2.236-1.317-4.686-1.51-7.235-1.598-2.346-.08-4.693-.158-7.039-.245-1.126-.042-2.262-.161-3.376.058a18.285 18.285 0 01-3.456.368c-2.35.02-4.564-.52-6.784-1.23-2.127-.678-4.402-1.33-6.287-2.547a69.196 69.196 0 01-2.485-1.685c-.029.294-.139.62-.1.917.039.307.2.623.32.904a8.63 8.63 0 00.945 1.685c.765 1.062 1.769 1.927 2.886 2.598.609.368 1.307.533 1.91.895.665.397 1.262.916 1.927 1.32 1.336.807 2.762 1.45 4.205 2.046.72.3 1.449.588 2.172.878.671.271 1.404.488 2.03.852.62.362.878.933 1.178 1.553.113.233.1.255.335.31.204.048.436.045.649.064l1.365.126c2.882.265 5.797.562 8.449 1.798 2.521 1.172 4.544 3.119 5.939 5.51 1.423 2.45 2.23 5.559 1.946 8.403-.12 1.213-.846 2.15-1.875 2.766-.304.18-.623.3-.959.407-.142.048-.426.084-.549.18-.148.113-.154.45-.193.656-.155.807-.326 1.61-.446 2.424-.109.758-.132 1.517-.361 2.253-.219.707-.571 1.353-.994 1.96a26.256 26.256 0 01-2.582 3.182c-1.859 1.956-4.066 3.573-6.548 4.648-.658.284-1.333.517-2.014.746-.72.242-1.413.597-2.143.81-.284.08-.581.13-.861.226-.165.058-.704.265-.733.484-.013.1.297.465.361.565.12.187.239.378.362.565.255.4.513.804.768 1.207 1.898 2.97 3.792 5.943 5.69 8.913.109.17.355.755.552.839.193.087.881-.23 1.084-.294a16.268 16.268 0 002.02-.781 18.954 18.954 0 003.837-2.38 16.501 16.501 0 003.031-3.16c.913-1.242 1.959-2.372 2.843-3.64 1.711-2.457 3.011-5.175 4.008-7.996.53-1.498 1.095-3.057 1.237-4.648.151-1.675-.456-3.276-.307-4.939A34 34 0 01188 37.67c.094-.578.036-1.701.691-1.97.032-.012.116-.122.145-.119.035.007.177.216.21.262.093.129.177.264.255.403a3.2 3.2 0 01.338 1.056c.104.749-.116 1.465-.235 2.198-.129.79-.197 1.598-.123 2.401.074.817.488 1.592.481 2.409-.006.771-.171 1.575-.294 2.337a20.845 20.845 0 01-.522 2.35c-.794 2.82-2.163 5.464-3.631 7.985-2.643 4.539-6.103 8.642-10.741 11.23-.574.32-1.165.617-1.765.891-.306.139-.684.236-.968.413-.274.175-.391.491-.581.743zm37.537 203.7c-2.931 1.172-6.003 1.876-9.114 2.376-1.614.262-3.234.468-4.87.355a11.77 11.77 0 01-2.408-.406c-.352-.097-.677-.22-1.042-.252-.116-.01-.365-.071-.471-.036-.139.052-.181.333-.229.51-.194.733-.113 1.575-.136 2.328-.026.858-.048 1.717-.071 2.572-.042 1.714-.126 3.412.042 5.116.332 3.406.387 6.831.423 10.249.071 6.901.145 13.809.332 20.71.187 6.879.565 13.751.72 20.633.077 3.419.055 6.834-.032 10.249-.042 1.727-.094 3.45-.13 5.174-.019.846-.051 1.675.088 2.511.042.246.054.827.238.956.136.094.455.1.617.132 2.12.404 4.302.549 6.454.627 1.979.074 4.012.122 5.977-.159.159-.022.317-.048.472-.077.245-.052.322-.029.38-.271.204-.827.188-1.776.278-2.625.174-1.704.365-3.408.542-5.113.355-3.389.513-6.769.623-10.174.052-1.682.194-3.37.155-5.058-.039-1.724-.155-3.444-.142-5.171.013-1.705.206-3.377.365-5.075.154-1.684.232-3.376.309-5.067.078-1.692-.032-3.39-.009-5.084.029-1.74.071-3.48.106-5.22.065-3.421.023-6.827-.093-10.248-.058-1.708-.078-3.422.09-5.123.158-1.633.065-3.315.071-4.958.016-3.306-.032-6.624.161-9.923.084-1.488.21-2.969.304-4.458zm-188.082-.522c-.115.355-.273.694-.383 1.052-.121.397-.132.8-.16 1.21-.056.817-.11 1.63-.157 2.447-.099 1.679-.235 3.38-.178 5.058.056 1.646.178 3.27.16 4.923a762.49 762.49 0 01-.325 15.31c-.053 1.691-.11 3.386-.169 5.077-.056 1.64-.222 3.273-.226 4.916-.008 3.377.035 6.753.011 10.133-.012 1.698-.062 3.396-.039 5.097.023 1.643.067 3.289-.052 4.932-.117 1.63-.31 3.221-.191 4.864.122 1.666.5 3.299.619 4.968.233 3.293-.082 6.588.147 9.878.104 1.504.165 3.24.754 4.645.072.171.15.338.223.509.1.233.078.268.317.31.419.078.9.017 1.326.026.819.013 1.638.026 2.456.042 3.363.058 6.727.113 10.09.171l1.233.023.57.01c.067 0 .224.032.285.003.145-.062.127-.168.162-.346.149-.758.173-1.52.203-2.291.065-1.663.07-3.328.072-4.991.005-3.392.117-6.778.126-10.168.017-6.804-.265-13.609-.007-20.41.127-3.37.247-6.736.283-10.113.037-3.38.06-6.759.166-10.139.104-3.36.225-6.714.215-10.077-.009-3.396-.073-6.792-.088-10.188a59.808 59.808 0 00-.072-2.475c-.017-.362-.035-.723-.05-1.085-.003-.065.013-.323-.014-.358-.025-.033-.166-.036-.207-.055a1.025 1.025 0 00-.365-.091c-.323 0-.695.165-1.016.226-.39.075-.782.133-1.177.168-.712.068-1.43.071-2.142.007-1.475-.133-2.912-.549-4.254-1.172-1.335-.62-2.52-1.398-3.973-1.743-1.364-.326-2.778-.374-4.174-.303zm47.684 147.677c-.484 1.668-.5 3.405-.551 5.129a136.133 136.133 0 00-.042 5.258c.013 1.791.022 3.583-.065 5.374a48.232 48.232 0 01-.206 2.634c-.081.794.158 1.627.222 2.425.145 1.736.094 3.482.09 5.222-.003 1.798.107 3.596.146 5.394.07 3.586-.178 7.182-.032 10.765.142 3.58.335 7.153.406 10.736.068 3.525.004 7.057.29 10.572.14 1.717.282 3.444.117 5.168-.065.674-.32 1.417-.123 2.088.162.552.6.927 1.114 1.156 1.478.668 3.282.713 4.876.797 1.772.094 3.544.055 5.312-.061 3.547-.236 7.09-.236 10.644-.155 1.791.038 3.579.097 5.37.148 1.184.032 2.53.233 3.63-.329.892-.458 1.359-1.362 1.582-2.305.371-1.578.365-3.299.42-4.909.116-3.558 0-7.121-.074-10.675-.146-7.198-.259-14.39-.252-21.588.006-7.189.022-14.374.032-21.56.006-3.508.129-7.053-.094-10.555-.025-.41-.077-.894-.39-1.194-.323-.307-.82-.336-1.24-.342-1.716-.03-3.453-.013-5.163.113-1.74.125-3.457.432-5.2.535-1.787.107-3.578.12-5.37.136-1.726.016-3.456.1-5.18.035a505.648 505.648 0 00-5.363-.187c-.836-.026-1.678-.068-2.517-.058-.8.007-1.591.155-2.388.233zm64.15-.246c-.572 1.563-.61 3.215-.643 4.858-.038 1.737-.08 3.47-.071 5.207.013 1.769.036 3.541-.029 5.31a42.634 42.634 0 01-.171 2.653c-.038.391-.093.739-.039 1.13.062.436.123.871.165 1.314.171 1.749.145 3.512.139 5.268-.003 1.804.084 3.602.126 5.406.084 3.554-.152 7.111-.029 10.665.119 3.554.326 7.105.397 10.665.067 3.564.087 7.131.277 10.691.091 1.727.216 3.457.133 5.188-.059 1.142-.51 2.595.555 3.421.5.387 1.145.539 1.755.636a43.57 43.57 0 002.518.358c1.749.178 3.508.178 5.26.094 1.743-.084 3.479-.271 5.225-.323 1.775-.052 3.531.071 5.303.168 1.755.097 3.517.129 5.276.129.878 0 1.759-.006 2.637-.019.619-.007 1.242-.016 1.846-.181.884-.242 1.494-.83 1.81-1.685.494-1.327.543-2.873.626-4.271.217-3.515.052-7.033-.109-10.545-.162-3.554-.133-7.118-.145-10.672-.013-3.563-.017-7.127-.02-10.69 0-7.157.045-14.313.036-21.469-.007-3.609-.042-7.221-.081-10.83-.01-.626.065-1.314-.065-1.934a1.901 1.901 0 00-.342-.758c-.316-.416-.574-.458-1.074-.494-1.717-.126-3.444-.006-5.154.149-3.508.322-7 .632-10.525.687-3.53.058-7.064-.1-10.592-.21-.845-.026-1.694-.074-2.536-.071-.823.003-1.64.107-2.459.155zm-23.747-159.972a110.872 110.872 0 00-7.271 6.708 149.756 149.756 0 00-3.382 3.512c-1.104 1.184-2.146 2.437-3.37 3.505-2.591 2.266-5.363 4.348-8.045 6.508-2.517 2.027-5.038 4.044-7.665 5.926-2.663 1.901-5.522 3.473-8.213 5.323-1.15.791-2.502 1.401-2.908 2.847-.381 1.356-.275 3.054.161 4.374.904 2.731 1.953 5.487 3.93 7.634 2.137 2.317 4.37 4.532 6.75 6.601 1.161 1.013 2.365 1.988 3.685 2.792 1.375.833 2.604 1.769 3.824 2.815 1.143.981 2.385 1.82 3.763 2.43 1.45.639 3.008 1.037 4.531 1.459 3.215.895 6.332 2.108 9.605 2.796 3.259.684 6.577 1.013 9.888 1.275 3.46.271 6.929.416 10.399.329 3.443-.087 6.854-.471 10.269-.907 3.327-.423 6.654-.93 9.904-1.769 1.614-.416 3.176-.949 4.741-1.511 1.54-.548 3.131-.923 4.667-1.478 1.504-.542 2.969-1.185 4.421-1.843 1.446-.659 2.934-1.269 4.338-2.018 2.672-1.42 4.96-3.431 7.352-5.261.309-.236.568-.413.777-.742.236-.372.478-.74.72-1.108.433-.661.868-1.323 1.265-2.004.365-.623.826-1.314.901-2.047.071-.674-.078-1.372-.249-2.017-.41-1.533-1.617-2.724-2.598-3.919-1.026-1.252-2.075-2.492-3.247-3.612-4.85-4.632-9.772-9.215-14.116-14.338a157.33 157.33 0 01-3.198-3.9c-.497-.629-.981-1.271-1.401-1.956-.361-.6-.661-1.223-1.078-1.791-.793-1.085-1.781-2.024-2.472-3.186a8.308 8.308 0 01-.432-.859c-.142-.319-.362-.455-.587-.71-.504-.574-.943-1.246-1.385-1.866-.952-1.336-1.73-2.792-2.517-4.225l-.572-1.036c-.103-.187-.206-.375-.309-.559-.168-.303-.255-.229-.601-.193l-2.478.252a713.893 713.893 0 00-3.67.39c-.358.039-.771.023-1.081.22-.084.055-.31.203-.355.287-.064.123-.029.403-.035.539-.023.413-.026.83-.016 1.243.019.813.093 1.627.213 2.43.458 3.138 1.442 6.246 2.362 9.271.988 3.234 2.259 6.375 3.305 9.59.529 1.633 1.042 3.27 1.546 4.91.132.426.261.852.393 1.275.097.326.262.681.281 1.02.01.19-.022.377-.19.487-.307.207-.559.026-.72-.239-.416-.691-.616-1.594-.897-2.35a538.46 538.46 0 00-.868-2.34 827.133 827.133 0 01-1.769-4.767c-1.165-3.183-2.294-6.382-3.301-9.62-.501-1.607-.991-3.228-1.395-4.864a25.388 25.388 0 01-.471-2.357c-.119-.826-.122-1.659-.21-2.488-.042-.388-.106-.772-.167-1.156-.029-.174-.017-.497-.097-.639-.091-.158-.323-.161-.529-.203-.756-.165-1.527-.326-2.302-.265-.319.026-.855.045-1.052.284-.235.284-.355.797-.51 1.139a44.452 44.452 0 00-.971 2.36c-.607 1.588-1.178 3.189-1.794 4.774-.588 1.501-1.282 2.96-1.821 4.481-1.1 3.098-2.204 6.165-3.55 9.167-1.336 2.989-2.801 5.913-4.321 8.812-.758 1.446-1.507 2.902-2.311 4.322-.258.449-.697 1.433-1.281 1.517-.245.036-.552-.119-.697-.316-.136-.191-.077-.219.023-.436.093-.203.184-.41.274-.613.639-1.433 1.233-2.889 1.985-4.267.771-1.417 1.623-2.776 2.336-4.222 1.423-2.893 2.569-5.908 3.773-8.893a352.467 352.467 0 003.734-9.597c.552-1.498 1.091-2.999 1.646-4.497.523-1.407 1.033-2.827 1.181-4.331-4.87-.417-9.788-.788-14.468-2.289zm84.468-82.964c-.561-.132-1.107-.329-1.672-.442-.577-.113-1.174-.097-1.758-.119-1.256-.049-2.511-.104-3.767-.136-2.527-.068-5.041.026-7.564.139-5.022.226-10.047.445-15.075.41-2.501-.02-4.999-.142-7.5-.139-2.485.003-4.967.068-7.452.068-5.025-.003-10.05-.307-15.069-.491-5.024-.187-10.04.016-15.061.197-5.012.178-10.008.042-15.02.013-5.08-.029-10.156.094-15.233.116-2.463.013-4.925.078-7.387-.022-2.524-.104-5.045-.339-7.572-.449-5.012-.216-10.02-.142-15.036-.249-2.54-.051-5.073-.284-7.606-.461-.536-.039-1.091-.033-1.614-.155-.63-.145-1.252-.342-1.875-.51-1.165-.313-2.33-.63-3.486-.969-1.19-.345-2.375-.71-3.563-1.065-.066.313-.15.462-.057.775.106.358.24.71.359 1.062l.774 2.308c.497 1.478.996 2.957 1.512 4.425 1.02 2.915 2.118 5.801 3.228 8.683.571 1.476 1.146 2.947 1.72 4.423.51 1.304.92 2.759 1.72 3.925.817 1.188 1.608 2.366 2.298 3.638.659 1.21 1.259 2.453 1.866 3.689 2.572 5.229 5.67 10.145 9.133 14.826 3.285 4.435 6.768 8.809 10.976 12.411 2.23 1.905 4.692 3.509 6.926 5.407 1.103.936 2.114 1.982 3.26 2.866 1.042.807 2.158 1.508 3.31 2.147 5.203 2.895 10.812 5.013 16.202 7.524 1.126.526 2.326.991 3.356 1.701.503.346.907.759 1.301 1.224.406.474.939.713 1.539.858 1.423.336 2.937.414 4.386.633 1.491.229 2.982.462 4.47.7 1.549.252 3.098.51 4.65.733.717.103 1.436.191 2.153.297.716.11 1.452.213 2.165.029.423-.11.552-.226.665-.649.078-.293.1-.594.061-.894-.087-.687-.493-1.21-.906-1.74-.852-1.097-1.73-2.172-2.737-3.134-2.069-1.982-4.028-4.083-5.667-6.44-1.688-2.427-3.182-4.983-4.564-7.595-2.782-5.261-5.493-10.687-7.384-16.343-1.901-5.7-2.669-11.678-3.592-17.592-.061-.397-.255-.968-.093-1.372.077-.19.226-.31.41-.39.229-.104.196-.084.348.058.136.132.245.416.323.587.61 1.327.891 2.867 1.149 4.293.523 2.864.852 5.74 1.536 8.574 1.407 5.813 3.824 11.252 6.509 16.575 2.66 5.278 5.355 10.794 9.292 15.258.965 1.098 2.014 2.121 3.066 3.131.51.488 1.02.972 1.523 1.463.229.222.481.581.752.739.087.052.148.061.248.084.091.013.181.022.272.035.142.078.219.036.238-.126.2-.219.326-.661.459-.932.155-.32.303-.643.439-.969.28-.691.535-1.394.8-2.092.552-1.462 1.094-2.927 1.643-4.389 1.094-2.925 2.21-5.84 3.424-8.719 1.171-2.779 2.127-5.642 3.004-8.525.446-1.456.933-2.918 1.285-4.4.168-.7.294-1.41.432-2.117.117-.613.2-1.278.494-1.84.174-.329.584-.852.997-.894.178-.02.217-.016.255.2.023.145-.064.4-.087.545-.068.427-.132.849-.2 1.276-.242 1.513-.49 3.024-.803 4.525-.636 3.06-1.666 5.991-2.734 8.925a512.259 512.259 0 01-3.25 8.632c-1.087 2.84-2.298 5.639-3.318 8.508-.455 1.282-.903 2.583-1.184 3.919a16.237 16.237 0 00-.29 1.94 11.842 11.842 0 00-.046 1.42c.004.1.01.201.017.301-.036.148.025.206.19.171.277.116.758.048 1.052.035.352-.016.7-.058 1.046-.11.755-.116 1.5-.284 2.256-.393 1.026-.146 1.962-.475 2.601-1.343.322-.439.497-.943.694-1.446.284-.723.574-1.443.855-2.166.555-1.43 1.142-2.844 1.759-4.248a398.243 398.243 0 011.862-4.171c.313-.694.626-1.388.942-2.082.255-.555.613-.8 1.046-1.217.113 1.847-.755 3.493-1.146 5.252-.39 1.772-1.484 3.302-1.694 5.129 1.375-.606 2.772-1.175 4.121-1.836 1.391-.681 2.634-1.556 3.889-2.457a140.891 140.891 0 007.504-5.739c1.229-1.01 2.436-2.05 3.617-3.112 1.101-.991 2.327-1.862 3.457-2.827 2.249-1.927 4.428-3.945 6.464-6.101 2.046-2.166 3.95-4.474 5.622-6.947.839-1.236 1.646-2.501 2.624-3.637.968-1.127 1.917-2.241 2.724-3.487.839-1.297 1.478-2.698 2.172-4.073.719-1.42 1.452-2.834 2.162-4.261 1.413-2.837 2.714-5.726 3.734-8.731 1.007-2.97 1.694-6.008 2.114-9.116.103-.743.216-1.488.432-2.208.207-.694.465-1.365.646-2.066.364-1.427.545-2.899.581-4.37.019-.766 0-1.534-.049-2.299zm-5.17 65.382c-3.263.787-6.516 1.626-9.817 2.243-1.688.316-3.396.41-5.093.649a52.536 52.536 0 00-5.038.984c-1.681.404-3.353.843-5.038 1.24-1.675.39-3.356.671-5.047.978-3.205.584-6.3 1.643-9.314 2.857-2.837 1.142-5.893 2.156-7.81 4.687-.923 1.216-1.098 2.553-.436 3.934a53.9 53.9 0 002.43 4.503c.862 1.434 1.691 2.886 2.708 4.216 1.026 1.343 2.094 2.657 3.095 4.019 1.936 2.64 3.802 5.287 5.941 7.773a122.528 122.528 0 006.771 7.22c2.45 2.415 4.996 4.723 7.397 7.186a95.003 95.003 0 013.476 3.754c1.068 1.22 2.317 2.472 3.03 3.944a5.922 5.922 0 01.365 4.193 8.296 8.296 0 01-.971 2.144c-.42.665-.794 1.352-1.223 2.007-.381.581-.72 1.208-1.217 1.702-.52.519-1.178.929-1.756 1.384-1.207.949-2.391 1.927-3.63 2.834-2.615 1.915-5.539 3.193-8.524 4.41a140.1 140.1 0 01-9.746 3.554c-1.636.529-3.279 1.039-4.957 1.413-1.685.378-3.399.643-5.103.927a101.607 101.607 0 01-20.903 1.323 65.508 65.508 0 01-5.164-.41c-1.704-.209-3.411-.406-5.112-.639-1.671-.229-3.343-.5-4.989-.884-1.669-.391-3.256-.956-4.87-1.524a64.013 64.013 0 00-4.931-1.507c-1.485-.388-3.028-.633-4.412-1.324a8.264 8.264 0 01-1.691-1.12c-.552-.474-.994-1.049-1.527-1.543-1.116-1.042-2.443-1.794-3.77-2.527-2.826-1.559-5.253-3.874-7.529-6.133-2.197-2.185-4.47-4.377-5.812-7.215a31.924 31.924 0 01-1.768-4.686c-.346-1.192-.562-2.441-.423-3.68.31-2.76 2.572-4.487 4.857-5.733 5.89-3.221 11.228-7.437 16.453-11.621a556.77 556.77 0 004.005-3.24l2.036-1.656c.646-.526 1.32-1.024 1.862-1.659 1.04-1.224 1.982-2.515 3.08-3.7a57.16 57.16 0 013.42-3.373c1.139-1.036 2.321-2.017 3.492-3.011.545-.462 1.081-.94 1.559-1.472.384-.436 1.1-1.156 1.007-1.763-.168-1.094-.61-2.15-1.456-2.889-.974-.855-2.272-1.081-3.482-1.417-1.643-.458-3.363-.655-5.047-.92a200.08 200.08 0 01-5.154-.849c-3.305-.6-6.546-1.633-9.899-1.924-.858-.074-1.642-.316-2.472-.532-.861-.226-1.723-.449-2.582-.675-1.723-.448-3.443-.897-5.166-1.339-1.614-.417-3.221-1.011-4.883-1.201-1.692-.194-3.34-.391-5.01-.755-1.664-.365-3.31-.782-4.963-1.195-1.546-.387-3.069-.658-4.55-1.275-1.501-.62-2.843-1.504-4.234-2.334-.35-.206-.7-.413-1.053-.619-.187-.113-.377-.223-.568-.336-.177-.103-.455-.349-.648-.384-.281-.052-.759.394-1.017.565l-1.14.755c-.69.452-1.399.884-2.079 1.353-.502.348-.89.819-1.066 1.41-.218.739-.148 1.591-.17 2.356-.026.875-.043 1.753-.06 2.631-.067 3.519-.09 7.037-.34 10.549-.125 1.753-.262 3.502-.298 5.262-.036 1.778-.003 3.56.004 5.339.014 3.566-.214 7.127-.252 10.69-.04 3.558.245 7.102.217 10.652-.029 3.522-.306 7.037-.402 10.556-.193 7.101-.485 14.203-.4 21.307.043 3.541-.157 7.082 0 10.62.078 1.75.18 3.473.13 5.226-.048 1.733-.151 3.47-.053 5.203.049.862.116 1.727.074 2.589-.041.846-.2 1.682-.266 2.524-.137 1.763-.105 3.532-.028 5.297a484.5 484.5 0 01.337 10.646c.075 3.567.15 7.134.115 10.704-.019 1.775-.025 3.554.094 5.329.115 1.711.29 3.422.25 5.142a16.57 16.57 0 01-.243 2.56c-.157.865-.097 1.666-.024 2.537.149 1.779.31 3.554.459 5.329.054.64-.014 1.453.52 1.918.513.445 1.47.545 2.118.668 1.69.316 3.513.278 5.23.329 3.505.103 7.02-.029 10.521-.097 3.521-.071 7.045-.126 10.566-.235 3.521-.107 7.03-.388 10.557-.317a61.97 61.97 0 012.66.107c.854.052 1.722.194 2.581.203 1.736.016 3.473-.016 5.206-.019 7.055-.01 14.116.245 21.171.035 3.543-.103 7.084-.313 10.627-.387 3.55-.077 7.104-.016 10.654.007 3.553.022 7.109.009 10.656-.201 3.524-.206 7.036-.31 10.566-.316 3.492-.01 6.981-.071 10.473-.148 1.755-.039 3.514.016 5.273-.046 1.753-.061 3.457-.416 5.199-.587 3.512-.349 7.029-.623 10.541-.985a7.39 7.39 0 002.159-.523c.071-.032.164-.051.232-.093.197-.123.103.042.184-.252.045-.174.042-.384.062-.568.051-.471.106-.943.158-1.411.2-1.736.397-3.473.451-5.219.055-1.711.01-3.431.194-5.139.187-1.72.352-3.425.394-5.158.087-3.515-.081-7.047.306-10.549.184-1.666.204-3.338.268-5.016.065-1.718.165-3.432.197-5.149.029-1.762-.042-3.518-.045-5.277-.006-1.747.09-3.496.184-5.242.094-1.747.187-3.493.171-5.243-.016-1.752-.129-3.512-.181-5.268-.106-3.521-.132-7.046-.306-10.565-.175-3.524-.413-7.023-.436-10.555-.019-3.557-.055-7.111-.081-10.665-.022-3.525.052-7.05-.164-10.571-.217-3.535-.375-7.069-.384-10.61-.013-3.525.035-7.041-.1-10.565-.136-3.545-.397-7.086-.555-10.63a102.72 102.72 0 01-.081-5.026c.003-.816-.02-1.636-.142-2.447-.058-.38-.174-.755-.21-1.139-.035-.397.032-.801.068-1.198.158-1.668.277-3.344.413-5.016.068-.855.135-1.714.19-2.569.055-.81-.055-1.601-.103-2.411zM2.51 117.357c0 1.295-.05 2.541.107 3.832.156 1.278.327 2.559.554 3.828.46 2.579 1.411 5.039 1.813 7.621.37 2.382 1.06 4.626 2.024 6.834a78.944 78.944 0 001.51 3.211c.506 1.033.955 2.118 1.611 3.064.65.936 1.282 1.823 1.84 2.818.572 1.023 1.268 1.969 2 2.882 1.493 1.859 2.992 3.793 4.675 5.484 1.753 1.76 3.897 3.144 5.936 4.545 2.09 1.44 4.102 2.999 6.212 4.41 2.003 1.336 4.171 2.401 6.236 3.638a29.805 29.805 0 012.985 2.001c.917.71 1.995.988 3.104 1.275 2.414.623 4.76 1.459 7.235 1.827 2.544.381 5.16.329 7.727.432 5.305.213 10.617.065 15.92.336 2.64.136 5.276.291 7.92.323 2.678.035 5.36.019 8.039.013 10.731-.036 21.458.051 32.189.003 1.307-.006 2.575-.006 3.869-.181a28.344 28.344 0 013.918-.235c2.621.003 5.235.229 7.852.335 5.338.217 10.683.259 16.024.162 2.659-.045 5.322-.116 7.981-.013 1.359.051 2.705.184 4.057.313 1.287.119 2.611-.032 3.898-.087 2.66-.116 5.316-.229 7.972-.394 2.624-.165 5.241-.371 7.871-.303 1.304.032 2.608.125 3.902.306 1.207.171 2.362.439 3.589.236 1.133-.187 2.139-.707 3.15-1.227a98.49 98.49 0 003.279-1.765c4.279-2.405 8.468-5.107 12.276-8.212 3.666-2.993 6.994-6.485 9.902-10.217.764-.978 1.442-2.027 2.197-3.018a31.938 31.938 0 002.008-2.979 47.487 47.487 0 003.204-6.414c.217-.523.349-1.075.607-1.585.291-.571.597-1.136.872-1.717a34.595 34.595 0 001.365-3.383 41.59 41.59 0 001.039-3.502c.303-1.195.52-2.411.907-3.583.384-1.178.987-2.247 1.446-3.396.451-1.12.781-2.289 1.065-3.464.284-1.162.574-2.337.81-3.511.197-.975.058-1.982-.526-2.802-1.375-1.937-4.041-2.692-6.245-3.128-2.414-.478-4.89-.517-7.339-.442-2.546.077-5.09.235-7.636.019-2.598-.223-5.131-.923-7.632-1.63-1.233-.349-2.473-.684-3.657-1.172-1.126-.461-2.204-1.02-3.305-1.543-2.001-.949-4.014-1.859-5.751-3.27-.858-.697-1.507-1.627-2.375-2.295-1.013-.778-1.946-1.659-2.905-2.501a895.83 895.83 0 01-2.969-2.615c-.945-.836-1.965-1.627-2.717-2.653-1.498-2.047-3.014-4.093-4.464-6.175-1.449-2.082-2.694-4.287-4.027-6.443-1.346-2.18-2.724-4.342-4.015-6.556-1.278-2.192-2.472-4.435-3.76-6.624-2.494-4.235-5.299-8.325-8.4-12.14-1.479-1.817-3.092-3.515-4.932-4.968-2.007-1.585-3.934-3.273-5.973-4.819-3.712-2.818-7.823-5.107-12.229-6.646-2.423-.846-4.915-1.492-7.355-2.289-1.178-.387-2.378-.73-3.614-.894-1.227-.161-2.456.039-3.67-.161-1.252-.204-2.514-.43-3.776-.562-1.294-.139-2.607-.145-3.908-.19a53.515 53.515 0 00-7.878.29c-2.553.287-5.121.484-7.61 1.146-2.375.63-4.576 1.633-6.758 2.744-1.13.577-2.269 1.142-3.437 1.643-1.133.484-2.31.842-3.45 1.307-2.159.884-4.176 2.085-6.1 3.405-1.942 1.334-3.879 2.731-5.634 4.306-1.833 1.644-3.505 3.46-5.183 5.259-1.617 1.733-2.827 3.915-3.876 6.033-.552 1.113-1.065 2.246-1.627 3.354-.58 1.149-.984 2.337-1.394 3.553-.842 2.502-1.662 5.01-2.495 7.515-.81 2.44-1.549 4.92-2.527 7.301-1.723 4.2-4.324 7.97-7.377 11.311-1.524 1.666-3.147 3.244-4.986 4.561-2.003 1.433-4.242 2.415-6.474 3.425-2.31 1.049-4.635 2.211-7.094 2.863-1.178.313-2.376.507-3.586.649-1.245.148-2.372.649-3.599.868-1.195.213-2.412.242-3.621.326-.575.036-1.15.087-1.72.171-.325.049-.55.075-.877.007a12.549 12.549 0 00-1.092-.165c-2.547-.264-5.078.265-7.615.41-.938.055-2.093-.171-2.93.355-.818.513-1.112 1.585-1.494 2.415-1 2.169-1.285 4.535-1.083 6.904zm190.166 104.504c-.164.01-.197-.016-.316.097-.106.103-.177.316-.248.445-.188.342-.362.688-.526 1.043a14.313 14.313 0 00-.778 2.05c-.407 1.381-.575 2.834-.436 4.27a11.7 11.7 0 00.449 2.24c.219.736.28 1.508.5 2.24.416 1.388 1.084 2.964 1.981 4.106.433.552.998.982 1.521 1.443.513.455.977.962 1.497 1.411.975.846 2.056 1.572 3.227 2.104 2.492 1.137 5.077 1.159 7.752.898 2.366-.233 4.699-.914 6.719-2.189 2.027-1.278 3.641-3.102 4.809-5.184 1.478-2.634 2.227-5.658 1.736-8.67-.245-1.514-.777-2.966-1.507-4.309-.368-.678-.774-1.314-1.274-1.898-.468-.549-.978-1.065-1.372-1.669-.742-1.13-1.491-2.066-2.708-2.718-1.246-.671-2.704-.997-4.044-1.436-1.484-.485-2.988-.94-4.537-1.146-.807-.107-1.614-.12-2.424-.146-.749-.022-1.504-.035-2.246.107-1.178.223-2.24.817-3.005 1.749-.445.546-.768 1.188-1.107 1.805-.377.687-.735 1.391-1.016 2.124-.562 1.462-.975 3.024-1.036 4.593-.058 1.601.342 3.06 1.023 4.497 1.171 2.463 2.927 5.126 5.551 6.2 2.401.982 5.154.343 7.229-1.103.984-.685 1.81-1.566 2.488-2.547.352-.51.665-1.046.946-1.598.055-.11.21-.323.216-.446.013-.148-.11-.277-.2-.416-.184-.287-.362-.581-.581-.846-.455-.558-1.188-.984-1.491-1.649-.274-.601.1-1.182.733-1.24.7-.061 1.203.481 1.681.914.552.497 1.126 1.007 1.523 1.64.739 1.168.446 2.337-.255 3.441-.758 1.2-1.613 2.343-2.623 3.34-2.143 2.112-4.883 3.27-7.914 2.928-1.342-.155-2.653-.565-3.808-1.265-1.236-.749-2.224-1.824-3.101-2.96-.901-1.169-1.659-2.44-2.308-3.767-.326-.668-.671-1.343-.807-2.079-.145-.804-.258-1.62-.274-2.44-.013-.817.048-1.63.129-2.441.042-.406.087-.813.132-1.22.046-.429.223-.761.41-1.149l-.261-.081-.049.927zM47.551 200.65c-.507 1.175-.987 2.324-1.888 3.257-.845.875-1.891 1.414-3.052 1.734-2.643.732-5.658 1.446-8.375.707-2.539-.688-4.315-2.612-5.764-4.713-1.53-2.218-2.426-4.632-3.016-7.247-.186-.826-.49-1.627-.63-2.463-.144-.842-.08-1.643.078-2.476.158-.842.258-1.691.355-2.54.082-.729.059-1.339-.002-2.066-.333.226-.772.391-1.043.697-.335.378-.58.901-.828 1.34a16.137 16.137 0 00-1.27 2.831c-.663 1.995-.896 4.248-.594 6.336a9.044 9.044 0 001.047 3.135c.526.936 1.168 1.801 1.623 2.779.413.891.762 1.756 1.36 2.543a10.04 10.04 0 001.76 1.773c1.353 1.071 2.907 1.846 4.425 2.65.365.193.753.477 1.147.587.594.165 1.276.204 1.888.268 1.13.126 2.274.161 3.405.019 1.232-.155 2.348-.597 3.5-1.032.959-.362 1.995-.536 2.908-1.014 1.533-.804 2.747-2.356 3.421-3.935.339-.794.446-1.691.007-2.472-.113-.201-.271-.356-.407-.54-.174-.242-.216-.484-.297-.774-.164-.568-.407-1.101-.655-1.637-1.017-2.195-1.83-4.49-2.711-6.743-.868-2.214-1.768-4.412-2.583-6.649-.408-1.12-.75-2.286-1.214-3.383-.37-.875-1.077-1.353-1.949-1.672-.408-.152-.844-.252-1.282-.213-.587.051-.959.364-1.453.636-.786.432-1.804.393-2.653.681-1.577.532-2.89 1.575-3.897 2.885-1.084 1.414-2.142 3.215-2.284 5.017-.085 1.081.135 2.191.338 3.25.199 1.043.458 2.072.783 3.083a24.18 24.18 0 002.714 5.739c.985 1.524 2.27 2.789 4.042 3.328 2.043.623 4.209.123 6.244-.281.93-.184 1.88-.323 2.703-.826.381-.233.723-.536.991-.894.284-.378.475-.791.852-1.088.64-.5 1.475-.578 2.256-.617zm18.635 201.722c-.24-.09-.488-.252-.743-.297-.435-.077-.952.004-1.394.007-.949.006-1.898.009-2.846.016-1.898.01-3.796.023-5.693.061-1.895.039-3.786.158-5.68.149-1.882-.007-3.763-.117-5.639-.252-1.383-.103-3.13.016-4.34-.788-1.366-.907-1.338-2.695-1.362-4.151-.031-1.885-.137-3.77-.156-5.655-.01-.943.002-1.888.054-2.828.051-.91.231-1.82.109-2.727-.119-.882-.27-1.76-.416-2.638-.153-.913-.142-1.762-.09-2.685.107-1.882.017-3.764-.042-5.646a59.49 59.49 0 01-.035-2.818c.003-.177.026-.352-.03-.519-.03-.088-.193-.417-.262-.439-.094-.026-.433.229-.538.284a18.2 18.2 0 00-.689.368c-1.054.597-2.018 1.091-3.224 1.32-2.562.484-5.367.129-7.733-.965-1.298-.601-2.467-1.43-3.253-2.644-.805-1.249-1.657-2.566-2.232-3.938-.293-.697-.496-1.433-.547-2.192-.06-.881-.422-1.756-.624-2.621-.416-1.775-.674-3.583-.828-5.4-.312-3.683-.074-7.379-.333-11.062-.259-3.69-1.038-7.46-.32-11.13.168-.865.095-1.769.07-2.644-.028-.939-.065-1.882-.095-2.824a189.221 189.221 0 01-.08-5.617 252.68 252.68 0 01.251-11.449c.168-3.812.44-7.618.47-11.437.03-3.818-.18-7.624-.226-11.439-.046-3.8.23-7.592.396-11.385.039-.898.15-1.734.344-2.608.04-.181.154-.439.132-.623-.021-.181-.192-.294-.34-.423a9.061 9.061 0 00-1.032-.756c-1.292-.819-2.787-1.352-3.953-2.362-1.12-.972-1.832-2.37-2.045-3.832a4.475 4.475 0 01.268-2.353c.334-.813.896-1.54 1.344-2.292a51.144 51.144 0 002.492-4.716c.371-.804.666-1.649 1.055-2.44.363-.736.891-1.398 1.284-2.124a13.92 13.92 0 001.005-2.289c.24-.726.334-1.491.58-2.214a4.769 4.769 0 012.47-2.812c1.506-.726 2.939-1.546 4.407-2.346-.913-1.03-1.914-1.895-2.923-2.825a12.715 12.715 0 01-2.36-2.96c-.671-1.155-1.132-2.398-1.55-3.663-.46-1.385-.865-2.792-1.12-4.229-.884-4.987.351-10.794 4.659-13.89.583-.419 1.298-.677 1.94-.994.662-.329 1.323-.662 1.996-.968 1.386-.63 2.831-1.146 4.349-1.337-.885-1.339-2.503-1.82-3.785-2.672a14.01 14.01 0 01-3.285-3.07c-1.01-1.294-1.789-2.75-2.523-4.219-.812-1.62-1.492-3.318-1.737-5.126-.45-3.305-.156-6.782 1.552-9.709.815-1.395 1.89-2.692 3.008-3.855 1.077-1.123 2.287-2.12 3.647-2.879.79-.439 1.63-.813 2.5-1.055.465-.129.957-.259 1.44-.288.462-.025.822 0 1.248-.206 1.76-.852 3.676-.781 5.582-.691-.421-1.465-.77-2.954-1.284-4.39-.5-1.394-2.003-2.053-3.205-2.76-2.818-1.656-5.485-3.496-8.147-5.394a960.44 960.44 0 00-4.018-2.85c-.694-.487-1.387-.975-2.078-1.469-.611-.435-1.255-.826-1.782-1.368-2.116-2.176-4.171-4.435-5.986-6.869-1.921-2.576-3.47-5.404-4.976-8.238-1.509-2.837-2.911-5.652-3.693-8.786-.804-3.228-1.39-6.534-2.044-9.794-.658-3.283-1.312-6.507-1.06-9.874.12-1.611.364-3.267.853-4.809.243-.766.587-1.495.93-2.225.262-.555.512-1.113.911-1.591.705-.842 1.712-1.204 2.79-1.223 1.655-.033 3.288-.068 4.94-.2 1.648-.133 3.254-.239 4.905-.11 1.682.129 3.34-.139 5-.397.806-.123 1.611-.258 2.417-.388.769-.122 1.5-.432 2.276-.487a23.166 23.166 0 004.527-.781c2.893-.801 5.635-2.092 8.288-3.477 2.75-1.44 5.447-3.07 7.577-5.348 2.02-2.157 3.96-4.326 5.58-6.805 1.604-2.46 3.06-5.151 3.886-7.98a167.75 167.75 0 013.05-9.447c.542-1.52 1.08-3.054 1.71-4.542.607-1.443 1.436-2.76 2.091-4.177.33-.71.633-1.433.959-2.143.294-.64.507-1.343.962-1.888 1.055-1.266 2.152-2.502 3.24-3.738 2.082-2.37 4.137-4.697 6.654-6.618 1.198-.916 2.444-1.762 3.693-2.601 1.226-.82 2.427-1.717 3.717-2.437 1.35-.759 2.798-1.327 4.264-1.814a36.33 36.33 0 004.276-1.727c1.41-.681 2.791-1.417 4.224-2.05 1.446-.636 2.937-1.088 4.467-1.46 3.156-.764 6.384-1.235 9.627-1.342 1.639-.055 3.279.007 4.918.049 1.608.038 3.299.255 4.87-.1 3.144-.704 6.258.3 9.305.994 3.153.72 6.235 1.743 9.317 2.727 2.946.946 5.738 2.453 8.404 4.01 5.17 3.011 9.827 6.82 14.081 11.013.519.51 1.039 1.14 1.652 1.54.184.122.242.09.465.042.171-.04.339-.078.506-.12.391-.093.778-.2 1.162-.313a29.633 29.633 0 004.247-1.65c2.585-1.223 4.851-2.72 6.671-4.96 1.749-2.157 3.318-4.797 3.292-7.654a7.651 7.651 0 00-.336-2.182c-.171-.559-.587-1.314-.038-1.782.506-.433 1.161.045 1.658.28.259.12.73.472 1.001.472.235 0 .5-.733.61-.978.594-1.34.755-2.789.365-4.21a15.961 15.961 0 00-1.314-3.301c-1.065-1.973-2.643-3.61-4.631-4.658-2.598-1.372-5.719-1.876-8.62-2.105-1.598-.122-3.118-.342-4.641-.862-.168-.058-.336-.116-.5-.177-.265-.1-.368-.087-.446-.336-.109-.352-.058-.755-.171-1.107-.193-.62-1.142-.852-1.691-1.104-1.43-.652-2.875-1.275-4.273-2.001-1.326-.691-2.553-1.546-3.856-2.276-1.275-.71-2.521-1.443-3.521-2.527-.888-.96-1.546-2.102-1.992-3.328-.435-1.195-.681-2.45-.858-3.706a7.617 7.617 0 01-.023-2.095c.039-.29.049-.613.226-.859.191-.261.481-.458.701-.7.345.397.764.746 1.045 1.194.265.417.481.862.759 1.272a10.826 10.826 0 001.8 2.056c1.356 1.195 3.002 1.963 4.748 2.402 1.084.274 2.11.755 3.166 1.13.526.187 1.058.374 1.604.503.494.116 1.165.281 1.671.162.978-.233.301-1.714 1.424-1.853.481-.058.884.129 1.32.297.61.229 1.232.432 1.859.61 2.252.632 4.589.917 6.922.981 2.227.061 4.451-.168 6.671.061 2.117.22 4.202.785 6.087 1.786.426.225.839.474 1.242.742.475.316.914.74 1.427.994.41.203.852.255 1.3.149.465-.113.888-.456 1.382-.436.903.035 1.29 1.33 1.633 1.982.568 1.081 1.136 2.162 1.652 3.27 1.029 2.207 1.859 4.522 2.566 6.852a46.773 46.773 0 011.552 6.866c.355 2.428.432 4.862.426 7.308a147.884 147.884 0 01-.061 3.77c-.036 1.272-.036 2.554-.246 3.81-.2 1.213-.439 2.42-.632 3.634l-.145.894c-.01.065-.078.313-.058.352.019.039.358.152.416.171.352.113.739-.026 1.1-.068.365-.042 1.01-.161 1.285.171.287.346.032 1.007-.078 1.366-.329 1.081-.752 2.133-1.136 3.195-.403 1.117-.758 2.257-1.203 3.357-1.666 4.126-4.506 7.709-7.307 11.12-.713.866-1.465 1.702-2.301 2.444-.83.74-1.704 1.501-2.611 2.14-1.707 1.195-3.705 1.866-5.777 2.02-1.023.075-2.043.14-3.063.22.217.536.375 1.104.627 1.627.3.62.739 1.195 1.113 1.776.784 1.21 1.572 2.424 2.362 3.631 1.537 2.353 3.047 4.735 4.673 7.024.394.552.791 1.1 1.188 1.646.439.607.897 1.075 1.469 1.566 1.058.907 2.12 1.814 3.182 2.72 1.107.95 2.217 1.896 3.321 2.854.981.856 1.836 1.853 2.872 2.65.997.769 2.23 1.317 3.334 1.921 1.203.659 2.423 1.288 3.692 1.817a54.167 54.167 0 007.532 2.528c2.63.671 5.332 1.123 8.046 1.262 2.808.145 5.586-.352 8.394-.152 2.433.171 5.054.336 7.316 1.32a9.473 9.473 0 012.918 1.989c.474.468.962.923 1.459 1.372.196.18.532.397.68.619.149.223.117.21.055.494l-.164.736c-.591 2.689-1.091 5.426-1.798 8.093-.161.607-.474 1.142-.729 1.714a25.091 25.091 0 00-.775 1.953c-.426 1.213-.774 2.45-1.103 3.689-.688 2.586-1.43 5.12-2.45 7.595-1.013 2.457-2.191 4.839-3.424 7.189-.607 1.162-1.21 2.334-1.853 3.476-.597 1.062-1.478 1.947-2.178 2.941a82.856 82.856 0 01-5.009 6.411c-.845.978-1.681 1.959-2.691 2.776-1.004.813-1.937 1.672-2.892 2.546-1.885 1.727-3.915 3.293-6.019 4.742-2.104 1.45-4.286 2.786-6.497 4.067-1.158.672-2.326 1.33-3.495 1.982-.584.326-1.168.649-1.752.972-.271.152-.542.303-.813.452-.094.052-.446.184-.494.274-.065.12 0 .465 0 .604v3.686c.523-.097 1.058-.126 1.571-.261.478-.123.93-.355 1.395-.517a17.62 17.62 0 012.92-.739 21.37 21.37 0 016.139-.116c1.872.229 3.734.691 5.454 1.465 1.817.817 3.392 2.044 4.728 3.512 2.733 3.002 4.886 6.553 5.444 10.62.552 4.022-.048 8.344-2.452 11.701-1.314 1.831-3.092 3.302-5.071 4.364a17.88 17.88 0 01-3.143 1.311c-.871.271-2.065.278-2.553 1.188 1.44.613 2.879 1.22 4.315 1.843 1.059.462 2.095.988 2.882 1.863.365.403.594.89.933 1.31.426.533.949.981 1.381 1.514a14.43 14.43 0 011.956 3.238c.503 1.152.942 2.408 1.12 3.657.09.636.09 1.281.071 1.92-.023.723.048 1.547-.155 2.244-.178.603-.171 1.213-.268 1.833a10.688 10.688 0 01-.484 1.879c-.416 1.162-1.017 2.243-1.688 3.273-.665 1.023-1.362 2.085-2.211 2.97-.848.894-1.862 1.61-2.907 2.253a38.03 38.03 0 01-.833.494c-.068.038-.4.171-.426.242-.023.061.113.381.132.455.171.633.339 1.078.717 1.604.748 1.043 1 2.376 1.394 3.577.929 2.85 2.149 5.561 3.272 8.334.526 1.307.814 2.673 1.285 3.996.432 1.204 1.013 2.389 1.062 3.69.093 2.518-1.659 4.18-3.754 5.245-1.116.565-2.333.907-3.592.891-.642-.01-1.252-.003-1.891.081-.323.042-.642.09-.965.129a3.318 3.318 0 00-.181.022c-.184-.045-.248.026-.19.204-.068.197-.016.526-.029.739-.139 2.847-.675 5.7-.352 8.557.081.71.181 1.401.178 2.121-.004.729-.088 1.456-.146 2.185a93.126 93.126 0 00-.238 4.542c-.178 6.12.267 12.237.08 18.354-.09 3.018-.064 6.036-.113 9.054-.022 1.449.029 2.912-.164 4.351-.2 1.485-.4 2.954-.462 4.455-.119 2.995.258 5.971.181 8.967-.016.691-.171 1.372-.165 2.059.01.756.016 1.508-.006 2.263-.042 1.511-.155 3.015-.281 4.519-.252 2.983-.397 5.985-.781 8.954-.374 2.928-.616 5.959-1.301 8.838a12.925 12.925 0 01-3.12 5.824c-1.62 1.736-3.744 3.302-6.126 3.725-1.358.239-2.727.032-4.082-.142-.733-.094-1.465-.2-2.198-.297-.078-.01-.278-.062-.368-.049-.258.045-.19.004-.278.284-.119.391-.1.71-.08 1.117.139 2.992-.245 5.975-.371 8.961-.062 1.488-.065 2.97-.191 4.454-.122 1.476-.297 2.947-.393 4.429a31.518 31.518 0 00-.078 2.218c.003.713.149 1.468-.003 2.166-.187.852-.194 1.798-.655 2.566-.333.552-.888.826-1.498.975-1.136.277-2.343.297-3.501.429-3.005.349-6.003.765-9.011 1.072-1.51.155-3.024.28-4.541.355-.716.035-1.436.029-2.152.067-.246.017-.488.065-.73.113-.09.017-.439.033-.5.094-.097.094-.107.575-.132.713-.268 1.417-.578 2.87-.639 4.316-.062 1.479-.01 2.97.013 4.448.012.71-.007 1.427.025 2.137.033.723.2 1.443.301 2.159a53.75 53.75 0 01.422 4.474c.168 3.025.126 6.05.113 9.074-.032 6.101.023 12.202.071 18.302.026 3.07.068 6.14.052 9.21-.016 3.024-.129 6.029-.049 9.054.084 3.05.197 6.101.284 9.154.084 3.031.059 6.046-.012 9.077a272.842 272.842 0 00-.059 4.616c-.006 1.236.155 2.518-.193 3.722-.287 1-.778 1.998-1.475 2.776-.826.926-1.924 1.055-3.101 1.178-6.01.629-12.077-.397-18.096.084-3.011.239-6.003.358-9.004-.032-1.201-.155-2.298-.413-3.279-1.153-.852-.642-1.527-1.53-1.869-2.543-.41-1.211-.106-2.269.036-3.49.181-1.539.084-3.092.029-4.635-.052-1.511-.055-3.021-.142-4.532-.087-1.524-.2-3.044-.236-4.571-.148-6.126-.1-12.259-.177-18.389-.039-3.041-.013-6.085-.097-9.125a73.526 73.526 0 00-.249-4.552c-.064-.752-.193-1.51-.196-2.266 0-.755.035-1.507.054-2.263.152-6.107.378-12.211.575-18.318.048-1.514.077-3.028.071-4.545a90.342 90.342 0 00-.032-2.082c-.023-.791-.129-1.604-.058-2.392.058-.671.209-1.326.245-2.001.039-.797.01-1.595-.036-2.389-.038-.674-.09-1.346-.119-2.02a21.284 21.284 0 01-.023-1.101c0-.323.068-.662-.045-.965a1.426 1.426 0 00-.168-.333c-.151-.193-.161-.151-.429-.161-.332-.01-.661-.023-.994-.036a565.32 565.32 0 00-2.298-.093 68.961 68.961 0 00-4.479-.026c-3.015.084-6.026.274-9.04.384-1.51.055-3.017.065-4.525.065-1.416-.004-2.84-.058-4.247.109-.168.023-.332.042-.5.062-.277.032-.265-.01-.413.206-.178.259-.242.714-.323 1.017a11.572 11.572 0 00-.358 2.147c-.103 1.51-.026 3.05-.006 4.564.019 1.459.003 2.883.242 4.325.248 1.482.409 2.976.51 4.474.2 2.986.164 5.982.119 8.974-.09 6.088.142 12.176.152 18.263.006 2.954-.346 5.946-.075 8.893.136 1.462-.119 2.973-.155 4.439a87.618 87.618 0 00.023 4.754c.09 3.041.274 6.082.323 9.122.048 3.035.045 6.072.026 9.106-.01 1.518-.033 3.035-.084 4.552-.023.623-.155 1.265-.104 1.885.055.704.339 1.291.239 2.017-.148 1.104-.794 2.26-1.375 3.193-.648 1.036-1.768 1.339-2.907 1.491-5.942.781-11.945-.355-17.905.055-3.08.21-6.103.397-9.185.077-1.227-.126-2.56-.206-3.605-.926-.926-.636-1.52-1.727-1.91-2.757-.478-1.255-.388-2.421-.21-3.721.196-1.453.158-2.922.11-4.381-.1-3.034-.333-6.062-.404-9.093-.139-6.13-.097-12.263-.178-18.392-.042-3.106-.016-6.211-.103-9.316a71.417 71.417 0 00-.255-4.552c-.058-.668-.165-1.336-.187-2.007-.026-.811.035-1.63.061-2.444.19-6.088.3-12.172.39-18.26.043-2.921.11-5.839.217-8.757.106-2.928.18-5.846-.061-8.771z" fill="url(#paint0_linear)"/><defs><linearGradient id="paint0_linear" x1="119.973" y1="0" x2="119.973" y2="495.921" gradientUnits="userSpaceOnUse"><stop stop-color="#4E7CEC"/><stop offset="1" stop-color="#2F39D6"/></linearGradient></defs></svg>