<svg width="48" height="48" fill="none" xmlns="http://www.w3.org/2000/svg"><path fill-rule="evenodd" clip-rule="evenodd" d="M33 1.5H15A1.5 1.5 0 0013.5 3v42a1.5 1.5 0 001.5 1.5h18a1.5 1.5 0 001.5-1.5V3A1.5 1.5 0 0033 1.5zM15 0a3 3 0 00-3 3v42a3 3 0 003 3h18a3 3 0 003-3V3a3 3 0 00-3-3H15z" fill="#D09D38"/><path fill-rule="evenodd" clip-rule="evenodd" d="M24 42a.75.75 0 100 1.5.75.75 0 000-1.5zm-2.25.75a2.25 2.25 0 114.5 0 2.25 2.25 0 01-4.5 0zm9.75-36a.75.75 0 01.75-.75h3a.75.75 0 010 1.5h-3a.75.75 0 01-.75-.75zm-19.5 0a.75.75 0 01.75-.75h16.5a.75.75 0 010 1.5h-16.5a.75.75 0 01-.75-.75z" fill="#D09D38"/><path d="M22.875 3.75a.75.75 0 01.75-.75h3a.75.75 0 010 1.5h-3a.75.75 0 01-.75-.75zm-.75 0a.75.75 0 11-1.5 0 .75.75 0 011.5 0z" fill="#D09D38"/></svg>