<svg width="48" height="48" fill="none" xmlns="http://www.w3.org/2000/svg"><path fill-rule="evenodd" clip-rule="evenodd" d="M19.5 19.05v9.9L28.411 24 19.5 19.05zm-.386-1.931a.75.75 0 00-1.114.655v12.451a.75.75 0 001.114.656l11.206-6.226a.75.75 0 000-1.31l-11.206-6.226z" fill="#D09D38"/><path fill-rule="evenodd" clip-rule="evenodd" d="M0 6.75A.75.75 0 01.75 6h28.5a.75.75 0 010 1.5H1.5v33h45v-33H33.75a.75.75 0 010-1.5h13.5a.75.75 0 01.75.75v34.5a.75.75 0 01-.75.75H.75a.75.75 0 01-.75-.75V6.75z" fill="#D09D38"/></svg>