<svg width="48" height="48" fill="none" xmlns="http://www.w3.org/2000/svg"><path d="M1.92 0H0v1.92h1.92V0zm0 1.92H0v1.92h1.92V1.92zm0 1.92H0v1.92h1.92V3.84zm0 1.92H0v1.92h1.92V5.76zm0 1.92H0V9.6h1.92V7.68zm0 1.92H0v1.92h1.92V9.6zm0 1.92H0v1.92h1.92v-1.92zm0 3.84H0v1.92h1.92v-1.92zm0 3.84H0v1.92h1.92V19.2zm0 1.92H0v1.92h1.92v-1.92zm0 13.44H0v1.92h1.92v-1.92zm0 1.92H0v1.92h1.92v-1.92zm0 1.92H0v1.92h1.92V38.4zm0 1.92H0v1.92h1.92v-1.92zm0 1.92H0v1.92h1.92v-1.92z" fill="#D09D38"/><path d="M1.92 44.16H0v1.92h1.92v-1.92zm0 1.92H0V48h1.92v-1.92zM3.84 0H1.92v1.92h1.92V0zm0 11.52H1.92v1.92h1.92v-1.92zm0 3.84H1.92v1.92h1.92v-1.92zm0 3.84H1.92v1.92h1.92V19.2zm0 1.92H1.92v1.92h1.92v-1.92zm0 3.84H1.92v1.92h1.92v-1.92zm0 3.84H1.92v1.92h1.92V28.8zm0 1.92H1.92v1.92h1.92v-1.92zm0 3.84H1.92v1.92h1.92v-1.92zm0 11.52H1.92V48h1.92v-1.92zM5.76 0H3.84v1.92h1.92V0zm0 3.84H3.84v1.92h1.92V3.84zm0 1.92H3.84v1.92h1.92V5.76zm0 1.92H3.84V9.6h1.92V7.68zm0 3.84H3.84v1.92h1.92v-1.92zm0 17.28H3.84v1.92h1.92V28.8zm0 5.76H3.84v1.92h1.92v-1.92zm0 3.84H3.84v1.92h1.92V38.4zm0 1.92H3.84v1.92h1.92v-1.92zm0 1.92H3.84v1.92h1.92v-1.92zm0 3.84H3.84V48h1.92v-1.92zM7.68 0H5.76v1.92h1.92V0zm0 3.84H5.76v1.92h1.92V3.84zm0 1.92H5.76v1.92h1.92V5.76zm0 1.92H5.76V9.6h1.92V7.68zm0 3.84H5.76v1.92h1.92v-1.92zm0 3.84H5.76v1.92h1.92v-1.92zm0 5.76H5.76v1.92h1.92v-1.92zm0 1.92H5.76v1.92h1.92v-1.92zm0 5.76H5.76v1.92h1.92V28.8zm0 5.76H5.76v1.92h1.92v-1.92zm0 3.84H5.76v1.92h1.92V38.4zm0 1.92H5.76v1.92h1.92v-1.92zm0 1.92H5.76v1.92h1.92v-1.92zm0 3.84H5.76V48h1.92v-1.92zM9.6 0H7.68v1.92H9.6V0zm0 3.84H7.68v1.92H9.6V3.84zm0 1.92H7.68v1.92H9.6V5.76zm0 1.92H7.68V9.6H9.6V7.68zm0 3.84H7.68v1.92H9.6v-1.92zm0 3.84H7.68v1.92H9.6v-1.92zm0 3.84H7.68v1.92H9.6V19.2zm0 3.84H7.68v1.92H9.6v-1.92zm0 1.92H7.68v1.92H9.6v-1.92z" fill="#D09D38"/><path d="M9.6 26.88H7.68v1.92H9.6v-1.92zm0 1.92H7.68v1.92H9.6V28.8zm0 5.76H7.68v1.92H9.6v-1.92zm0 3.84H7.68v1.92H9.6V38.4zm0 1.92H7.68v1.92H9.6v-1.92zm0 1.92H7.68v1.92H9.6v-1.92zm0 3.84H7.68V48H9.6v-1.92zM11.52 0H9.6v1.92h1.92V0zm0 11.52H9.6v1.92h1.92v-1.92zm0 11.52H9.6v1.92h1.92v-1.92zm0 7.68H9.6v1.92h1.92v-1.92zm0 3.84H9.6v1.92h1.92v-1.92zm0 11.52H9.6V48h1.92v-1.92zM13.44 0h-1.92v1.92h1.92V0zm0 1.92h-1.92v1.92h1.92V1.92zm0 1.92h-1.92v1.92h1.92V3.84zm0 1.92h-1.92v1.92h1.92V5.76zm0 1.92h-1.92V9.6h1.92V7.68zm0 1.92h-1.92v1.92h1.92V9.6zm0 1.92h-1.92v1.92h1.92v-1.92zm0 3.84h-1.92v1.92h1.92v-1.92zm0 3.84h-1.92v1.92h1.92V19.2zm0 3.84h-1.92v1.92h1.92v-1.92zm0 3.84h-1.92v1.92h1.92v-1.92zm0 3.84h-1.92v1.92h1.92v-1.92zm0 3.84h-1.92v1.92h1.92v-1.92z" fill="#D09D38"/><path d="M13.44 36.48h-1.92v1.92h1.92v-1.92zm0 1.92h-1.92v1.92h1.92V38.4zm0 1.92h-1.92v1.92h1.92v-1.92zm0 1.92h-1.92v1.92h1.92v-1.92z" fill="#D09D38"/><path d="M13.44 44.16h-1.92v1.92h1.92v-1.92zm0 1.92h-1.92V48h1.92v-1.92zm1.92-28.8h-1.92v1.92h1.92v-1.92zm0 1.92h-1.92v1.92h1.92V19.2zm0 3.84h-1.92v1.92h1.92v-1.92zm0 5.76h-1.92v1.92h1.92V28.8zm0 1.92h-1.92v1.92h1.92v-1.92zM17.28 0h-1.92v1.92h1.92V0zm0 11.52h-1.92v1.92h1.92v-1.92zm0 1.92h-1.92v1.92h1.92v-1.92zm0 5.76h-1.92v1.92h1.92V19.2zm0 1.92h-1.92v1.92h1.92v-1.92zm0 3.84h-1.92v1.92h1.92v-1.92zm0 3.84h-1.92v1.92h1.92V28.8zm0 1.92h-1.92v1.92h1.92v-1.92zm0 1.92h-1.92v1.92h1.92v-1.92zm0 5.76h-1.92v1.92h1.92V38.4zm0 1.92h-1.92v1.92h1.92v-1.92zm0 3.84h-1.92v1.92h1.92v-1.92zm0 1.92h-1.92V48h1.92v-1.92zM19.2 0h-1.92v1.92h1.92V0zm0 3.84h-1.92v1.92h1.92V3.84zm0 5.76h-1.92v1.92h1.92V9.6zm0 3.84h-1.92v1.92h1.92v-1.92zm0 1.92h-1.92v1.92h1.92v-1.92zm0 3.84h-1.92v1.92h1.92V19.2zm0 3.84h-1.92v1.92h1.92v-1.92zm0 1.92h-1.92v1.92h1.92v-1.92zm0 3.84h-1.92v1.92h1.92V28.8zm0 1.92h-1.92v1.92h1.92v-1.92zm0 3.84h-1.92v1.92h1.92v-1.92z" fill="#D09D38"/><path d="M19.2 36.48h-1.92v1.92h1.92v-1.92zm0 1.92h-1.92v1.92h1.92V38.4zM21.12 0H19.2v1.92h1.92V0zm0 5.76H19.2v1.92h1.92V5.76zm0 1.92H19.2V9.6h1.92V7.68zm0 3.84H19.2v1.92h1.92v-1.92zm0 5.76H19.2v1.92h1.92v-1.92zm0 5.76H19.2v1.92h1.92v-1.92zm0 1.92H19.2v1.92h1.92v-1.92zm0 3.84H19.2v1.92h1.92V28.8z" fill="#D09D38"/><path d="M21.12 38.4H19.2v1.92h1.92V38.4zm0 3.84H19.2v1.92h1.92v-1.92z" fill="#D09D38"/><path d="M21.12 44.16H19.2v1.92h1.92v-1.92zM23.04 0h-1.92v1.92h1.92V0zm0 1.92h-1.92v1.92h1.92V1.92zm0 1.92h-1.92v1.92h1.92V3.84zm0 1.92h-1.92v1.92h1.92V5.76zm0 1.92h-1.92V9.6h1.92V7.68zm0 1.92h-1.92v1.92h1.92V9.6zm0 21.12h-1.92v1.92h1.92v-1.92zm0 1.92h-1.92v1.92h1.92v-1.92zm0 3.84h-1.92v1.92h1.92v-1.92zm0 1.92h-1.92v1.92h1.92V38.4z" fill="#D09D38"/><path d="M23.04 42.24h-1.92v1.92h1.92v-1.92z" fill="#D09D38"/><path d="M23.04 44.16h-1.92v1.92h1.92v-1.92zm0 1.92h-1.92V48h1.92v-1.92zm1.92-44.16h-1.92v1.92h1.92V1.92zm0 5.76h-1.92V9.6h1.92V7.68zm0 3.84h-1.92v1.92h1.92v-1.92zm0 1.92h-1.92v1.92h1.92v-1.92zm0 1.92h-1.92v1.92h1.92v-1.92zm0 3.84h-1.92v1.92h1.92V19.2zm0 5.76h-1.92v1.92h1.92v-1.92zm0 3.84h-1.92v1.92h1.92V28.8zm0 1.92h-1.92v1.92h1.92v-1.92zm0 3.84h-1.92v1.92h1.92v-1.92zm0 3.84h-1.92v1.92h1.92V38.4zm0 1.92h-1.92v1.92h1.92v-1.92zM26.88 0h-1.92v1.92h1.92V0zm0 3.84h-1.92v1.92h1.92V3.84zm0 1.92h-1.92v1.92h1.92V5.76zm0 1.92h-1.92V9.6h1.92V7.68zm0 1.92h-1.92v1.92h1.92V9.6zm0 3.84h-1.92v1.92h1.92v-1.92zm0 11.52h-1.92v1.92h1.92v-1.92zm0 5.76h-1.92v1.92h1.92v-1.92zm0 1.92h-1.92v1.92h1.92v-1.92zm0 3.84h-1.92v1.92h1.92v-1.92zm0 5.76h-1.92v1.92h1.92v-1.92zM28.8 0h-1.92v1.92h1.92V0zm0 1.92h-1.92v1.92h1.92V1.92zm0 1.92h-1.92v1.92h1.92V3.84zm0 3.84h-1.92V9.6h1.92V7.68zm0 3.84h-1.92v1.92h1.92v-1.92zm0 3.84h-1.92v1.92h1.92v-1.92zm0 1.92h-1.92v1.92h1.92v-1.92zm0 3.84h-1.92v1.92h1.92v-1.92zm0 7.68h-1.92v1.92h1.92V28.8zm0 1.92h-1.92v1.92h1.92v-1.92zm0 5.76h-1.92v1.92h1.92v-1.92zm0 1.92h-1.92v1.92h1.92V38.4zm0 3.84h-1.92v1.92h1.92v-1.92z" fill="#D09D38"/><path d="M30.72 3.84H28.8v1.92h1.92V3.84zm0 9.6H28.8v1.92h1.92v-1.92zm0 1.92H28.8v1.92h1.92v-1.92zm0 1.92H28.8v1.92h1.92v-1.92z" fill="#D09D38"/><path d="M30.72 19.2H28.8v1.92h1.92V19.2zm0 1.92H28.8v1.92h1.92v-1.92zm0 1.92H28.8v1.92h1.92v-1.92zm0 1.92H28.8v1.92h1.92v-1.92z" fill="#D09D38"/><path d="M30.72 26.88H28.8v1.92h1.92v-1.92zm0 3.84H28.8v1.92h1.92v-1.92zm0 1.92H28.8v1.92h1.92v-1.92zm0 3.84H28.8v1.92h1.92v-1.92zm0 1.92H28.8v1.92h1.92V38.4zm0 1.92H28.8v1.92h1.92v-1.92zm0 3.84H28.8v1.92h1.92v-1.92zm1.92-42.24h-1.92v1.92h1.92V1.92zm0 1.92h-1.92v1.92h1.92V3.84zm0 1.92h-1.92v1.92h1.92V5.76zm0 1.92h-1.92V9.6h1.92V7.68zm0 1.92h-1.92v1.92h1.92V9.6zm0 1.92h-1.92v1.92h1.92v-1.92zm0 7.68h-1.92v1.92h1.92V19.2zm0 1.92h-1.92v1.92h1.92v-1.92zm0 1.92h-1.92v1.92h1.92v-1.92zm0 1.92h-1.92v1.92h1.92v-1.92z" fill="#D09D38"/><path d="M32.64 26.88h-1.92v1.92h1.92v-1.92zm0 3.84h-1.92v1.92h1.92v-1.92zm0 1.92h-1.92v1.92h1.92v-1.92zm0 1.92h-1.92v1.92h1.92v-1.92z" fill="#D09D38"/><path d="M32.64 36.48h-1.92v1.92h1.92v-1.92zm0 1.92h-1.92v1.92h1.92V38.4zm0 1.92h-1.92v1.92h1.92v-1.92zm0 5.76h-1.92V48h1.92v-1.92zm1.92-28.8h-1.92v1.92h1.92v-1.92z" fill="#D09D38"/><path d="M34.56 19.2h-1.92v1.92h1.92V19.2zm0 3.84h-1.92v1.92h1.92v-1.92zm0 3.84h-1.92v1.92h1.92v-1.92zm0 1.92h-1.92v1.92h1.92V28.8zm0 1.92h-1.92v1.92h1.92v-1.92zm0 7.68h-1.92v1.92h1.92V38.4zm0 1.92h-1.92v1.92h1.92v-1.92zm0 1.92h-1.92v1.92h1.92v-1.92zm0 3.84h-1.92V48h1.92v-1.92zM36.48 0h-1.92v1.92h1.92V0zm0 1.92h-1.92v1.92h1.92V1.92zm0 1.92h-1.92v1.92h1.92V3.84zm0 1.92h-1.92v1.92h1.92V5.76zm0 1.92h-1.92V9.6h1.92V7.68zm0 1.92h-1.92v1.92h1.92V9.6zm0 1.92h-1.92v1.92h1.92v-1.92zm0 3.84h-1.92v1.92h1.92v-1.92z" fill="#D09D38"/><path d="M36.48 19.2h-1.92v1.92h1.92V19.2zm0 3.84h-1.92v1.92h1.92v-1.92zm0 5.76h-1.92v1.92h1.92V28.8zm0 1.92h-1.92v1.92h1.92v-1.92zm0 3.84h-1.92v1.92h1.92v-1.92zm0 3.84h-1.92v1.92h1.92V38.4zm0 1.92h-1.92v1.92h1.92v-1.92zM38.4 0h-1.92v1.92h1.92V0zm0 11.52h-1.92v1.92h1.92v-1.92zm0 5.76h-1.92v1.92h1.92v-1.92z" fill="#D09D38"/><path d="M38.4 19.2h-1.92v1.92h1.92V19.2zm0 3.84h-1.92v1.92h1.92v-1.92zm0 3.84h-1.92v1.92h1.92v-1.92zm0 3.84h-1.92v1.92h1.92v-1.92zm0 7.68h-1.92v1.92h1.92V38.4zm0 3.84h-1.92v1.92h1.92v-1.92zm0 1.92h-1.92v1.92h1.92v-1.92zM40.32 0H38.4v1.92h1.92V0zm0 3.84H38.4v1.92h1.92V3.84zm0 1.92H38.4v1.92h1.92V5.76zm0 1.92H38.4V9.6h1.92V7.68zm0 3.84H38.4v1.92h1.92v-1.92zm0 5.76H38.4v1.92h1.92v-1.92zm0 7.68H38.4v1.92h1.92v-1.92z" fill="#D09D38"/><path d="M40.32 26.88H38.4v1.92h1.92v-1.92zm0 1.92H38.4v1.92h1.92V28.8zm0 1.92H38.4v1.92h1.92v-1.92zm0 1.92H38.4v1.92h1.92v-1.92zm0 1.92H38.4v1.92h1.92v-1.92z" fill="#D09D38"/><path d="M40.32 36.48H38.4v1.92h1.92v-1.92zm0 1.92H38.4v1.92h1.92V38.4zm0 3.84H38.4v1.92h1.92v-1.92zm0 1.92H38.4v1.92h1.92v-1.92zM42.24 0h-1.92v1.92h1.92V0zm0 3.84h-1.92v1.92h1.92V3.84zm0 1.92h-1.92v1.92h1.92V5.76zm0 1.92h-1.92V9.6h1.92V7.68zm0 3.84h-1.92v1.92h1.92v-1.92zm0 5.76h-1.92v1.92h1.92v-1.92z" fill="#D09D38"/><path d="M42.24 19.2h-1.92v1.92h1.92V19.2zm0 1.92h-1.92v1.92h1.92v-1.92zm0 5.76h-1.92v1.92h1.92v-1.92zm0 7.68h-1.92v1.92h1.92v-1.92zm0 3.84h-1.92v1.92h1.92V38.4zm0 1.92h-1.92v1.92h1.92v-1.92zm0 5.76h-1.92V48h1.92v-1.92zM44.16 0h-1.92v1.92h1.92V0zm0 3.84h-1.92v1.92h1.92V3.84zm0 1.92h-1.92v1.92h1.92V5.76zm0 1.92h-1.92V9.6h1.92V7.68zm0 3.84h-1.92v1.92h1.92v-1.92z" fill="#D09D38"/><path d="M44.16 17.28h-1.92v1.92h1.92v-1.92zm0 3.84h-1.92v1.92h1.92v-1.92zm0 5.76h-1.92v1.92h1.92v-1.92zm0 1.92h-1.92v1.92h1.92V28.8zm0 1.92h-1.92v1.92h1.92v-1.92zm0 11.52h-1.92v1.92h1.92v-1.92z" fill="#D09D38"/><path d="M44.16 44.16h-1.92v1.92h1.92v-1.92zM46.08 0h-1.92v1.92h1.92V0zm0 11.52h-1.92v1.92h1.92v-1.92zm0 5.76h-1.92v1.92h1.92v-1.92zm0 3.84h-1.92v1.92h1.92v-1.92zm0 3.84h-1.92v1.92h1.92v-1.92z" fill="#D09D38"/><path d="M46.08 26.88h-1.92v1.92h1.92v-1.92zm0 3.84h-1.92v1.92h1.92v-1.92zm0 1.92h-1.92v1.92h1.92v-1.92zm0 7.68h-1.92v1.92h1.92v-1.92zm0 1.92h-1.92v1.92h1.92v-1.92z" fill="#D09D38"/><path d="M46.08 44.16h-1.92v1.92h1.92v-1.92zM48 0h-1.92v1.92H48V0zm0 1.92h-1.92v1.92H48V1.92zm0 1.92h-1.92v1.92H48V3.84zm0 1.92h-1.92v1.92H48V5.76zm0 1.92h-1.92V9.6H48V7.68zm0 1.92h-1.92v1.92H48V9.6zm0 1.92h-1.92v1.92H48v-1.92zm0 3.84h-1.92v1.92H48v-1.92zm0 3.84h-1.92v1.92H48V19.2zm0 1.92h-1.92v1.92H48v-1.92zm0 1.92h-1.92v1.92H48v-1.92zm0 3.84h-1.92v1.92H48v-1.92zm0 1.92h-1.92v1.92H48V28.8zm0 5.76h-1.92v1.92H48v-1.92zm0 1.92h-1.92v1.92H48v-1.92zm0 3.84h-1.92v1.92H48v-1.92zm0 1.92h-1.92v1.92H48v-1.92zm0 1.92h-1.92v1.92H48v-1.92zm0 1.92h-1.92V48H48v-1.92z" fill="#D09D38"/></svg>