<svg width="40" height="40" viewBox="0 0 40 40" fill="none" xmlns="http://www.w3.org/2000/svg">
<circle cx="20" cy="20" r="20" fill="#D09D38"/>
<path d="M14 13.0102C14.8163 12.0918 15.7432 11.3605 16.7806 10.8163C17.835 10.2721 19.0935 10 20.5561 10C22.1207 10 23.3793 10.2891 24.3316 10.8673C25.301 11.4456 25.9813 12.1514 26.3724 12.9847C26.7806 13.801 26.9847 14.6003 26.9847 15.3827C26.9847 16.4031 26.8401 17.2534 26.551 17.9337C26.2619 18.6139 25.7942 19.2347 25.148 19.7959C24.5017 20.3401 23.5748 20.9439 22.3673 21.6071C21.9252 21.8622 21.602 22.0748 21.398 22.2449C21.1939 22.415 21.0238 22.6786 20.8878 23.0357C20.7687 23.3929 20.7092 23.9116 20.7092 24.5918H18.9235L18.8724 23.9541C18.8044 23.3758 18.7704 22.9337 18.7704 22.6276C18.7704 21.8793 18.9235 21.2245 19.2296 20.6633C19.5357 20.102 20.1054 19.6344 20.9388 19.2602C22.0782 18.75 22.9116 18.2228 23.4388 17.6786C23.966 17.1173 24.2296 16.352 24.2296 15.3827C24.2296 15.0255 24.119 14.6514 23.898 14.2602C23.6769 13.869 23.2857 13.5289 22.7245 13.2398C22.1803 12.9507 21.4575 12.8061 20.5561 12.8061C19.4847 12.8061 18.6088 12.9932 17.9286 13.3673C17.2653 13.7415 16.551 14.3197 15.7857 15.102L14 13.0102ZM18.3622 28.5204C18.3622 28.0952 18.5068 27.7381 18.7959 27.449C19.085 27.1429 19.4422 26.9898 19.8673 26.9898C20.2925 26.9898 20.6497 27.1429 20.9388 27.449C21.2449 27.7381 21.398 28.0952 21.398 28.5204C21.398 28.9456 21.2449 29.3027 20.9388 29.5918C20.6497 29.8639 20.2925 30 19.8673 30C19.4422 30 19.085 29.8639 18.7959 29.5918C18.5068 29.3027 18.3622 28.9456 18.3622 28.5204Z" fill="white"/>
</svg>
