<svg width="64" height="64" fill="none" xmlns="http://www.w3.org/2000/svg"><path fill-rule="evenodd" clip-rule="evenodd" d="M42.598 37.293a1 1 0 011.414 0l18.596 18.596a4.751 4.751 0 01-6.72 6.72L37.294 44.011a1 1 0 011.414-1.414l18.596 18.596a2.751 2.751 0 103.891-3.89L42.598 38.706a1 1 0 010-1.414z" fill="#D09D38"/><path fill-rule="evenodd" clip-rule="evenodd" d="M38.806 7.728a22 22 0 10-.783 33.223 1 1 0 011.275 1.541 24 24 0 113.194-3.194 1 1 0 01-1.54-1.275 22 22 0 00-2.146-30.295z" fill="#D09D38"/><path fill-rule="evenodd" clip-rule="evenodd" d="M32.307 9.168A17 17 0 1041 24a1 1 0 012 0 19 19 0 11-.93-5.871 1 1 0 11-1.902.618 17 17 0 00-7.861-9.58z" fill="#D09D38"/></svg>