<svg width="349" height="600" fill="none" xmlns="http://www.w3.org/2000/svg"><path d="M113.419 117.072c-.638.612-1.094 1.372-1.228 2.251-.05.336-.099.649.088.947.225.356.608.626.876.951.519-1.364.726-2.727.264-4.149zm-21.95 14.85c.923 2.261.931 2.253 2.636 2.346l-2.636-2.346zm16.302.974c.939.002 2.563-1.253 1.752-2.263-.467-.578-1.086-.197-1.46.24-.508.601-.686 1.295-.292 2.023zm4.083-21.492c-.113-.876-.275-1.802-.737-2.576-.316-.531-.958-1.295-1.662-1.122-.348.085-.462.417-.388.756.07.342.402.594.639.838.698.719 1.434 1.402 2.148 2.104zm-12.939 23.293c1.172.586 3.534 1.977 4.202-.094.306-.95-.912-1.743-1.741-1.802-1.315-.093-1.842.967-2.46 1.896zm3.137-26.348c.645-1.151 2.217-3.306.663-4.48-.881-.664-1.825.756-1.989 1.501-.243 1.108.668 2.183 1.326 2.979zm3.001-.457c-.466.953-1.256 2.08-1.386 3.148-.131 1.072.642 1.853 1.504 2.378.509-.842 1.236-1.843 1.219-2.875-.02-.989-.775-1.889-1.337-2.651zM66.258 269.878c.776-2.323.72-4.627-.265-7.146-2.07 2.579-.75 4.854.265 7.146zM92.46 116.526c.593-.937 1.46-2.115 1.428-3.286-.026-.97-.846-1.681-1.54-2.264-.462.996-.903 1.926-1.158 3-.064.265-.12.531-.183.796-.095.404-.096.415.223.691l1.23 1.063zm17.067 10.809c.464.347 1.494 1.312 2.144.927.254-.149.374-.49.471-.747.2-.544.397-1.097.579-1.647.177-.527.393-1.263.204-1.82-.106-.315-.366-.293-.696-.38-.163-.044-.793-.309-.945-.249-.134.052-.358.794-.427.949-.141.318-.284.637-.428.955-.298.671-.6 1.341-.902 2.012zM97.08 104.981c-1.08.235-2.04.751-2.602 1.719-.114.199-.297.482-.324.712-.035.292.193.694.298.982l.805 2.225c.777-.881 1.84-1.859 2.208-3.012.28-.877-.09-1.797-.385-2.626zm1.926 25.602l-3.642-2.964c-.436.879-.873 1.757-1.313 2.636-.06.118-.118.237-.177.355-.124.12-.118.23.022.332.063.151.225.302.335.429a5.648 5.648 0 001.94 1.502c.169.079.402.228.587.246.282.027.273-.056.46-.293l1.788-2.243zm-6.747-1.972c.712-.958 2.105-1.992 1.762-3.344-.255-1.001-.817-2.257-1.609-2.95-.134-.118-.599-.546-.787-.513-.219.036-.67.669-.83.831-.145.142-.79.621-.822.823-.033.215.35.791.447 1.005l1.839 4.148zm3.71-5.129c.52-1.202 1.575-2.189 1.85-3.492.086-.403.101-.587-.177-.895l-.708-.781a705.043 705.043 0 01-1.638-1.809c-.392.61-.78 1.219-1.167 1.829-.144.222-.446.539-.505.792-.058.242.14.605.236.855.496 1.286 1.218 2.444 2.108 3.501zm6.702-8.511c-.701.317-.973.953-1.141 1.654-.151.631-.371 1.23-.544 1.853-.281 1.015.175 1.548.96 2.181.163.132.854.806 1.004.774.247-.05.628-.856.735-1.047a6.787 6.787 0 00.815-2.39c.198-1.429-.43-2.533-1.829-3.025zm.895 11.199c-.397.904-.79 1.808-1.187 2.712-.09.207-.601 1.026-.542 1.239.076.261.663.638.875.817.447.375 1.39 1.066 2.031.865.455-.141.962-1.132 1.217-1.56.404-.667.755-1.477.301-2.213-.555-.9-1.785-1.414-2.695-1.86zm-4.418-16.562c-1.18.88-1.952 2.569-2.072 4.02-.123 1.488.926 2.633 2.003 3.539.299-.775.605-1.547.904-2.32.257-.671.59-1.36.71-2.072.215-1.316-.526-2.391-1.545-3.167zm-1.883 15.239c.165 1.021.456 2.18 1.357 2.822.426.302.937.442 1.452.495.218.022.321.061.443-.083.117-.139.155-.458.215-.633.144-.415.284-.829.425-1.244.13-.383.264-.766.394-1.15.035-.098.265-.54.221-.647-.035-.085-.29-.206-.375-.28-.459-.401-.791-.922-1.217-1.355a3.128 3.128 0 00-.737-.574c-.265-.142-.216-.142-.436.046-.147.127-.255.384-.363.543-.459.687-.92 1.373-1.38 2.06zm7.342-1.095c.905.514 1.993 2.097 3.188 1.858.262-.052.25-.14.378-.4.099-.191.198-.38.293-.572.169-.341.318-.685.424-1.05.122-.414.195-.839.264-1.264.037-.212.066-.425.102-.637.045-.27.029-.299-.096-.529-.289-.536-.797-1.087-1.265-1.473a3.757 3.757 0 00-.901-.553c-.286-.122-.264-.156-.456.014-.098.087-.206.338-.272.45-.779 1.302-1.431 2.64-1.659 4.156zm5.264-5.232c.929-1.665 2.519-4.253.468-5.746-.464-.339-.997-.588-1.524-.811a16.661 16.661 0 00-.418-.171c-.367-.144-.333-.052-.461.306a8.967 8.967 0 00-.399 1.485 7.368 7.368 0 00-.108 1.527c.009.216-.004.462.054.671.082.3.201.409.421.641l1.967 2.098zM71.489 290.338c.102-2.605.645-5.177.505-7.795l-2.302.306-1.05.139c-.126.016-.348-.001-.46.06-.13.073-.33.38-.43.494-.42.482-.96.971-1.257 1.539-.251.471-.362 1.082-.376 1.612-.037 1.187.629 2.014 1.626 2.605 1.166.692 2.365 1.179 3.744 1.04zM56.318 391.872c-.8 2.93-.072 5.85.44 8.784.238 1.374.397 2.883.93 4.186.43 1.065 1.194 1.959 2.072 2.698.797.672 1.801 1.583 2.86.912 1.16-.725.911-2.572.966-3.739.072-1.562.148-3.121.217-4.684.066-1.522.24-3.086.181-4.612-.059-1.526-1.32-1.895-2.59-2.244-1.687-.457-3.384-.866-5.076-1.301zm48.468-49.852c-.18 2.119-.389 4.237-.482 6.362-.088 2.067.073 4.113.106 6.178.038 2.193-.064 4.387-.165 6.575-.053 1.095-.11 2.19-.181 3.283-.055.888-.245 1.861.054 2.727.249.704.813 1.067 1.28 1.607.398.462.752 1.035 1.347 1.264.187.072.762.219.934.063.094-.088.09-.673.11-.82l.122-.935c.14-1.09.268-2.181.389-3.274.477-4.39.793-8.798.969-13.213a222.98 222.98 0 00.168-8.433c.002-.118.001-.235.003-.352-.001-.264.034-.278-.164-.45-.318-.275-.873-.434-1.265-.552-1.054-.314-2.164-.27-3.225-.03zm-35.215-62.014c1.297-.241 2.623-.793 3.161-2.07.311-.741.291-1.552.304-2.343.017-1.079.012-2.158.037-3.237.095-4.31 1.09-8.533 1.77-12.77.369-2.305.674-4.625.653-6.968-.996.224-1.942.293-2.853.778-.611.328-1.23.655-1.804 1.051-1.21.835-2.012 1.976-2.254 3.435-.169 1.029-.069 2.063.035 3.097.121 1.233.266 2.464.483 3.685.22 1.23.45 2.475.358 3.726-.09 1.236-.585 2.393-.706 3.631-.134 1.391-.045 2.791.029 4.185.031.625-.013 1.291.1 1.907.119.66.474 1.262.687 1.893zm42.449 62.995c-1.144 2.011-.943 4.299-.836 6.527.114 2.429.049 4.852-.091 7.276a108.69 108.69 0 01-.665 7.343c-.151 1.234-.302 2.461-.36 3.705-.051 1.085-.213 2.299-.041 3.377.156.963.863 1.393 1.622 1.918.76.525 1.593.946 2.523 1.061.187.023.628.108.801.027.205-.093.184-.443.224-.694.088-.607.15-1.217.193-1.83.081-1.208.087-2.42.093-3.632.011-2.379.153-4.692.575-7.034.416-2.333.813-4.61.915-6.984.109-2.647.785-5.219 1.082-7.843.039-.339.071-.679.095-1.02.03-.453-.182-.453-.584-.633a15.223 15.223 0 00-1.819-.679c-1.223-.375-2.479-.619-3.727-.885zm5.573-60.379c-.172 2.124-.352 4.247-.468 6.376-.118 2.072-.097 4.148-.197 6.221-.102 2.105-.273 4.219-.564 6.305-.274 1.982-.683 3.955-.837 5.953-.073.919-.15 2.125.244 2.995.112.252.186.272.441.399.222.11.436.226.658.331.452.213.908.343 1.395.445.961.204 1.935.341 2.906.502.374.061.438.114.588-.238.089-.204.174-.409.252-.616.193-.492.356-.996.474-1.51.224-.967.218-1.949.273-2.935a73.24 73.24 0 01.253-3.143c.207-2.133.474-4.259.658-6.395.202-2.34.143-4.692.528-7.011.358-2.124.61-4.254.87-6.392-2.563-.16-4.85-1.775-7.474-1.287zm-2.256-.894c-2.021-.308-3.941-1.509-6.016-1.383-.225.013-.452.011-.608.157-.168.16-.279.54-.35.754-.189.539-.255 1.107-.294 1.674a132.466 132.466 0 00-.173 3.509c-.223 5.107-.617 10.195-.99 15.292a676.85 676.85 0 00-.266 3.756c-.061.924-.226 1.957.335 2.78.3.44.909.552 1.394.735.374.142.749.283 1.129.406.535.173 1.074.297 1.638.312a8.38 8.38 0 00.793-.025c.172-.012.344-.026.515-.041.065-.006.224.001.294-.026.235-.093.182-.187.226-.48.186-1.241.379-2.481.569-3.722.387-2.515.781-5.032 1.1-7.557.341-2.745.319-5.554.366-8.318.043-2.615.186-5.214.338-7.823zm-45.7 34.874c.447-3.256.64-6.543.896-9.821.278-3.536.586-7.074.792-10.615.043-.749.052-1.505-.118-2.243-.078-.337-.181-.873-.457-1.063-.269-.187-.869-.214-1.192-.3-1.383-.365-2.777-.823-3.933-1.686-.246-.183-.466-.457-.721-.62-.241-.155-.224-.092-.497.047-.118.06-.255.11-.357.199-.565.503-.975 1.39-1.365 2.025a47.852 47.852 0 00-2.313 4.276c-1.391 2.889-2.574 5.871-3.906 8.787-.907 1.982-1.194 4.078.64 5.67a6.46 6.46 0 001.348.878c.295.147.595.275.904.389.136.051.276.099.412.144.085.028.174.055.259.081.147.102.24.064.29-.112.268-.22.467-.706.64-1.002.167-.284.323-.574.476-.866a30.9 30.9 0 00.99-2.158c.586-1.402 1.11-2.831 1.75-4.21.305-.655.635-1.3 1.008-1.919.15-.251.353-.741.594-.909.217-.149.67.02.876.218.418.395.197.971.008 1.413-.352.821-.78 1.609-1.17 2.412-.799 1.646-1.35 3.404-1.91 5.142-.162.491-.32.984-.479 1.476-.126.387-.407.892-.421 1.294-.012.323-.064.226.25.397a26.287 26.287 0 001.681.834c1.63.736 3.32 1.318 5.024 1.842zm9.513-100.516c.23-.953.543-1.889.714-2.856.19-1.069.277-2.163.404-3.241.267-2.209.525-4.419.777-6.63.258-2.249.513-4.499.76-6.75a116 116 0 00.312-3.224c.04-.538.085-1.076.126-1.614.04-.523.218-1.214.136-1.728-.073-.447-.382-.511-.698-.309-.276.176-.546.367-.809.563a25.31 25.31 0 00-1.822 1.516c-1.31 1.182-2.553 2.457-3.641 3.842-2.448 3.117-4.448 6.635-6.117 10.217a66.993 66.993 0 00-2.544 6.292 80.618 80.618 0 00-1.034 3.2c-.153.52-.348 1.049-.438 1.585-.091.549-.024 1.115-.051 1.669 2.242-.717 4.423-1.667 6.748-2.105 2.359-.445 4.788-.311 7.177-.427zm68.771 101.999c.728-5.094.97-10.253 1.376-15.381l.601-7.669c.1-1.3.2-2.601.304-3.901.03-.415.045-.456-.333-.649a19.045 19.045 0 00-2.279-.985 20.208 20.208 0 00-3.453-.894 21.604 21.604 0 00-2.58-.277c-.23-.011-.785-.125-.994-.027-.166.078-.114.138-.12.348-.001.155-.007.31-.008.466-.007.271-.011.543-.018.814-.009.7-.021 1.399-.03 2.099-.023 1.282-.046 2.566-.103 3.847-.109 2.551-.416 5.073-.717 7.604-.296 2.531-.457 5.068-.554 7.615-.053 1.417-.099 2.834-.155 4.25-.014.398-.041.45.319.626.215.105.434.204.654.298.508.218 1.03.411 1.554.586 2.079.696 4.334 1.232 6.536 1.23zm-74.705-68.139c-2-.952-4.525-1.725-5.788-3.672-.672-1.037-.704-2.207-1.002-3.364a54.365 54.365 0 01-.914-4.291c-.5-2.917-.995-5.873-.31-8.791.632-2.688 2.019-5.115 3.52-7.407.629-.966 1.27-1.849 2.393-2.282.873-.335 1.84-.351 2.748-.148.42.093.865.222 1.242.423.414.219 1.061.771 1.054 1.267-.016 1.245-2.156.05-2.767-.079-.766-.162-1.25.092-1.769.642-.918.969-1.68 2.038-2.351 3.186-1.378 2.364-2.435 4.972-2.408 7.753.016 1.498.323 3.011.587 4.484.272 1.522.582 3.037.885 4.554.23 1.161.393 2.303 1.234 3.213.751.813 1.827 1.275 2.894 1.52 1.167.269 2.341.139 3.363-.488.251-.154.58-.328.67-.593.1-.284.046-.695.064-.999.05-.828.096-1.656.145-2.483.189-3.054.553-6.083.944-9.115.39-3.015.769-6.032 1.035-9.062.132-1.461.206-2.941.012-4.404-.022-.189-.02-.478-.1-.653-.12-.262.065-.112-.257-.286-.269-.146-.657-.214-.953-.307a20.022 20.022 0 00-1.462-.419c-1.713-.398-3.386.179-4.947.862-1.022.447-2.11.462-3.072 1.097-.846.554-1.498 1.34-2.016 2.192-1.36 2.238-2.315 4.942-2.833 7.499-.583 2.873-.11 5.715-.017 8.613a14.032 14.032 0 001.894 6.598c1.13 1.954 2.818 4.263 4.984 5.143.499.203 1.072.417 1.614.323.577-.101 1.119-.376 1.684-.526zm60.944 131.46c2.548.893 5.141 1.694 7.821 2.085.296.043.592.081.889.114.09.01.346.069.451.047.308-.066.23.012.296-.326.136-.732.269-1.465.39-2.2.229-1.387.431-2.779.607-4.174.721-5.637 1.055-11.315 1.403-16.987.086-1.399.175-2.798.268-4.196.047-.7.097-1.399.147-2.098.026-.351.055-.7.08-1.05.013-.155.025-.31.035-.466.029-.359.047-.345-.305-.44-2.531-.685-5.054-1.416-7.608-2.007-.502-.117-1.018-.199-1.528-.122a2.853 2.853 0 00-.742.218c-.445.199-.404.394-.453.854-.155 1.358-.357 2.71-.527 4.067-.167 1.335-.301 2.677-.322 4.025-.022 1.412.078 2.81-.02 4.222-.107 1.523-.319 3.035-.438 4.557-.128 1.596.015 3.163-.007 4.757-.044 3.048-.881 6.062-.437 9.12zm-9.509-68.454c2.632.662 5.258 1.343 7.894 1.991.676.166 1.35.352 2.028.49.376.077.782.121 1.134-.061.827-.428.744-1.662.812-2.437.48-5.435.878-10.876 1.227-16.323.087-1.372.174-2.745.253-4.118.07-1.209.234-2.46.119-3.672-.047-.485-.112-1.21-.541-1.472-.498-.301-1.131-.48-1.671-.683a23.776 23.776 0 00-3.213-.96 26.048 26.048 0 00-3.237-.491 37.194 37.194 0 00-.945-.075c-.177-.011-.863-.142-.995-.054-.133.09-.225.659-.281.821-.115.346-.227.694-.332 1.043-.783 2.589-.951 5.212-1.166 7.897-.249 3.054-.494 6.11-.74 9.164-.126 1.567-.248 3.134-.37 4.701-.061.782-.152 1.568-.183 2.351-.026.637.134 1.257.207 1.888zm38.158 9.309c.688-2.77.988-5.613 1.212-8.456.225-2.813.536-5.608.814-8.415.251-2.522.408-5.06.395-7.599a35.596 35.596 0 00-.115-2.921c-.031-.35-.067-.7-.117-1.048-.017-.125-.015-.28-.062-.397-.101-.244.068-.09-.252-.256-.196-.101-.446-.145-.653-.209-2.775-.847-5.653-1.23-8.499-1.728-.654-.114-1.307-.279-1.964-.346-.248-.025-.721-.13-.943-.055-.214.073-.38.608-.47.872-.204.591-.169 1.269-.209 1.889-.057.778-.11 1.558-.164 2.337-.402 5.914-.797 11.828-1.192 17.742-.056.853-.115 1.707-.171 2.561-.024.387-.053.775-.077 1.163-.025.349-.173.944-.087 1.278.098.37.898.913 1.301 1.032.718.212 1.5.281 2.232.457 3.005.725 5.94 1.74 9.021 2.099zm66.564-61.03c-.117 2.24.18 4.64 1.311 6.636.971 1.717 2.897 3.12 4.591 4.082 3.307 1.874 7.528 2.747 10.917.702 3.402-2.054 5.581-5.985 6.56-9.715.51-1.951.98-4.233.704-6.257-.159-1.152-.557-2.29-.877-3.408-.318-1.106-.544-2.258-.924-3.345-.278-.804-.728-1.552-1.366-2.131-.771-.702-1.799-1.105-2.722-1.577-2.144-1.1-4.296-2.246-6.564-3.086-1.687-.627-3.55-1.011-5.325-.574a6.465 6.465 0 00-2.421 1.192c-.405.317-.729.708-1.113 1.041-.363.309-.82.476-1.216.733-1.766 1.143-2.653 3.568-3.005 5.534-.205 1.155-.235 2.336-.15 3.506.042.596.114 1.188.205 1.778.055.345.066.898.331 1.174a.684.684 0 00.416.193c.314.047.336-.034.383-.328.093-.612.185-1.225.285-1.837.193-1.188.401-2.376.621-3.56.368-1.98.863-3.972 2.223-5.523 1.138-1.3 3.148-2.649 4.98-2.312.44.082.854.258 1.241.484.317.187.968.521 1.035.897.016.082-.034.641-.083.689-.071.072-.681-.012-.802-.014-.514-.014-1.024-.126-1.537-.108-1.774.06-3.499 1.71-3.956 3.344-.649 2.302-1.375 4.709-1.539 7.105-.271 3.862 1.059 7.709 3.8 10.524 1.375 1.416 3.077 2.461 5.081 2.646a7.22 7.22 0 004.684-1.2 6.325 6.325 0 001.62-1.581c.52-.755.755-1.62 1.057-2.476.699-1.987 1.495-3.963.83-6.082-.54-1.717-1.729-3.141-2.777-4.58-1.003-1.382-3.301-1.775-4.84-1.164-1.908.759-2.686 2.652-2.748 4.583-.029.94.408 2.12-.716 2.559-.744.292-1.656-.041-1.733-.894-.102-1.145.175-2.478.378-3.601.154-.85.441-1.671.907-2.402a5.77 5.77 0 013.766-2.558c3.575-.709 7.083 1.531 8.756 4.577 1.037 1.888 1.71 4.047 1.498 6.202-.114 1.139-.583 2.137-.863 3.23-.235.922-.472 1.813-.899 2.669-1.463 2.938-4.434 4.956-7.768 5.134-4.026.214-7.459-2.29-9.674-5.468-1.155-1.657-1.943-3.529-2.562-5.433zm-98.252 119.406c.836-2.913 1.152-5.909 1.285-8.932.143-3.289.268-6.579.442-9.867.171-3.209.494-6.421.83-9.616.071-.673.191-1.347.18-2.027a4.18 4.18 0 00-.127-.994c-.134-.521-.513-.528-1.002-.7a90.254 90.254 0 00-4.106-1.344c-1.941-.579-3.929-1.1-5.951-1.296a14.003 14.003 0 00-1.692-.067c-.079.002-.177-.009-.25.009-.244.059-.145.007-.247.231-.284.636-.346 1.529-.497 2.21a62.384 62.384 0 00-.511 2.46c-.28 1.507-.156 3.076-.271 4.605-.12 1.627-.527 3.202-.774 4.811-.494 3.221-.677 6.482-.776 9.74-.051 1.717-.197 3.472.022 5.183.019.174.016.401.074.569.08.259.131.241.396.385.381.204.762.405 1.144.601.756.387 1.521.757 2.295 1.104 3.046 1.368 6.244 2.377 9.536 2.935zm34.437-58.078c.657.163 1.298.384 1.956.536.691.159 1.402.176 2.103.267 1.451.188 2.883.511 4.285.916 1.384.399 2.729.901 4.099 1.34.682.22 1.371.46 2.07.613.309.068.622.083.936.096.102.004.315.036.427.014.172.074.271.022.297-.156l.133-.23c.3-.567.299-1.142.355-1.775.068-.771.139-1.543.203-2.314.129-1.465.246-2.931.323-4.399.161-3.047.073-6.097.113-9.147.038-2.929.338-5.823.644-8.732l.117-1.142c.001-.008.069-.418.042-.457-.055-.079-.467-.129-.575-.158l-2.289-.628c-1.471-.404-2.941-.808-4.412-1.21a1106.431 1106.431 0 00-6.381-1.73c-.738-.197-1.166-.237-1.91-.092-.296.058-.209.014-.351.261-.057.096-.089.303-.116.4-.09.311-.188.62-.234.941-.103.74-.109 1.505-.163 2.25-.102 1.454-.199 2.907-.301 4.361-.462 6.725-.913 13.451-1.371 20.175zm-7.891 94.604c6.764 2.632 13.512 5.288 20.215 8.071 6.82 2.831 13.664 5.597 20.557 8.237l2.637 1.004c.364.142.731.28 1.098.422.444.172 1.064.554 1.535.59a4.5 4.5 0 01.22.083c.082-.119.161-.243.225-.376.077-.15.143-.309.194-.473.104-.335.152-.686.158-1.041.018-.755-.144-1.504-.142-2.26-.001-.813.21-1.622.277-2.432.069-.877.089-1.756.131-2.636.01-.205.07-.473.037-.674-.062-.395.044-.123-.205-.318-.313-.242-.89-.366-1.26-.52-.791-.326-1.586-.654-2.392-.944-3.352-1.205-6.769-2.164-10.067-3.521-3.408-1.397-6.787-2.858-10.167-4.32-1.942-.84-3.88-1.687-5.832-2.501-1.846-.768-3.777-1.33-5.677-1.945-3.823-1.236-7.685-2.367-11.404-3.889-.513 3.125-.339 6.29-.138 9.443zm94.68-125.543c.382-1.693.034-3.435-.451-5.078-.423-1.437-.803-3.028-1.495-4.366-1.172-2.267-3.454-4.042-5.804-4.993-1.114-.451-2.333-.741-3.541-.655-.652.047-1.274.245-1.919.34-.863.127-1.724.005-2.592.095-2.793.291-4.849 2.378-6.377 4.541-.956 1.35-1.661 2.851-2.28 4.378-.642 1.582-1.267 3.185-1.637 4.857-.769 3.481-.195 6.935 1.123 10.234 1.035 2.592 2.239 5.717 4.939 7.009 2.617 1.252 5.904.581 8.533-.227a18.772 18.772 0 004.784-2.237c.726-.477 1.59-.986 2.16-1.649.52-.608.892-1.395 1.294-2.083 1.828-3.132 3.23-6.481 3.263-10.166zM115.664 393.111c-1.407-.806-2.716-1.607-4.222-2.227a729.362 729.362 0 00-4.635-1.906c-3.097-1.252-6.21-2.465-9.377-3.525-3.166-1.06-6.435-1.763-9.603-2.808-3.211-1.064-6.31-2.586-9.406-3.94-1.774-.776-3.543-1.554-5.317-2.327-.87-.379-1.74-.758-2.607-1.133-.82-.353-1.617-.467-2.484-.659-.151 2.242-.258 4.491-.44 6.729-.091 1.104-.157 2.218.097 3.312.065.275.122.636.335.813.18.151.51.241.733.344.59.279 1.181.553 1.776.832 4.5 2.107 9.01 4.2 13.544 6.231 9.085 4.075 18.276 7.924 27.67 11.233.656.232 1.311.461 1.971.686.438.148.543.113.869-.206.169-.16.32-.341.45-.535.673-1.033.295-2.056.203-3.191-.21-2.581.347-5.148.443-7.723zm-53.191-76.477c-.238.948-.49 1.853-.617 2.824-.172 1.345-.336 2.689-.504 4.034-.326 2.65-.681 5.295-1.052 7.939-.358 2.588-.653 5.188-.797 7.801-.146 2.627-.163 5.259-.331 7.887-.338 5.273-.763 10.538-1.09 15.813-.163 2.65-.595 5.259-.825 7.9-.228 2.622-.218 5.242-.31 7.87-.091 2.602-.393 5.192-.6 7.78a12.11 12.11 0 00-.034 1.738c.022.287.009.724.127.989.112.254-.048.119.249.292.148.089.35.126.511.182a32.536 32.536 0 005.303 1.345c.291.049.583.09.88.132.145.021.295.042.441.059.375.05.364.138.485-.176.21-.532.194-1.29.271-1.859.092-.696.18-1.396.264-2.092.309-2.623.538-5.258.733-7.891.389-5.286.702-10.577 1.124-15.86.428-5.346.8-10.697 1.14-16.05.345-5.358.664-10.717.987-16.076a5504.662 5504.662 0 01.611-9.985c.018-.313.036-.627.058-.94l.028-.47c.025-.354.102-.369-.17-.547-.432-.284-1.095-.42-1.583-.607l-1.77-.678-3.53-1.354zm72.836-145.744c-2.029-.104-4.097-.386-6.112-.035-.999.174-1.865.558-2.775.979-.937.435-1.966.413-2.971.603-2.086.395-4.076 1.146-6.111 1.735-1.017.295-2.049.549-3.072.823-1.05.283-2.147.3-3.211.525-2.148.453-4.178 1.315-6.244 2.021-2.043.697-4.106 1.354-6.105 2.168-1.984.807-3.807 1.909-5.766 2.775-1.891.84-3.86 1.559-5.652 2.604-.824.481-1.595 1.053-2.23 1.763-.355.396-.35 1.069-.434 1.586-.1.606-.192 1.213-.28 1.82a74.758 74.758 0 00-.636 6.855 73.884 73.884 0 00-.086 3.424c-.001.285-.048.629 0 .911.053.317.155.324.489.461.461.188.946.286 1.442.285.944-.003 1.867-.357 2.766-.596 1.054-.28 2.11-.552 3.159-.858 4.147-1.213 8.122-3.187 11.984-5.08 3.917-1.922 7.741-4.036 11.39-6.421a130.637 130.637 0 0010.177-7.376c3.234-2.589 6.066-5.445 8.676-8.644.599-.736 1.186-1.468 1.602-2.328zm23.065 213.757c.248-.89.596-1.751.781-2.659.198-.973.256-1.988.349-2.976.186-1.926.312-3.858.419-5.791.215-3.927.381-7.856.578-11.783.056-1.086.024-2.217.219-3.288.066-.386.153-1.03.421-1.333.259-.292.81-.311 1.158-.445.068.458.19.915.22 1.377.039.577-.014 1.167-.023 1.744-.021 1.206-.041 2.412-.069 3.617a201.495 201.495 0 01-.305 7.249c-.144 2.429-.311 4.857-.474 7.285-.082 1.214-.163 2.428-.241 3.643-.037.577-.1 1.158-.091 1.736.005.259.025.517.046.775.01.145.025.29.036.435.018.24-.028.248.168.343.281.134.786.08 1.092.086.442.009.883-.01 1.326-.047.924-.08 1.843-.246 2.744-.465 1.55-.375 3.09-.896 4.5-1.632 1.58-.828 2.847-2.128 3.587-3.742.966-2.103 1.882-4.248 2.418-6.507.528-2.22.748-4.507.872-6.784.062-1.164.095-2.33.127-3.495.013-.573.026-1.147.044-1.72.001-.107.027-.24.009-.346-.065-.403.041-.13-.218-.295-.252-.159-.722-.204-1.01-.286-4.549-1.296-9.091-2.589-13.684-3.723-2.279-.563-4.581-1.039-6.86-1.611-2.194-.55-4.389-1.128-6.639-1.362-.27-.028-.631-.111-.899-.076-.226.029-.135-.068-.24.103-.069.106-.035.332-.049.461l-.191 1.751c-.119 1.119-.227 2.24-.316 3.362-.195 2.399-.307 4.804-.43 7.208-.245 4.783-.532 9.571-1.459 14.273-.186.96-.373 1.939-.25 2.923.062.489.127 1.124.606 1.334.592.26 1.076.36 1.723.419 2.378.205 4.757.389 7.138.552.501.034 1.053.137 1.555.072.448-.058.875-.268 1.312-.382zm-4.652 35.729c1.145-1.337 1.163-3.16 1.248-4.829.097-1.939.174-3.883.18-5.826a57.903 57.903 0 00-.251-5.801 42.091 42.091 0 00-.39-2.938c-.056-.327-.081-.348-.393-.459l-.655-.24-1.367-.506c-3.641-1.336-7.337-2.632-11.08-3.64-3.621-.974-7.283-1.817-10.819-3.087a38.132 38.132 0 01-5.165-2.28c-.816-.437-1.678-.737-2.561-1.008-.816-.254-1.683-.494-2.541-.337-.78.143-1.153.614-1.272 1.36-.151.956-.309 1.911-.464 2.863-.313 1.949-.542 3.891-.539 5.868.007 1.971.101 3.945-.073 5.911-.07.806-.305 1.623.114 2.384.366.655 1.083 1.148 1.697 1.559.804.538 1.736.9 2.607 1.317.867.419 1.738.836 2.614 1.242a63.189 63.189 0 005.381 2.179c3.56 1.25 7.188 2.284 10.738 3.559 1.777.638 3.531 1.333 5.237 2.144 1.647.783 3.259 1.455 5.121 1.295a7.803 7.803 0 002.633-.73zm-9.33-249.956c.234 1.334.999 2.389 1.96 3.32 1.046 1.012 2.109 1.992 3.088 3.07a33.85 33.85 0 012.841 3.57c.876 1.277 1.596 2.64 2.588 3.841.992 1.202 2.159 2.197 3.295 3.258 1.161 1.083 2.231 2.258 3.362 3.371 2.428 2.383 4.807 4.814 7.335 7.095a135.47 135.47 0 007.542 6.368c2.606 2.032 5.362 3.839 8.052 5.754 2.576 1.834 5.133 3.719 7.926 5.224a95.448 95.448 0 009.093 4.293c3.093 1.267 6.267 2.333 9.535 3.034 3.343.717 6.742 1.081 10.101 1.687.429.077.743.093 1.073-.233.379-.376.195-.48-.097-.839a25.531 25.531 0 01-.733-.949c-.903-1.22-1.737-2.488-2.693-3.67-2.14-2.652-4.468-5.195-6.715-7.758-2.088-2.377-4.217-4.702-6.248-7.13-1.999-2.393-4.033-4.782-6.422-6.812-1.175-.999-2.161-2.139-3.22-3.25a263.944 263.944 0 00-3.372-3.482c-2.333-2.345-4.989-4.357-7.679-6.28-5.283-3.78-10.947-7.255-16.818-10.064-2.988-1.43-6.093-2.366-9.268-3.28-.685-.198-1.379-.373-2.089-.448-.871-.091-1.736.062-2.607.097-1.676.07-3.356-.049-5.03-.109-1.632-.058-3.185.167-4.8.322zm103.056 105.327c.699.662 1.385 1.347 2.105 1.985.695.613 1.486 1.132 2.099 1.831.678.774 1.123 1.803 1.547 2.727a20.36 20.36 0 011.116 2.99c.583 2.075.641 4.208.581 6.343-.056 2.048-.325 4.11-1.1 6.015-.852 2.091-2.552 3.78-2.638 6.145.441-.02.896.025 1.337-.04.61-.091 1.219-.308 1.815-.467 1.186-.314 2.371-.631 3.553-.948a3858.95 3858.95 0 007.219-1.944c2.182-.591 4.261-1.449 6.461-2.019 2.373-.615 4.758-1.182 7.136-1.769 4.758-1.175 9.48-2.48 14.185-3.837a562.16 562.16 0 007.048-2.071c1.57-.475 3.131-1.08 4.431-2.088 1.426-1.111 2.225-2.575 2.715-4.283.661-2.308 1.42-4.519 1.669-6.925.238-2.332.171-4.683.047-7.023-.066-1.215-.147-2.429-.21-3.644a89.303 89.303 0 01-.078-1.714c-.002-.106.013-.24-.009-.343-.08-.357.048-.169-.226-.248-.222-.064-.544-.065-.774-.07-1.127-.023-2.303.173-3.424.302-1.216.14-2.427.307-3.64.49-2.344.357-4.679.778-7.017 1.192-4.76.843-9.506 1.658-14.235 2.671-4.772 1.023-9.584 1.81-14.366 2.776-4.847.979-9.681 2.028-14.511 3.074-.984.213-1.888.564-2.836.892zm-76.257 233.257c2.296-1.599 4.559-3.408 5.967-5.859.752-1.306 1.113-2.771 1.828-4.092.515-.953 1.233-2.715 2.649-2.016 1.255.623 1.531 2.596 2.032 3.735.664 1.499 1.541 2.893 2.422 4.28.845 1.328 1.663 2.657 2.741 3.823 1.113 1.199 2.403 2.234 3.78 3.123 5.697 3.684 12.558 4.823 19.23 4.731 1.476-.023 2.965-.205 4.331-.774.611-.251 1.609-.632 1.849-1.243.308-.792.299-1.868.364-2.704.282-3.63.207-7.303.342-10.946.073-2.023.157-4.048.234-6.071.077-2.027.469-4.021.775-6.022.307-2.006.613-4.012.915-6.018.151-1.001.302-2.002.446-3.007.133-.921.085-1.843.108-2.769-2.504.232-4.888 1.202-7.304 1.828-2.614.679-5.263 1.235-7.949 1.556-2.644.317-5.318.399-7.977.16-1.365-.124-2.722-.476-4.086-.526-1.387-.048-2.773-.275-4.147-.438-2.866-.336-5.643-.844-8.408-1.68-1.316-.397-2.625-.824-3.942-1.21-.614-.176-1.238-.33-1.852-.509-.529-.153-1.059-.348-1.613-.376-.431-.017-1.154.071-1.452.422-.176.205-.126.651-.147.942a87.57 87.57 0 01-.079 1.142l-.324 4.329c-.211 2.82-.452 5.64-.641 8.462-.107 1.578-.028 3.087.119 4.658.135 1.435-.027 2.889-.051 4.321-.049 2.916-.108 5.832-.16 8.748zm138.883-247.329c1.441-2.442 2.484-5.07 2.724-7.917.223-2.652-.084-5.444-.602-8.058-.496-2.523-1.395-4.979-2.93-7.082a14.838 14.838 0 00-1.363-1.612c-.527-.544-1.209-.4-1.911-.298-1.568.225-3.086.712-4.667.913-3.178.402-6.411.317-9.589-.098-1.601-.209-3.179-.545-4.779-.762-1.69-.228-3.403-.266-5.105-.346-6.676-.315-13.397-.456-20.042.266-1.8.196-3.596.474-5.355.894-1.705.406-3.356.95-5.1 1.199-1.71.244-3.409.126-5.123.236-1.787.113-3.514.618-5.154 1.299 2.47 1.282 4.941 2.552 7.407 3.833 1.141.591 2.359 1.118 3.335 1.963a6.944 6.944 0 011.856 2.566c.513 1.215.862 2.534 1.223 3.798.382 1.335.698 2.693.838 4.074.064.637.087 1.276.159 1.912.074.667.172 1.355.053 2.02-.238 1.274-.8 2.564-1.205 3.795-.465 1.407-.971 2.804-1.612 4.142-.343.709-.746 1.371-1.14 2.051-.283.489-.449 1.033-.666 1.552 3.673-.475 7.273-1.317 10.899-2.05 3.88-.784 7.753-1.616 11.67-2.205 1.903-.286 3.738-.753 5.604-1.193 1.943-.456 3.901-.848 5.862-1.203 3.889-.704 7.803-1.262 11.705-1.89 4.323-.696 8.667-1.219 13.008-1.799zm-167.703 240.5c.316-2.117.652-4.172.777-6.314.125-2.202.296-4.404.395-6.608.1-2.211.097-4.414-.023-6.627-.056-1.057.098-2.099.185-3.147.09-1.086.149-2.17.224-3.257.157-2.262.318-4.524.434-6.791.067-1.312-.024-2.414-1.276-3.127-.81-.46-1.72-.689-2.572-1.055-.915-.394-1.825-.795-2.734-1.204-1.878-.841-3.736-1.741-5.474-2.847a25.492 25.492 0 01-1.413-.964c-.207-.157-.522-.325-.68-.526-.172-.214-.18-.571-.237-.846-.23-1.159-.486-2.314-.663-3.479-.304-2.047.076-4.251-1.22-6.036-1.154 2.082-2.221 4.22-3.548 6.196-.588.879-1.247 2.066-2.138 2.674-.887.601-2.267.516-3.304.496-1.236-.026-2.421-.408-3.606-.74a180.56 180.56 0 01-3.828-1.128 460.068 460.068 0 01-7.297-2.283c-1.122-.361-2.258-.689-3.414-.907-.549-.103-1.288-.32-1.844-.239-.284.041-.116-.116-.27.192-.054.104-.077.289-.1.388-.072.267-.147.53-.196.799-.216 1.193-.203 2.46-.304 3.672-.105 1.312-.221 2.627-.318 3.94-.394 5.256-.156 10.521-.432 15.78-.279 5.288-.81 10.554-1.133 15.835-.158 2.543-.371 5.078-.548 7.619-.023.328-.068.683.132.971.366.517.832.102 1.264-.124.9-.473 1.776-.996 2.609-1.579 1.645-1.153 3.076-2.558 4.326-4.114 1.474-1.828 2.975-3.71 4.144-5.749.416-.726.76-1.77 1.785-1.744 1.013.029 1.661 1.167 2.158 1.894 1.18 1.718 2.134 3.508 3.523 5.084 2.517 2.859 5.783 4.92 9.43 6.036 2.339.715 4.807 1.112 7.232 1.333 2.4.215 4.951.294 7.324-.134 1.008-.185 1.914-.604 2.63-1.34zm39.039-172.806c-.351-.234-.678-.542-1.053-.733-.491-.249-1.088-.359-1.612-.519a141.14 141.14 0 00-3.614-1.064 60.384 60.384 0 00-7.269-1.569c-5.068-.754-10.001-1.898-14.942-3.259-4.979-1.371-10.019-2.5-15.03-3.75-4.982-1.243-9.952-2.432-14.981-3.476-2.782-.577-5.557-1.196-8.276-2.033-2.605-.802-5.27-1.29-7.953-1.731-.09.755-.25 1.5-.32 2.257-.082.857.016 1.723.032 2.582a62.526 62.526 0 01-.134 5.141c-.107 1.71-.256 3.417-.405 5.123-.143 1.687-.183 3.405-.406 5.082-.176 1.305-.617 2.561-.681 3.884-.062 1.208.199 2.402.496 3.57.085.343.036.341.332.473.176.078.475.073.663.099.374.054.745.103 1.119.157.903.131 1.79.303 2.667.561 1.642.484 3.284.967 4.931 1.433 6.693 1.894 13.47 3.417 20.231 5.041 6.843 1.644 13.67 3.342 20.501 5.03 7.552 1.865 15.076 3.835 22.616 5.753.112-.531.333-1.042.404-1.581.067-.543-.079-1.104-.102-1.65-.048-1.114.074-2.224.237-3.323.353-2.386.758-4.764 1.115-7.149.351-2.364.706-4.733.949-7.112.248-2.405.32-4.825.485-7.237zm-51.529 116.606c.322.688.715 1.346 1.001 2.05.309.754.371 1.565.429 2.368.132 1.791.402 3.572.603 5.354.158 1.381.399 2.635 1.669 3.444.626.402 1.359.652 2.035.961.898.411 1.795.83 2.693 1.245 6.795 3.136 14.043 5.183 21.175 7.406 3.616 1.131 7.236 2.247 10.852 3.375 3.535 1.101 7.082 2.091 10.64 3.097 3.45.974 6.886 2.167 10.486 2.394 1.865.118 3.731.194 5.594.345l1.373.114c.151.01.301.024.452.034.342.027.342.072.581-.149.559-.53.766-1.657.871-2.385.248-1.659.343-3.358.519-5.027.197-1.825.386-3.65.519-5.484.266-3.627.067-7.315.559-10.918.117-.869.298-1.722.52-2.57.228-.882.219-1.826.287-2.734.132-1.786.276-3.563.465-5.339a522.671 522.671 0 01.406-3.76c.053-.464.256-1.123.173-1.584.009-.074.02-.151.026-.226-.139-.061-.278-.126-.417-.188-.2-.093-.401-.182-.602-.275-.387-.178-.773-.359-1.165-.53-.811-.362-1.644-.682-2.47-1.004a3923.364 3923.364 0 00-10.666-4.156c-3.462-1.341-6.942-2.632-10.351-4.115-3.338-1.454-6.671-3.024-10.155-4.098a56.511 56.511 0 01-5.069-1.788c-1.59-.658-3.129-1.472-4.806-1.895-.178-.046-.45-.15-.637-.14-.308.02-.251.014-.436.286-.181.264-.343.526-.499.804a3.89 3.89 0 01-1.234 1.363c-1.191.79-2.817 1.073-4.225 1.15-1.713.095-3.406-.276-4.96-1.006-1.094-.512-2.577-1.684-3.877-1.211-.289.105-.279.165-.424.444-.104.204-.208.408-.316.612l-.623 1.22c-.42.816-.833 1.636-1.246 2.456a518.071 518.071 0 00-2.452 4.959c-1.637 3.341-3.245 6.696-4.86 10.046-.81 1.687-1.62 3.373-2.438 5.055zm-62.609-57.872c-.396 1.766-.494 3.633-.68 5.428-.209 2.064-.426 4.133-.548 6.204-.205 3.39-.075 6.802-.204 10.194-.082 2.045-.078 4.101-.397 6.128-.326 2.056-.73 4.094-.992 6.164a66.053 66.053 0 00-.503 6.215c-.062 2.028-.106 4.118.246 6.127.15.841.156 1.733.433 2.545.229.672.634 1.267 1.134 1.773 1.234 1.255 2.931 2.121 4.516 2.846 3.628 1.664 7.575 2.451 11.39 3.555 4.08 1.185 8.114 2.53 12.153 3.857 2.014.659 4.026 1.345 6.06 1.931 1.958.564 3.959.971 5.911 1.554 1.945.585 3.824 1.36 5.783 1.913 1.988.559 3.997 1.049 5.958 1.707.815.273 1.605.656 2.483.444.773-.192 1.338-.736 1.801-1.349 1.206-1.571 2.087-3.371 3.015-5.114 1.946-3.638 3.819-7.317 5.779-10.951.949-1.756 1.894-3.516 2.697-5.341.799-1.826 1.51-3.683 2.375-5.484.861-1.794 1.783-3.552 2.688-5.323.425-.834.862-1.633 1.111-2.535.066-.245.208-.502.066-.654-.122-.13-.557-.226-.722-.298-.447-.186-.889-.384-1.341-.552-.912-.338-1.882-.52-2.819-.771-.99-.266-1.974-.55-2.957-.857a82.182 82.182 0 01-5.79-2.048c-3.364-1.329-6.871-2.758-9.552-5.253-.654-.606-1.209-1.275-1.765-1.97-.615-.763-1.354-1.029-2.237-1.394-1.754-.733-3.444-1.606-5.208-2.314a20.252 20.252 0 00-2.714-.899c-.95-.236-1.895-.394-2.818-.736-1.949-.717-3.84-1.631-5.728-2.481-1.906-.863-3.811-1.737-5.732-2.564-1.87-.807-3.844-1.346-5.703-2.186-3.878-1.751-7.72-3.584-11.576-5.377-.93-.433-1.857-.866-2.788-1.292-.934-.43-1.837-.594-2.825-.842zm59.223-365.195c-.996 1.866-3.11 2.598-4.95 3.408-2.268.997-4.62 1.854-7.074 2.292-4.957.884-9.773 2.589-14.278 4.788-4.6 2.248-8.825 5.139-13.19 7.788-1.029.626-2.074 1.22-3.02 1.97-.908.722-1.689 1.553-2.443 2.428-1.51 1.75-2.947 3.563-4.257 5.467-2.73 3.967-4.802 8.309-6.007 12.976a38.128 38.128 0 00-1.18 7.659c-.13 2.577.039 5.16.235 7.732.095 1.232.163 2.469.495 3.667.333 1.204.688 2.404 1.036 3.603.699 2.4 1.44 4.794 2.392 7.111 1.554 3.79 3.83 7.338 7.537 9.375 2.149 1.18 4.54 1.941 6.845 2.751.615.217 1.23.433 1.844.655.147.053.735.371.875.321.11-.038.325-.585.395-.695a9.099 9.099 0 011.843-2.163c1.352-1.142 3.025-1.816 4.753-2.18a16.328 16.328 0 013.064-.353c.569-.011 1.137-.006 1.703-.069.252-.028.502-.069.755-.107.104-.016.298-.021.407-.062.294-.115.211-.121.194-.472-.056-1.147-.142-2.266-.054-3.411.093-1.222.002-2.447-.217-3.654-.399-2.185-1.076-4.44-2.085-6.436a11.537 11.537 0 00-1.783-2.626c-.806-.879-1.761-1.607-2.559-2.495-1.638-1.818-2.689-3.995-3.63-6.22-.948-2.232-1.987-4.502-2.26-6.922-.278-2.458-.107-4.98.388-7.391.485-2.381 1.308-4.68 2.32-6.885.232-.506.57-1.017.728-1.55.195-.669-.159-1.017-.523-1.56-.151-.228-.307-.456-.458-.684-.058-.085-.193-.238-.23-.342-.12-.325-.11-.094.054-.33.356-.505 1.03-.95 1.481-1.373 1.856-1.725 3.882-3.222 5.909-4.74 2.109-1.58 4.228-3.147 6.33-4.737 1.927-1.456 3.779-2.956 6.116-3.727 2.306-.76 4.866-1.156 7.281-1.402 2.583-.263 5.147-.162 7.687.411.573.13 1.152.225 1.734.293.615.072 1.338.227 1.956.165.146-.014.657-.102.753-.216.101-.12.084-.6.106-.768l.111-.794c.013-.114.015-.315.058-.43.117-.316.122-.23.491-.255 1.208-.08 2.364-.18 3.566.036 1.266.226 2.538.19 3.822.188 2.562-.006 5.126-.08 7.682-.248 9.775-.646 19.706-2.753 28.393-7.285a48.189 48.189 0 002.898-1.64c.774-.474 1.354-1.12 2.015-1.73-1.622.193-3.232.415-4.849.637-1.959.27-3.912-.077-5.858-.368a215.4 215.4 0 01-6.032-.995c-.967-.173-1.78-.692-2.66-1.094a18.521 18.521 0 00-2.57-.945c-3.775-1.08-7.613-.803-11.465-.552-4.045.264-8.09.57-12.129.894-1.633.131-3.103-.188-4.356-1.293-.322-.283-.61-.6-.878-.93-.309-.382-.408-.604-.919-.663a8.945 8.945 0 00-2.622.095c-1.8.328-3.542 1.045-5.275 1.613-1.943.638-3.886 1.272-5.826 1.914a906.69 906.69 0 00-11.424 3.857c-1.342.463-2.886 1.127-3.986-.181-.224-.265-.361-.586-.589-.846a2.059 2.059 0 00-.365-.352c-.226-.15-.45-.146-.731-.145a6.375 6.375 0 00-2.336.487c-1.674.672-3.246 1.685-4.866 2.48-1.682.828-3.378 1.639-5.022 2.545-3.224 1.777-6.359 3.904-9.227 6.2-1.384 1.11-2.579 2.493-4.027 3.517-.31.217-.653.472-1.033.532-.35.054-.705-.043-1.053-.053-.771-.021-1.402.639-1.91 1.148-1.25 1.245-2.147 2.916-3.12 4.376-1.047 1.571-2.066 3.16-2.986 4.809-3.685 6.61-5.45 14.191-5.16 21.763.075 1.89.172 3.834.73 5.654.48 1.574 1.206 3.502.684 5.142-.23.727-.749.851-1.438 1.027-.147.038-.394.051-.512.145-.134.11-.227.46-.29.62a5.505 5.505 0 00-.317 1.358c-.098.913-.004 1.831.057 2.744.064.918.049 1.836.094 2.754.176 3.637.962 7.237 2.25 10.656 1.123 2.965 2.814 5.56 5.532 7.327 1.474.958 3.045 1.842 4.594 2.672.762.407 1.538.783 2.342 1.095.851.331 1.755.482 2.6.804 1.517.575 3.044 1.357 4.465 2.132 1.337.729 2.619 1.591 3.676 2.692.54.563 1 1.181 1.416 1.841.418.67 1.08.903 1.703 1.344 1.308-1.983 1.296-4.536 1.917-6.77.33-1.185.718-2.352 1.084-3.525.078-.255.259-.611.14-.818-.1-.17-.453-.392-.609-.521-.422-.351-.89-.543-1.396-.754-2.186-.915-4.486-1.551-6.63-2.559-2.047-.961-3.713-2.389-5.183-4.085-3.132-3.618-4.439-8.155-5.921-12.583-.802-2.395-1.616-4.731-1.973-7.238-.345-2.428-.407-4.88-.473-7.325-.067-2.537.066-5.015.538-7.508.476-2.504 1.19-4.953 1.963-7.378.354-1.115.609-2.403 1.255-3.389a60.32 60.32 0 001.834-2.979c1.146-1.987 2.26-4.009 3.723-5.79 2.367-2.879 4.832-6.328 8.54-7.563.492-.164.975-.28 1.412-.57.489-.325.864-.789 1.309-1.166.806-.682 1.719-1.223 2.643-1.73 1.985-1.086 3.916-2.263 5.963-3.237 2.162-1.03 4.199-2.303 6.386-3.275 2.097-.93 4.301-1.605 6.528-2.15 4.737-1.16 9.493-2.084 13.972-4.058.472-.208 1.011-.59 1.513-.703.336-.077.756.058 1.099.085zm22.313 533.073c-.157.386-.393.762-.483 1.169-.138.613-.127 1.299-.171 1.924a58.987 58.987 0 00-.15 3.638c-.015 2.377.025 4.916.675 7.226 1.166 4.128 4.282 7.449 7.872 9.713 3.921 2.465 8.378 4.104 12.977 4.658 2.535.306 5.088.224 7.635.22 2.591.001 5.184-.021 7.781-.035 2.6-.018 5.205-.039 7.806-.071 1.282-.014 2.576.006 3.86-.083 1.235-.082 2.46-.285 3.702-.314 1.241-.029 2.485.133 3.729.123a40.963 40.963 0 003.726-.207c1.363-.13 2.973-.171 3.651-1.543.419-.846.574-1.843.793-2.752.3-1.242.584-2.486.855-3.734.54-2.505.992-5.029 1.339-7.57.697-5.127 1.03-10.291 1.382-15.453.698-10.31 1.617-20.633 1.924-30.971.021-.612.064-1.23.047-1.846-.019-.589-.219-1.151-.327-1.73-1.395.289-2.671.738-4.115.696-1.659-.05-3.32-.127-4.975-.221a242.691 242.691 0 01-4.973-.338c-1.529-.117-2.949-.489-4.382-1.032-2.542-.958-5.128-1.853-7.458-3.268a21.31 21.31 0 01-5.662-4.969c-2.055-2.587-3.634-5.574-5.364-8.376-1.341 4.069-4.184 7.285-7.55 9.869-.417.318-.84.627-1.267.933-.193.136-.446.263-.611.427-.252.251-.187.654-.206 1.026-.07 1.342-.132 2.689-.194 4.035-.126 2.707-.248 5.415-.404 8.123-.161 2.716-.434 5.424-.576 8.145-.148 2.747-.141 5.5-.164 8.25-.02 2.665-.067 5.335-.313 7.986-.031.33-.006.576-.23.81-.178.183-.429.336-.645.466a4.06 4.06 0 01-1.508.555c-1.056.162-2.137-.086-3.207.022-2.633.27-4.685 1.854-7.055 2.84a21.383 21.383 0 01-7.764 1.659zm-80.53-12.844c-.702.741-1.406 1.471-2.118 2.196a5.175 5.175 0 00-1.331 2.347c-.248.981-.136 1.957-.108 2.956.03 1.134-.018 2.272.032 3.407.154 3.489 1.272 7.464 4.232 9.655 1.799 1.332 3.925 2.286 5.854 3.421 2.005 1.179 3.84 2.402 6.125 2.992 2.292.595 4.689.892 7.02 1.292 2.413.411 4.826.826 7.248 1.178 4.792.702 9.696.723 14.52.942 1.235.052 2.471.127 3.707.165 1.149.034 2.307-.13 3.452-.232 2.408-.211 4.816-.422 7.222-.656 2.361-.227 4.753-.387 7.016-1.128 1.499-.492 2.924-1.325 3.74-2.703.453-.768.624-1.599.761-2.47.193-1.185.467-2.343.592-3.537.254-2.419.473-4.844.708-7.265.956-9.709 2.432-19.353 3.437-29.058.499-4.838.938-9.681 1.377-14.528.109-1.173.256-2.351.266-3.533.009-.558-.01-1.117-.02-1.676-.002-.206.08-.603-.007-.791-.087-.18-.442-.194-.693-.232-.973-.141-2.1.247-3.068.365a27.018 27.018 0 01-3.446.202c-2.434-.02-4.726-.625-7.089-1.144-2.046-.453-4.089-.897-6.049-1.664-3.446-1.348-6.472-3.56-8.669-6.535-.511-.694-.927-1.436-1.397-2.157-.216-.327-.447-.648-.731-.921-.193-.186-.858-.801-1.145-.726-.151.039-.435.537-.536.663-.181.223-.359.447-.544.669-.346.422-.702.835-1.051 1.253-.648.783-1.29 1.575-1.942 2.354-1.307 1.555-2.682 3.07-4.294 4.324-.871.68-1.823 1.245-2.755 1.842l-1.52.973-.649.413c-.404.259-.454.273-.486.746-.318 4.615-.704 9.231-.78 13.856-.084 4.906-.127 9.812-.188 14.719-.014 1.168-.027 2.335-.044 3.505-.012.595-.04 1.113-.223 1.68-.07.207-.11.466-.275.578-.156.102-.538.18-.734.218-.436.091-.898-.037-1.338-.077a21.159 21.159 0 00-4.892.089c-2.16.286-4.267.888-6.279 1.708-1.042.422-1.964.892-3.122.828-1.135-.066-2.26.03-3.393.069-1.105.038-2.201.001-3.28-.28-1.028-.27-2.067-.211-3.113-.292zm157.611-315.549c-.178.313-.522.624-.567.99-.07.523.141 1.174.134 1.716-.011 1.143-.229 2.268-.502 3.371a42.788 42.788 0 00-1.163 6.944c-.193 2.383-.304 4.774-.445 7.161-.073 1.153-.127 2.313-.271 3.46-.148 1.188-.385 2.362-.526 3.551-.543 4.731-.801 9.493-1.341 14.225-.544 4.789-1.144 9.571-1.681 14.361-1.077 9.613-1.737 19.282-2.547 28.923-.205 2.428-.384 4.859-.63 7.282-.238 2.37-.577 4.731-.698 7.112-.253 4.832-.261 9.643-.901 14.447-.625 4.712-.827 9.485-1.178 14.226-.355 4.833-.732 9.665-1.211 14.486-.479 4.779-1.161 9.528-1.707 14.298-.545 4.793-.962 9.6-1.432 14.403-.46 4.74-1.124 9.458-1.513 14.205-.392 4.825-.536 9.677-.728 14.513-.096 2.388-.191 4.772-.305 7.155-.111 2.386-.569 4.715-1.039 7.05-.458 2.288-.933 4.596-.848 6.948.02.541.073 1.048-.021 1.583-.094.542-.244 1.071-.316 1.619a101.483 101.483 0 00-.393 3.562c-.223 2.321-.238 4.649-.415 6.969-.186 2.433-.376 4.865-.569 7.292-.184 2.362-.524 4.772-.478 7.143.005.252.015.503.024.755.005.132-.064.822.024.905.074.07.647.01.741.015.284.003.575.015.859.018 1.026.012 2.05-.094 3.064-.222 4.591-.574 9.054-1.905 13.485-3.16a353.092 353.092 0 0013.618-4.181c4.618-1.511 9.206-3.104 13.793-4.7 2.267-.79 4.534-1.579 6.803-2.361 1.775-.61 3.893-1.027 5.277-2.365 1.351-1.307 1.494-3.126 1.835-4.87.45-2.322.994-4.628 1.447-6.949.916-4.699 1.703-9.395 2.023-14.181.159-2.375.28-4.753.556-7.117.139-1.186.317-2.364.553-3.53.231-1.136.133-2.332.183-3.489a82.79 82.79 0 01.623-7.103c.152-1.2.331-2.397.528-3.588.189-1.144.502-2.273.531-3.438.111-4.776 1.014-9.457 1.52-14.19.251-2.351.416-4.709.698-7.056.289-2.396.631-4.784.969-7.173.667-4.722 1.173-9.452 1.69-14.194.262-2.385.647-4.745.976-7.119.333-2.373.546-4.761.755-7.148.412-4.748.79-9.493 1.3-14.23.514-4.795 1.037-9.59 1.611-14.378.555-4.648.649-9.393 1.523-13.994.434-2.268 1.302-4.522 1.46-6.839.035-.508-.075-1.014-.14-1.516-.044-.373-.102-.318-.469-.319-.296 0-.594-.014-.89-.01-1.1.015-2.186.41-3.243.68a1398.45 1398.45 0 00-14.006 3.652c-2.239.598-4.408 1.403-6.645 2.017-2.183.601-4.372 1.136-6.51 1.884-2.095.732-4.064 1.721-6.123 2.522-2.028.788-4.208 1.129-6.383 1.219-1.866.077-3.755.051-5.493-.732-1.652-.741-2.908-2.036-3.824-3.563-2.237-3.732-4.066-7.996-3.964-12.378.047-2.17.48-4.343 1.191-6.386.676-1.94 1.485-3.921 2.45-5.737.816-1.534 1.844-2.961 3.113-4.16 1.328-1.257 2.926-2.06 4.444-3.058-2.198-1.823-4.731-3.488-6.162-6.015-.708-1.249-1.071-2.577-1.362-3.965-.359-1.707-.733-3.411-1.061-5.123-.624-3.253-1.023-6.395-.284-9.65.562-2.487 1.634-4.865 3.601-6.563 1.293-1.115 2.886-1.86 4.292-2.825 1.606-1.104 3.156-2.291 4.756-3.403-4.74-2.421-8.501-6.232-12.466-9.684zM75.929 272.19c-.5 1.098-.583 2.277-.644 3.466-.065 1.288-.202 2.573-.304 3.857-.218 2.671-.547 5.32-.843 7.982-.293 2.667-.508 5.349-.525 8.036-.015 2.74-.321 5.473-.547 8.2-.889 10.783-1.613 21.582-2.352 32.379-.094 1.367-.192 2.735-.279 4.103-.08 1.282.08 2.56.042 3.842-.036 1.26-.425 2.475-.555 3.727-.135 1.313-.15 2.636-.176 3.956-.056 2.647-.49 5.225-.711 7.856-.218 2.628-.277 5.264-.427 7.896-.06 1.053-.354 2.306-.096 3.355.202.814 1.015 1.199 1.714 1.544 1.91.947 3.867 1.798 5.843 2.601 2.375.965 4.64 2.109 6.969 3.179a56.925 56.925 0 007.306 2.773c2.492.744 4.998 1.414 7.444 2.297 1.24.45 2.468.94 3.67 1.484 1.172.53 2.35.989 3.541 1.476 2.561 1.05 5.126 2.104 7.692 3.147 1.158.472 2.298.895 3.491 1.266.197-.832.341-1.699.62-2.509.179-.512.445-.982.971-1.196.721-.29 1.658-.167 2.407-.103 1.027.086 2.044.299 2.996.693 1.986.814 3.886 1.848 5.867 2.677 1.992.833 4.022 1.572 6.104 2.144 4.382 1.201 8.751 2.39 13.096 3.726 2.161.661 4.329 1.293 6.482 1.965 1.452.451 2.433 1.462 2.656 2.972.142.946.08 1.921.085 2.873 0 .315.065.395.305.608.176.162.361.31.55.459.402.306.83.585 1.268.834 1.809 1.03 3.843 1.631 5.809 2.279 2.142.708 4.323 1.278 6.467 1.971 2.122.684 4.184 1.535 6.239 2.393 4.12 1.716 8.235 3.398 12.318 5.197.983.435 1.973.933 3.014 1.212.986.262 1.945.357 2.895.773 1.949.852 3.774 1.872 5.832 2.464.488.142.986.262 1.489.36.205.038.445.116.654.112.364-.008.14.047.328-.165.112-.124.165-.351.219-.5.348-.946.337-1.962.351-2.956.031-2.158.106-4.342.307-6.492.424-4.527.89-9.053 1.34-13.577.45-4.52 1.019-9.007 1.611-13.508.59-4.472.898-8.967 1.334-13.457.442-4.554.955-9.101 1.411-13.654.447-4.428.668-8.883 1.035-13.319.374-4.473.639-8.952.942-13.43.304-4.54.739-9.067 1.179-13.595.216-2.249.433-4.499.638-6.749a90.602 90.602 0 00.32-5.004c.017-.388.223-1.461-.03-1.654-.15-.113-.557-.134-.754-.184l-.716-.183c-.49-.125-.976-.249-1.467-.35-1.081-.221-2.186-.322-3.27-.498-2.229-.361-4.437-.823-6.638-1.326-4.343-.992-8.662-2.278-13.061-3.008-.52-.086-1.04-.156-1.563-.203-.391-.036-1.44-.23-1.641.049-.115.16-.12.585-.164.792-.052.263-.1.526-.152.788a63.252 63.252 0 00-.287 1.679 50.986 50.986 0 00-.6 6.518c-.059 2.217.099 4.431.097 6.647.002 2.264-.228 4.531-.399 6.785a348.03 348.03 0 01-1.307 13.718c-.52 4.505-1.039 9.027-1.754 13.504-.711 4.462-.871 9.007-1.154 13.516-.142 2.307-.28 4.615-.414 6.922-.113 1.958.078 4.226-1.055 5.928-.545.814-1.085 1.574-1.417 2.508-.311.876-.376 1.798-.809 2.633-.82 1.578-2.368 2.75-3.857 3.669-3.238 1.991-6.993 2.682-10.767 2.866a83.652 83.652 0 01-13.574-.417c-4.492-.515-8.831-1.656-13.269-2.461-4.337-.789-8.551-2.146-12.66-3.723-3.841-1.473-7.702-3.024-11.357-4.916-3.404-1.761-6.944-3.996-9.381-6.998-.567-.7-.632-1.334-.478-2.192.201-1.096.353-2.201.464-3.31.224-2.208.298-4.429.308-6.649.019-4.491-.177-8.977.027-13.464.207-4.55.533-9.09.999-13.618.466-4.519.88-9.02.938-13.57.061-4.534.128-9.045.408-13.571.28-4.525.609-9.046.931-13.567.167-2.3.335-4.6.488-6.9.026-.416.038-.832.042-1.248-.001-.259.045-.58.005-.834-.036-.21.041-.131-.111-.26-.103-.086-.451-.14-.569-.175a181.887 181.887 0 00-3.287-.978c-4.375-1.254-8.789-2.348-13.217-3.365-4.298-.985-8.61-1.899-12.92-2.82zm252.385-65.435c-1.034-3.803-3.26-6.792-5.681-9.861-2.705-3.43-5.39-6.876-8.051-10.338-2.617-3.403-5.257-6.797-7.736-10.296-2.392-3.373-4.402-6.919-6.503-10.464-1.018-1.712-2.228-3.246-3.374-4.868-1.096-1.546-2.024-3.198-2.822-4.91-.8-1.722-1.419-3.499-2.059-5.282-.662-1.842-1.894-3.385-2.725-5.153-.811-1.734-1.411-3.553-2.023-5.362-.66-1.961-1.32-3.911-1.867-5.906-.55-2.01-1.071-4.004-1.4-6.059-.318-1.971-.583-3.949-.882-5.922-.299-1.969-.636-3.934-1.101-5.874-.474-1.999-1.179-3.875-1.887-5.8-.325-.877-.342-1.822-.517-2.731a18.883 18.883 0 00-.756-2.715c-.63-1.769-1.472-3.454-2.314-5.133-.891-1.785-1.748-3.557-2.864-5.222a54.421 54.421 0 00-3.656-4.852 72.497 72.497 0 00-8.476-8.495c-6.056-5.11-13.805-8.254-21.536-9.743-4.299-.829-8.666-.938-13.008-1.445-4.383-.511-8.748-1.093-13.156-1.354-4.426-.262-8.85-.551-13.254-1.083-4.359-.527-8.71-1.105-13.075-1.602-4.368-.498-8.711-1.224-13.067-1.824-4.338-.596-8.736-1.247-13.112-1.43a51.876 51.876 0 00-3.106-.012c-.539.01-1.077.012-1.613.03-.459.017-.64.23-1.015.46.392.393.456.531 1.017.66.495.113.984.249 1.467.404.997.32 1.964.722 2.904 1.172 1.789.855 3.47 2.156 5.366 2.733 3.636 1.107 6.595 3.577 10.024 5.131.851.386 1.411 1.029 2.128 1.614.841.689 1.698 1.364 2.53 2.067 1.587 1.34 3.101 2.776 4.62 4.19 1.527 1.418 3.028 2.877 4.362 4.475 1.244 1.49 2.327 3.102 3.331 4.754.99 1.627 1.909 3.294 2.852 4.947.49.855.987 1.708 1.501 2.548.488.796 1.114 1.565 1.514 2.405.446.929.646 1.991.978 2.963a59.08 59.08 0 001.067 2.906c.773 1.956 1.622 3.88 2.474 5.801 3.548 7.987 6.118 16.306 8.935 24.555 1.384 4.061 2.929 8.056 4.437 12.074.745 1.99 1.345 4.034 2.065 6.034a121.84 121.84 0 002.267 5.845c1.644 3.939 3.531 7.783 5.418 11.614 1.878 3.813 3.843 7.588 6.053 11.229 1.957 3.228 3.987 6.438 6.389 9.366 2.522 3.074 5.469 5.512 8.716 7.801 3.354 2.364 6.809 4.614 10.595 6.24a33.473 33.473 0 005.598 1.852c2.16.504 4.275 1.174 6.446 1.637 4.322.921 8.701 1.344 13.102 1.54 4.458.2 8.905.67 13.36.402 2.151-.129 4.293-.366 6.429-.635 1.057-.134 2.193-.176 3.217-.462.958-.267 1.897-.578 2.861-.828 4.201-1.093 8.385-2.29 12.621-3.256.988-.225 1.99-.471 3.01-.527.99-.056 1.988.015 2.982-.005zM60.123 223.314c.433-.697.906-1.332 1.2-2.104.335-.873.602-1.772.866-2.667.56-1.874 1.05-3.769 1.63-5.638 1.04-3.361 2.435-6.626 4.058-9.746 3.18-6.114 7.47-11.663 12.759-16.133 2.806-2.37 5.953-4.044 9.224-5.704 3.417-1.735 6.898-3.371 10.548-4.583 3.639-1.209 7.285-2.462 11.034-3.306.946-.213 1.909-.357 2.854-.565.942-.209 1.847-.564 2.768-.851 1.863-.583 3.754-1.082 5.646-1.563 1.893-.48 3.779-.974 5.671-1.451 1.818-.459 3.763-.426 5.631-.519 4.044-.201 8.119-.177 12.141-.615 1.946-.212 3.889-.442 5.851-.424 1.923.018 3.845.225 5.737.583 3.76.709 7.412 1.991 10.906 3.537 3.552 1.573 6.977 3.589 10.297 5.597 3.254 1.965 6.329 4.179 9.293 6.547 2.988 2.388 5.86 4.865 8.499 7.63a237.781 237.781 0 004.22 4.303c.672.668 1.327 1.362 2.045 1.981.63.542 1.301 1.032 1.918 1.586 1.252 1.122 2.132 2.627 3.2 3.913 1.14 1.369 2.347 2.681 3.561 3.987 2.438 2.625 4.758 5.265 6.856 8.163.986 1.359 2.406 2.374 3.35 3.777.493.734.891 1.509 1.431 2.217a22.464 22.464 0 001.663 1.921c2.647 2.764 5.504 5.368 8.437 7.835 1.37 1.156 2.768 2.3 4.321 3.218 1.582.936 3.227 1.479 5.032 1.776 3.768.619 7.643.766 11.352-.19 1.901-.49 3.79-.982 5.734-1.306 1.956-.327 3.921-.45 5.903-.541 4.015-.182 8.037-.255 12.059-.049 4.022.206 8.037.446 12.031 1.033 3.923.577 7.922.734 11.849.213 3.639-.482 7.299-1.177 10.88-1.96 1.81-.395 3.293-1.147 4.85-2.111 1.645-1.018 3.26-2.08 4.892-3.114 1.511-.954 3.206-1.756 4.568-2.913 1.112-.946 1.962-2.144 2.582-3.456.702-1.485 1.205-3.113 1.382-4.749.102-.962.103-1.933.058-2.9-.038-.82-.034-1.688-.322-2.47-.51-1.389-1.919-2.261-3.302-2.633-1.89-.509-3.824.023-5.616.612-1.768.58-3.48 1.306-5.279 1.796-1.817.495-3.748.478-5.534 1.045-1.848.587-3.661 1.062-5.59 1.341-1.91.278-3.828.527-5.741.798-1.971.279-3.989.13-5.976.053-1.994-.077-3.986-.18-5.982-.275-.989-.048-1.974-.091-2.961-.154-.965-.061-1.886.169-2.846.183-1.965.029-3.943-.417-5.873-.764-3.927-.709-7.894-1.396-11.751-2.446-3.694-1.005-7.278-2.377-10.621-4.247-3.215-1.798-6.31-3.91-9.214-6.168-2.748-2.136-5.243-4.584-7.163-7.483-1.963-2.962-4.227-5.725-6.087-8.755-1.982-3.236-3.326-6.826-5.07-10.189-1.643-3.171-3.495-6.249-4.799-9.577-.332-.845-.567-1.716-.875-2.566-.148-.409-.402-.769-.574-1.168-.19-.449-.357-.911-.535-1.364-.721-1.813-1.439-3.624-2.039-5.48-.582-1.798-1.141-3.604-1.801-5.378-.647-1.751-1.508-3.384-2.257-5.09-1.534-3.487-2.173-7.253-3.47-10.813-1.342-3.689-2.576-7.415-3.946-11.095-1.366-3.671-3.001-7.22-4.517-10.83-.768-1.836-1.517-3.681-2.27-5.523-.721-1.768-1.372-3.615-2.254-5.314-.807-1.553-1.877-2.997-2.743-4.524-.85-1.496-1.676-3.006-2.594-4.464-1.934-3.08-4.422-5.886-7.201-8.247-1.479-1.258-2.997-2.47-4.468-3.74-1.435-1.24-2.756-2.58-4.348-3.63-1.577-1.04-3.283-1.9-4.953-2.778a144.554 144.554 0 00-5.271-2.64c-3.558-1.69-7.193-3.272-10.906-4.59-3.718-1.32-7.629-2.037-11.56-2.243-7.661-.402-15.22 1.07-22.425 3.477-3.351 1.118-6.804 2.285-9.874 4.033-2.827 1.609-5.331 3.713-7.5 6.114a36.9 36.9 0 00-1.588 1.882c-.432.543-.949 1.122-1.182 1.784-.446 1.262 1.067 1.977 1.825 2.712 1.238 1.2 1.96 2.724 2.596 4.29.682 1.69 1.223 3.44 1.552 5.228.342 1.871.361 3.744.413 5.636.026.96.064 1.92.178 2.875.052.421.034.919.352 1.199.366.33.845.587 1.254.868 1.369.946 2.757 1.884 3.875 3.126 1.055 1.168 1.874 2.527 2.47 3.973 1.394 3.391 1.71 7.268 1.362 10.868-.351 3.649-1.346 7.377-3.385 10.451-.969 1.455-2.062 2.76-3.516 3.761-1.375.946-2.881 1.839-4.424 2.493-1.496.634-3.117.997-4.757.848-.89-.08-1.694-.36-2.544-.61-.41-.121-.836-.158-1.253-.247-.454-.096-.874-.284-1.304-.444-1.5-.555-3.058-1.05-4.204-2.219-1.08-1.1-2.042-2.374-2.724-3.75a9.51 9.51 0 01-1.013-4.426c.014-.758.289-1.838-.18-2.478-.529-.719-1.064-1.432-1.58-2.161-1.746-2.48-3.675-4.893-6.445-6.306-.349-.178-.71-.34-1.074-.482-.26-.101-.891-.445-1.162-.386-.17.037-.416.412-.552.542-.16.152-.317.305-.478.457-.337.327-.679.654-1.017.985-.635.625-1.34 1.265-1.844 2.002-.512.739-.55 1.434-.64 2.285-.08.741-.544 1.311-.946 1.907a55.541 55.541 0 00-1.5 2.375c-.998 1.662-1.793 3.39-2.51 5.188-1.45 3.643-2.686 7.364-4.07 11.032-.689 1.827-1.375 3.661-1.828 5.564a65.871 65.871 0 01-1.587 5.623c-.615 1.844-1.289 3.668-1.922 5.506-.617 1.781-1.081 3.631-1.922 5.324-.869 1.748-1.957 3.402-2.995 5.053-.995 1.583-1.998 3.173-3.09 4.694-1.706 2.384-3.817 4.554-6.587 5.7-.734.303-1.482.46-2.239.678-.69.199-1.377.619-1.983.988-1.125.682-2.144 1.548-2.904 2.621-1.819 2.571-1.755 6.057-1.326 9.059.267 1.86.876 3.694 1.289 5.529.393 1.745.8 3.508 1.532 5.152 1.349 3.022 3.642 5.478 5.924 7.84 2.408 2.493 4.772 4.92 7.676 6.862 2.937 1.963 6.021 3.743 9.298 5.076zm126.237-8.479c.014.018.113.105.115.127-.4-.432-.744-.906-1.132-1.346-.46-.521-.979-.894-1.553-1.279a139.082 139.082 0 01-3.468-2.405 172.563 172.563 0 01-6.729-5.083c-4.369-3.467-8.571-7.121-12.399-11.177-1.808-1.918-3.601-3.867-5.678-5.511-1.009-.799-1.917-1.639-2.696-2.665-.758-1.001-1.33-2.103-1.977-3.172a26.965 26.965 0 00-4.78-5.824c-.957-.885-1.768-1.888-2.615-2.874-.798-.927-1.552-2.206-2.681-2.764-.975-.481-1.957-.155-2.681.578-.984 1.004-1.877 2.126-2.795 3.191-1.706 1.979-3.279 4.052-5.137 5.898-3.719 3.694-8.185 6.513-12.556 9.386-4.552 2.993-9.226 5.726-14.146 8.086-4.703 2.255-9.537 4.307-14.615 5.6a49.518 49.518 0 01-3.972.842c-.6.1-1.103.185-1.436.737-.33.541-.336 1.357-.43 1.977-.433 2.808-.694 5.648-1.337 8.418-.14.606-.373 1.216-.458 1.831-.093.664-.057 1.367-.105 2.038-.107 1.484-.204 2.968-.315 4.452a141.54 141.54 0 01-.924 8.632c-.39 2.879-.616 5.749-.758 8.652-.14 2.935-.437 5.831-.815 8.742a820.562 820.562 0 01-1.17 8.557c-.4 2.871-.893 5.745-1.192 8.628-.06.588-.052 1.179-.052 1.769 0 .185-.112.717-.006.854.105.143.958.229 1.155.276 1.445.346 2.89.695 4.335 1.043a551.56 551.56 0 008.277 1.945c2.745.617 5.508 1.152 8.224 1.889 1.397.379 2.751.862 4.123 1.312 1.321.432 2.674.739 4.024 1.047 5.738 1.307 11.499 2.514 17.22 3.89 5.661 1.363 11.333 2.685 16.99 4.048 2.887.695 5.751 1.472 8.625 2.218 2.797.727 5.643 1.629 8.518 1.955 2.827.321 5.611.779 8.383 1.438 2.772.658 5.495 1.497 8.25 2.226 5.605 1.484 11.333 2.363 16.983 3.63 2.779.622 5.489 1.469 8.257 2.137 2.785.674 5.605 1.215 8.417 1.756 2.752.529 5.508 1.06 8.236 1.703.249-3.693.456-7.387.694-11.08.243-3.804.74-7.568 1.261-11.34 1.031-7.515 1.738-15.089 2.458-22.642.356-3.707.768-7.393 1.225-11.088.227-1.818.229-3.628.35-5.453.125-1.875.445-3.731.858-5.561.394-1.742.865-3.401.731-5.214a11.709 11.709 0 00-.315-1.964c-.079-.325-.054-.346-.317-.513-.684-.44-1.752-.479-2.522-.611-3.732-.639-7.449-1.275-11.142-2.112-2.008-.454-4.009-.961-5.932-1.706-1.927-.746-3.798-1.669-5.66-2.567a162.367 162.367 0 01-5.523-2.799c-.947-.503-1.882-1.027-2.825-1.533-.921-.494-1.906-.821-2.865-1.225zM62.926 263.674c-1.273.6-.836 2.221-.746 3.333.123 1.49.253 2.98.426 4.465.161 1.347.344 2.662.872 3.929.25.603.553 1.184.905 1.737.295.47.622 1.14 1.17 1.342.32.119.457.204.599-.144.109-.262.173-.536.174-.82.006-.621-.27-1.171-.555-1.71-.626-1.188-1.087-2.438-1.438-3.727-.361-1.313-.622-2.648-.895-3.977-.258-1.233-.791-2.564-.657-3.821.046-.422.078-.718.272-1.093.19-.37.384-.739.577-1.108.383-.74.767-1.479 1.142-2.22.344-.669.893-1.445 1.082-2.172.128-.492-.066-1.077-.1-1.576-1 1.091-1.824 2.339-2.348 3.725-.237.624-.411 1.27-.534 1.926-.059.298-.106.598-.143.899-.054.433.04.612.197 1.012zm.401 147.412c-1.853.239-3.592-.264-5.023-1.469-.641-.538-1.196-1.165-1.726-1.806-.6-.724-1.241-1.438-1.545-2.339-.356-1.058-.333-2.247-.474-3.342-.151-1.19-.326-2.374-.485-3.565-.323-2.456-.53-4.905-.37-7.373.157-2.503.506-4.976.573-7.483.032-1.21.151-2.413.228-3.619.079-1.225.059-2.444.069-3.668.019-2.513.132-5.028.449-7.521.16-1.258.426-2.497.598-3.752.165-1.208.17-2.409.194-3.626.054-2.473.348-4.929.593-7.387a133.5 133.5 0 00.52-7.562c.112-2.534.189-5.069.289-7.603.046-1.192.08-2.288.339-3.452a47.38 47.38 0 00.66-3.628c.36-2.471.57-4.96.825-7.444.131-1.261.27-2.521.45-3.774.158-1.099.426-2.227.401-3.344-.013-.759-.268-1.526-.923-1.982-.376-.263-.825-.34-1.242-.514a5.093 5.093 0 01-1.205-.724c-.747-.598-1.316-1.369-1.886-2.124-.617-.822-1.146-1.665-1.354-2.682-.455-2.235.853-4.117 1.737-6.054 1.003-2.185 1.787-4.468 2.793-6.646.475-1.024 1.183-1.98 1.753-2.956.584-1.011 1.186-2.015 1.708-3.06.957-1.905 1.56-3.973 2.649-5.813.524-.885 1.16-1.706 1.94-2.386-1.191-1.311-2.53-2.48-3.433-4.019-.864-1.467-1.458-3.08-1.906-4.71a23.205 23.205 0 01-.459-10.475c.558-2.94 1.508-6.311 3.749-8.436.473-.448.987-.85 1.529-1.216.309-.209.628-.406.95-.594.367-.213.946-.389 1.246-.674.214-.203.19-.102.064-.408-.04-.099-.077-.216-.133-.31-.177-.293-.495-.479-.757-.697a18.112 18.112 0 01-1.657-1.579 16.072 16.072 0 01-3.746-6.976c-.344-1.372-.498-2.765-.567-4.172-.093-1.856-.28-3.715-.194-5.573.08-1.739.455-3.444.741-5.155.02-.114.165-.577.113-.675-.046-.085-.333-.185-.424-.237-.34-.192-.676-.389-1.02-.572-.85-.451-1.756-.805-2.627-1.224-3.2-1.542-6.263-3.392-9.21-5.364-1.443-.963-2.638-2.18-3.814-3.438a298.71 298.71 0 01-3.886-4.234c-1.2-1.336-2.508-2.654-3.554-4.111-1.002-1.39-1.7-2.992-2.323-4.571-1.259-3.185-2.047-6.528-2.556-9.899-.259-1.722-.472-3.45-.222-5.181.194-1.335.564-2.646 1.16-3.857 1.112-2.259 2.987-4 5.237-5.132 1.391-.699 2.875-.955 4.315-1.507 1.4-.538 2.473-1.499 3.422-2.624 2.114-2.512 4.098-5.147 5.76-7.979 1.672-2.845 2.901-5.836 3.852-8.989 1.08-3.564 2.2-7.116 3.338-10.661.566-1.76 1.1-3.538 1.718-5.281.622-1.754 1.396-3.449 2.01-5.206.612-1.747 1.185-3.507 1.778-5.26.542-1.606 1.031-3.259 1.746-4.798.72-1.549 1.927-2.774 2.603-4.347.633-1.476 1.29-2.915 2.139-4.282a28.255 28.255 0 013.016-3.983c-2.197-.47-4.232-1.418-6.175-2.524-1.77-1.008-3.57-2.012-5.018-3.463-3.019-3.025-4.773-7.37-5.697-11.444-.475-2.092-.73-4.226-.833-6.364-.109-2.303-.1-4.646-.05-6.948a19.36 19.36 0 01.428-3.57c.231-1.099.873-2.118 1.01-3.225.071-.586-.093-1.163-.182-1.74a28.312 28.312 0 01-.215-1.796 36.668 36.668 0 01-.117-3.712c.067-4.88.65-9.686 2.26-14.301 1.497-4.299 3.703-8.383 6.265-12.142a58.96 58.96 0 014.105-5.333c.733-.842 1.504-1.644 2.261-2.46.665-.714 1.265-1.272 2.313-1.025.219.052.432.132.637.22.358.154.348.138.629-.134a25.75 25.75 0 011.214-1.118 36.811 36.811 0 012.662-2.098c1.813-1.304 3.718-2.476 5.622-3.646.938-.575 1.856-1.19 2.817-1.721 1.004-.553 2.06-1 3.11-1.463 2.03-.898 3.857-2.187 5.943-2.954 2.06-.755 4.229-1.155 6.362-1.654.39-.092.46-.2.672.162l.438.753.449.762c.109.186.334.807.521.892.127.059.706-.207.854-.251.287-.083.574-.166.858-.25a94.737 94.737 0 001.717-.513c4.81-1.491 9.498-3.335 14.366-4.653 1.224-.332 2.458-.637 3.688-.937 1.187-.29 2.394-.68 3.614-.815a5.3 5.3 0 011.516.032c.258.046.514.114.766.183.207.056.749.106.904.242.169.15.283.607.38.81.122.263.226.56.376.809.349.587.898.55 1.525.578 5.069.229 10.054-.396 15.103-.61 2.524-.106 5.078.21 7.592.46 1.285.128 2.566.264 3.851.39.466.045.943.057 1.354.303.495.295.946.618 1.475.858 1.942.883 4.097 1.03 6.168 1.422 1.052.2 2.08.634 3.14.737 1.15.113 2.292-.082 3.42-.258 2.284-.357 4.573-.738 6.794-1.386 1.134-.331 2.28-.715 3.338-1.239 1.035-.511 1.94-1.234 2.894-1.868.445-.293.9-.574 1.355-.848.431-.263.998-.709 1.502-.802.897-.165 1.505 1.18 1.147 1.849-.501.921-1.638 1.516-2.473 2.084-1.044.711-2.084 1.426-3.132 2.137a217.579 217.579 0 01-6.228 4.117c-2.083 1.313-4.259 2.476-6.428 3.641-1.011.544-2.004 1.143-3.078 1.567-1.093.434-2.261.721-3.388 1.064-2.265.687-4.538 1.366-6.836 1.94-2.337.584-4.706 1.06-7.104 1.33-2.44.272-4.898.358-7.336.609-2.465.254-4.926.557-7.391.806.55.135 1.092.127 1.515.557.399.404.54.852.195 1.313-.354.47-.767.467-1.329.484-.82.026-1.64-.008-2.457-.06-1.451-.092-2.903-.224-4.355-.163-.742.032-1.473.171-2.215.207-.723.035-1.448-.041-2.167-.14-1.416-.196-2.833-.331-4.246-.515-1.398-.181-2.706-.544-4.127-.53-2.753.029-5.395.86-8.018 1.566-1.407.378-2.44 1.091-3.587 1.952a883.965 883.965 0 00-3.678 2.787l-3.483 2.66c-.922.705-2.279 1.402-2.667 2.566-.176.523-.157 1.072-.371 1.59-.27.657-.7 1.193-1.169 1.72-.849.965-1.61 2.01-2.262 3.12-1.275 2.168-2.117 4.562-2.617 7.023-.573 2.81-.974 5.87-.254 8.695.784 3.07 2.338 5.762 3.849 8.523 1.297-1.445 2.641-2.848 3.89-4.334 1.18-1.404 2.408-2.68 3.951-3.705 3.128-2.082 6.563-3.809 10.093-5.123 3.726-1.385 7.66-2.366 11.545-3.213 3.94-.858 8.003-1.573 12.062-1.444.85.027 1.791.282 2.606 0a13.138 13.138 0 012.819-.641c1.905-.217 3.825-.072 5.734.028 2.037.108 4.092.318 6.13.272a55.236 55.236 0 016.338.237c4.084.375 8.205.745 12.218 1.606 4.032.864 8.166.902 12.235 1.542 2.095.33 4.167.698 6.271.954 2.112.257 4.22.51 6.333.754 4.233.488 8.464.917 12.713 1.21 4.219.293 8.418.69 12.618 1.175 2.116.245 4.232.5 6.348.753 2.052.246 4.099.559 6.161.683 3.924.237 7.721 1.371 11.374 2.79 1.827.71 3.627 1.49 5.423 2.265 1.767.76 3.332 1.72 4.857 2.883 5.827 4.445 11.107 9.393 15.142 15.525 2.033 3.087 3.875 6.37 5.181 9.82a31.209 31.209 0 011.486 5.391c.345 1.87 1.259 3.545 1.833 5.352 1.149 3.606 1.634 7.362 2.228 11.078.636 3.983 1.641 7.901 2.624 11.816.456 1.814 1.207 3.504 1.834 5.265.611 1.715 1.207 3.446 2.074 5.056.443.823 1.014 1.572 1.437 2.406.434.854.673 1.755.982 2.655.59 1.743 1.407 3.404 2.34 4.996.92 1.566 1.952 3.063 2.987 4.555 1.131 1.63 2.137 3.336 3.136 5.044.994 1.688 2.019 3.352 3.028 5.028.982 1.639 1.987 3.268 3.202 4.755 2.607 3.196 5.065 6.499 7.511 9.814 1.22 1.65 2.423 3.31 3.712 4.907 1.244 1.543 2.626 2.964 3.894 4.485 2.299 2.754 4.083 5.879 5.58 9.115 1.559 3.371 3.304 7.002 3.268 10.77-.019 1.879-.448 3.718-1.122 5.461-.338.868-.73 1.714-1.154 2.542-.403.788-.787 1.679-1.366 2.357-.588.692-1.389 1.168-2.139 1.666-.865.573-1.731 1.144-2.6 1.714a439.921 439.921 0 01-5.229 3.382c-.852.544-1.696 1.133-2.592 1.615-.782.422-1.637.69-2.482.964-.931.302-1.868.556-2.816.794-.244.061-.554.093-.782.198-.276.128-.205.137-.151.451.074.435.179.671.422 1.038 2.013 3.002 2.81 6.732 3.258 10.244.512 4.021-.004 8.062-1.113 11.929-.25.875-.523 1.745-.972 2.542-.431.769-1.069 1.38-1.377 2.22-.318.866-.282 1.761-.244 2.67.043 1.042.104 2.085.154 3.127.184 3.91.013 7.85-.938 11.652-.856 3.431-2.106 7.083-5.378 8.893-1.584.875-3.175 1.747-4.87 2.4-1.804.695-3.634.916-5.523 1.263-1.95.36-3.859.899-5.736 1.516-.939.307-1.867.633-2.797.966l-1.328.484c-.226.083-.422.114-.532.301-.129.221-.14.674-.19.919-.408 1.99-.819 3.979-1.222 5.971-.403 1.978-.901 3.972-1.068 5.989-.171 2.067-.165 4.146-.356 6.214a128.011 128.011 0 01-.749 6.208c-.585 4.135-.959 8.292-1.406 12.447-.445 4.149-.956 8.304-1.143 12.476-.179 4.139-.799 8.235-1.414 12.323-.627 4.133-1.069 8.285-1.534 12.44-.462 4.152-1.069 8.282-1.684 12.413-.307 2.063-.641 4.126-.888 6.197-.123 1.032-.077 2.072-.113 3.108-.042 1.048-.189 2.093-.302 3.135-.443 4.165-1.051 8.3-1.573 12.454-.529 4.191-.881 8.406-1.193 12.624-.61 8.329-1.28 16.691-2.805 24.906-.753 4.059-1.854 8.07-2.812 12.087-.371 1.558-.882 2.916-2.301 3.816-.744.472-1.607.741-2.419 1.068-.928.372-1.853.745-2.791 1.09-1.876.69-3.804 1.233-5.695 1.881-1.891.648-3.774 1.326-5.659 1.993-1.885.664-3.78 1.311-5.692 1.893a77.64 77.64 0 01-2.89.819c-.469.118-.937.237-1.408.343-.487.113-.91.378-1.359.588-1.676.783-3.428 1.403-5.21 1.918-.919.264-1.848.498-2.779.717-.228.054-.514.076-.734.169-.271.11-.251.194-.329.49-.132.501-.265 1.002-.401 1.503-.522 1.956-1.083 3.889-1.464 5.881-.389 2.035-.657 4.089-.892 6.146-.222 1.953-.635 4.009-.483 5.974.163 2.06.167 4.116.053 6.173-.234 4.199-.591 8.376-.682 12.584-.176 8.391-1.04 16.716-1.551 25.085-.511 8.416-.932 16.838-1.707 25.231-.185 2.016-.328 4.055-.697 6.044-.362 1.948-.866 3.864-1.224 5.813-.325 1.779-.632 3.564-.939 5.348l-.241 1.394c-.078.446-.077 1.023-.345 1.384-.372.502-1.018.892-1.597 1.113-.762.29-1.563.299-2.366.162-.982-.168-1.993.099-2.974.182-2.056.165-4.121.126-6.184.144-2.077.017-4.133.23-6.208.307-2.09.075-4.185.023-6.278 0-4.183-.04-8.36.163-12.542.156-4.103-.011-8.076-.53-11.996-1.82-3.567-1.175-6.923-2.919-9.992-5.072-1.418-.994-2.754-2.06-3.838-3.424-.974-1.231-1.735-2.615-2.32-4.061-1.374-3.395-1.924-6.958-1.714-10.59.06-1.002.158-2.004.271-3.001.11-.968.15-1.994.391-2.938.335-1.299 1.199-2.86 2.732-2.889.85-.013 1.68.262 2.543.224a9.047 9.047 0 002.527-.5c1.704-.586 3.219-1.59 4.879-2.281 1.691-.7 3.474-1.193 5.31-1.347 1.049-.092 2.306-.086 2.699-1.252.211-.633.187-1.35.204-2.015.026-1.039.036-2.083.047-3.127.022-2.053.082-4.1.191-6.15.22-4.215.471-8.428.71-12.645.477-8.413 1.04-16.851 1.151-25.286.027-2.065-.048-4.131-.051-6.199-.005-2.045.33-4.082.469-6.121.141-2.032.279-4.064.417-6.096.071-1.035.137-2.066.208-3.101l.102-1.511c.014-.216.124-.622.057-.819-.077-.216-.384-.267-.637-.361-7.529-2.829-15.436-4.471-22.955-7.336-.243 1.382-.52 2.754-.688 4.147-.192 1.63-.279 3.273-.388 4.911-.107 1.668-.204 3.337-.312 5.005-.1 1.579.137 3.109.215 4.682.164 3.228-.08 6.449-.372 9.658-.3 3.253-.607 6.506-.895 9.756-.589 6.654-1.159 13.309-1.793 19.958a409.478 409.478 0 01-2.359 19.607c-.464 3.227-.928 6.454-1.28 9.695-.354 3.229-.366 6.483-.796 9.705-.216 1.602-.444 3.218-.743 4.805-.207 1.082-.669 2.088-1.489 2.841-.93.844-2.199 1.298-3.348 1.77-1.326.549-2.701 1-4.136 1.18-1.6.195-3.23.245-4.836.383-1.633.136-3.263.287-4.897.438-1.627.151-3.262.358-4.894.445-.701.037-1.413-.144-2.103-.229a42.266 42.266 0 00-2.576-.235c-3.355-.205-6.721-.089-10.072-.387-3.25-.292-6.465-.859-9.683-1.385-2.995-.49-5.983-.871-8.893-1.773a35.192 35.192 0 01-7.848-3.554c-1.258-.77-2.462-1.614-3.746-2.341-1.235-.697-2.404-1.444-3.33-2.525-1.631-1.893-2.326-4.342-2.761-6.734-.277-1.508-.383-3.023-.404-4.553-.023-1.552-.089-3.131-.028-4.684.045-1.28.567-2.457 1.43-3.401.97-1.061 1.98-2.193 3.084-3.119 1.022-.862 2.075-.904 3.307-.451 1.485.555 3.061.732 4.635.756 1.472.022 3.127.124 4.545-.301 1.434-.427 2.748-1.158 4.202-1.561a22.026 22.026 0 014.396-.737c.7-.045 1.403-.063 2.106-.048.655.011 1.486.135 2.115-.103.36-.136.123.026.222-.257.065-.185.02-.504.028-.698l.04-1.161.095-2.534c.057-1.601.118-3.202.17-4.8.227-6.485.351-12.974.502-19.462.077-3.348.16-6.696.433-10.034.126-1.565.395-3.17.396-4.735.005-1.617.093-3.231.223-4.841.263-3.219.687-6.419.916-9.642.228-3.256.08-6.512.169-9.773.09-3.325.308-6.642.537-9.958.113-1.637.23-3.274.33-4.913.076-1.18.431-3.005-.697-3.831-.49-.359-1.154-.566-1.726-.757-.815-.272-1.638-.527-2.457-.797-1.56-.513-3.12-1.033-4.684-1.546-3.12-1.026-6.246-2.034-9.412-2.922-3.072-.868-6.105-1.807-9.047-3.061-2.57-1.095-4.94-2.566-6.12-5.197-.592-1.32-.486-2.558-.47-3.949.024-1.56-.192-3.115-.101-4.672.18-3.234.479-6.469.881-9.682.364-2.881.964-5.736.827-8.658z" fill="url(#paint0_linear)"/><path d="M141.451 237.61c-.109-.042-.301-.144-.428-.164-.373-.057-.124-.102-.326.11-.19.195-.324.527-.46.76a19.723 19.723 0 00-.866 1.607c-.515 1.071-1.208 2.047-1.824 3.062a96.343 96.343 0 00-3.521 6.342 124.989 124.989 0 00-3.1 6.561c-.461 1.052-.861 2.147-1.424 3.15-.602 1.072-1.205 2.142-1.804 3.217-.595 1.075-1.176 2.161-1.778 3.234-.164.296-.375.599-.306.957.026.143.194.533.352.579.137.041.656-.295.789-.356.931-.432 1.938-.585 2.884-.972a7.599 7.599 0 002.121-1.304c1.278-1.111 2.131-2.609 2.773-4.153.372-.9.592-1.817.891-2.736.398-1.205.8-2.409 1.201-3.612.896-2.698 1.799-5.395 2.621-8.117.809-2.7 1.47-5.443 2.205-8.165zm15.729 41.26c-.395-.346-.564-.534-1.089-.676a24.798 24.798 0 01-1.672-.516 31.588 31.588 0 01-3.113-1.279c-2.076-.977-4.062-2.133-6.04-3.289a920.759 920.759 0 01-6.325-3.732c-1.055-.626-2.107-1.252-3.162-1.877l-1.462-.869c-.316-.188-.455-.342-.802-.26-.292.07-.585.228-.866.337-2.545.985-5.089 1.971-7.634 2.955 1.043 1.878 2.782 2.816 4.656 3.721 2.133 1.028 4.291 2.062 6.495 2.918 4.319 1.677 8.9 2.555 13.505 2.826a58.87 58.87 0 003.895.094c.676-.004 1.35-.017 2.021-.047.557-.024 1.058-.185 1.593-.306zm3.637-2.59c-.324-1.474-.579-2.964-.929-4.433-.345-1.454-.832-2.872-1.331-4.284-.52-1.479-1.074-2.949-1.614-4.422a74.429 74.429 0 01-.692-1.992c-.24-.71-.644-1.309-1.005-1.964-1.418-2.584-2.224-5.446-3.054-8.25-.9-3.048-1.738-6.115-2.507-9.199-.388-1.556-.889-3.038-1.742-4.413-.904-1.454-1.569-3.002-2.335-4.527-.234.27-.529.513-.728.811-.228.341-.355.777-.481 1.163-.321.957-.432 1.979-.631 2.966a65.724 65.724 0 01-1.482 5.903c-.601 1.973-1.414 3.85-2.088 5.793-.656 1.901-.964 3.937-1.529 5.871a64.711 64.711 0 01-2.051 5.937c-.367.923-.606 1.851-.837 2.815-.033.13-.21.526-.163.644.046.126.529.365.654.454.439.309.874.624 1.321.923 1.729 1.158 3.656 2.064 5.487 3.046 1.931 1.035 3.867 2.064 5.791 3.107 2.057 1.113 4.097 2.122 6.307 2.891 1.076.374 2.162.713 3.249 1.05.387.119.772.3 1.178.284.405-.017.811-.13 1.212-.174zm-13.482-47.507c.204.416.47.758.534 1.221.077.574.14 1.135.286 1.699.288 1.131.75 2.209 1.249 3.263 1.036 2.179 2.034 4.312 2.742 6.621 1.443 4.709 2.256 9.544 4.136 14.129.458 1.127 1.026 2.204 1.504 3.321.475 1.108.879 2.256 1.303 3.385.887 2.381 1.743 4.781 2.603 7.172.826 2.296 1.181 4.719 1.565 7.113.324 2.013-.722 3.787-2.724 4.381-2.509.745-5.085.503-7.668.454-2.625-.05-5.26-.118-7.858-.549-5.101-.847-9.952-2.532-14.648-4.681-2.074-.948-4.175-1.906-5.93-3.385a12.558 12.558 0 01-2.119-2.282c-.268-.371-.721-.875-.692-1.326.035-.557.281-1.152.5-1.656.434-1.001 1.053-1.907 1.642-2.819a42.64 42.64 0 001.798-3.098c1.201-2.239 2.294-4.533 3.401-6.819 2.305-4.759 4.857-9.391 7.444-14.001 1.267-2.257 2.542-4.512 3.87-6.735.64-1.068 1.264-2.131 2.072-3.084.649-.769 1.35-1.699 2.268-2.166.844-.43 1.817-.41 2.722-.158z" fill="url(#paint1_linear)"/><path d="M189.012 243.399c.544-3.015-1.071-6.31-2.813-8.714a13.14 13.14 0 00-5.835-4.537c-2.418-.947-5.11-1.359-7.584-.484-2.321.82-4.276 2.583-5.287 4.811-.651 1.435-.99 3.068-1.362 4.594a25.178 25.178 0 00-.67 4.274c-.148 2.334.114 4.738 1.184 6.863 1.155 2.29 3.232 4.154 5.533 5.279 1.437.704 3.005 1.192 4.614 1.143 1.26-.038 2.455-.426 3.589-.943 4.854-2.22 8.507-6.859 8.631-12.286zm2.497.353c.07 6.055-4.404 11.567-9.787 14.024-5.525 2.521-11.926.53-15.642-4.156-1.881-2.37-2.888-5.171-3.079-8.154-.119-1.892.211-3.598.682-5.411.42-1.614.767-3.251 1.316-4.828.541-1.555 1.346-2.987 2.277-4.337.399-.575 1.199-.936 1.787-1.295a25.474 25.474 0 011.99-1.097c1.39-.683 2.864-1.214 4.403-1.466.754-.123 1.518-.18 2.283-.165.773.015 1.741 0 2.43.378 2.84 1.553 5.977 3.195 7.847 5.919 1.136 1.658 1.987 3.6 2.814 5.422.754 1.658 1.107 3.377.679 5.166z" fill="url(#paint2_linear)"/><path d="M101.672 233.714c-.209 4.578 1.381 8.78 4.851 11.887.862.771 1.794 1.548 2.867 2.006 1.262.539 2.614.579 3.949.381 2.16-.322 4.152-1.256 5.729-2.746 1.634-1.544 2.849-3.583 3.652-5.669.511-1.331.688-2.603.518-4.022a21.953 21.953 0 00-.766-3.751c-1.467-4.86-5.146-9.146-10.264-10.318-3.08-.706-5.808 1.175-7.377 3.664-1.639 2.601-2.542 5.575-3.159 8.568zm24.135 3.372c-.434 4.929-3.917 9.783-8.295 12.034-2.595 1.334-5.932 1.87-8.753.867-1.53-.544-2.753-1.61-3.928-2.69-1.137-1.046-2.195-2.188-3.064-3.462-1.869-2.739-2.911-6.301-2.594-9.59.18-1.866.954-3.632 1.567-5.385.583-1.663 1.216-3.329 2.141-4.835 1.374-2.226 3.428-4.058 6.025-4.718 2.407-.613 4.955-.143 7.15.987 2.499 1.287 4.732 3.282 6.325 5.58 1.781 2.57 2.531 5.415 3.002 8.447.146.921.282 1.843.424 2.765z" fill="url(#paint3_linear)"/><path d="M186.74 214.574c-.351.879-.526 2.083-1.799 1.737a5.267 5.267 0 01-1.313-.581c-.519-.318-.909-.837-1.398-1.202-1.772-1.315-3.956-1.594-6.099-1.472-.521.03-1.045.08-1.565.139-.558.063-1.19.253-1.751.211-.464-.036-.985-.329-1-.831-.015-.542.432-.81.831-1.084.977-.671 2.204-.863 3.373-.985 1.134-.119 2.293-.078 3.412.176 1.358.308 2.566.933 3.692 1.74 1.186.85 2.481 1.52 3.727 2.276-.042-.032-.076-.087-.11-.124z" fill="url(#paint4_linear)"/><path d="M104.675 203.928c.344-.889 1.523-1.502 2.385-1.835.917-.353 1.896-.5 2.872-.582.989-.082 1.986-.096 2.971-.187 1.277-.116 2.37-.098 3.596.356a15.71 15.71 0 011.714.78c.548.285 1.173.495 1.377 1.124.379 1.185-.843 1.591-1.825 1.29-.558-.171-1.081-.528-1.627-.742a11.38 11.38 0 00-1.894-.559 10.964 10.964 0 00-3.582-.112c-1.387.182-2.716.614-3.985 1.178-.285.127-.59.313-.913.214-.414-.127-.8-.639-1.089-.925z" fill="url(#paint5_linear)"/><path d="M188.12 391.932c.007-.029.009-.063.016-.092.025.1-.096.47-.092.606.01.334.043.67.064 1.005.039.67.082 1.34.163 2.006.129 1.094.259 2.225 1.309 2.841.884.523 1.972.551 2.708-.202.811-.832 1.271-2.137 1.728-3.181 1.11-2.527 1.347-5.253.628-7.949-.502-1.889-2.407-2.697-4.034-1.514-2.11 1.534-2.144 4.135-2.49 6.48zm9.058-.783c-.136 1.777-.608 3.505-1.329 5.127-.651 1.464-1.407 3.091-2.823 3.965-.594.369-1.323.673-2.03.751-.79.081-1.514-.221-2.2-.583-1.167-.623-2.127-1.549-2.568-2.806-.269-.77-.312-1.578-.371-2.381a40.73 40.73 0 01-.129-2.965c-.001-1.82.144-3.753.863-5.443 1.044-2.464 3.889-4.641 6.724-4.238 3.883.553 3.82 5.703 3.863 8.573z" fill="url(#paint6_linear)"/><path d="M197.05 354.508c.014-1.218.209-2.523.01-3.734-.126-.761-.847-1.252-1.612-1.205-.986.06-1.627 1.224-2.108 1.948-.679 1.023-1.106 2.162-1.72 3.219-.579.996-1.081 1.984-1.091 3.166-.005.561.117 1.092.281 1.627.179.59.254 1.186.352 1.792.129.824.39 1.87 1.416 1.926.942.051 1.868-.749 2.405-1.429 1.59-2.009 1.659-4.894 2.067-7.31zm2.229-1.078c.079 1.923-.26 3.819-.806 5.654-.451 1.525-.902 3.169-1.94 4.413-1.576 1.887-5.357 3.461-6.875.625-.384-.717-.425-1.456-.577-2.232-.189-.959-.557-1.827-.626-2.819-.131-1.898.327-3.763.84-5.569.433-1.528 1.116-2.874 2.262-4 .948-.932 2.283-1.967 3.657-2.134 1.319-.161 2.67.447 3.51 1.459.455.55.756 1.213.872 1.914.156.948-.124 1.776-.317 2.689z" fill="url(#paint7_linear)"/><path d="M196.669 329.631c1.505-.758 3.054-1.491 3.431-3.254.279-1.312.477-2.648.666-3.975.173-1.215.53-2.608.405-3.836-.209-2.01-2.579-2.874-4.067-1.557-.837.739-1.095 2.031-1.437 3.047-.381 1.128-.599 2.249-.727 3.431-.246 2.282-.118 4.493 1.729 6.144zm6.868-9.001c-.59 3.146-.644 6.866-3.033 9.278-.905.916-2.209 1.855-3.503 2.123-1.522.317-2.575-.681-3.216-1.949-1.575-3.12-1.31-6.546-.376-9.783.41-1.425.723-3.155 1.688-4.328a5.058 5.058 0 013.092-1.768c1.607-.25 3.23.4 4.284 1.628.531.618.859 1.37.99 2.165.073.451.081.902.051 1.356-.019.27-.246 1.226.023 1.278z" fill="url(#paint8_linear)"/><path d="M84.27 299.481c-.077 1.509-.09 3.053.765 4.374.46.711 1.138 1.374 2.057 1.066.852-.285 1.637-1.265 1.99-2.051.93-2.096 1.45-4.446.954-6.733-.277-1.275-1.478-4.09-3.26-2.805-.415.298-.6.759-.79 1.211-.25.608-.479 1.224-.693 1.845-.357 1.025-.67 2.067-1.024 3.093zm8.528-.778c-.52 1.662-.959 3.35-1.567 4.984-.495 1.324-1.266 2.4-2.534 3.092-1.062.584-2.6 1.106-3.776.511-1.14-.579-1.936-2.034-2.457-3.142-.614-1.309-.863-2.745-.609-4.165.143-.809.412-1.598.607-2.396.223-.91.427-1.826.713-2.719.757-2.379 2.609-4.818 5.463-4.11 3.426.848 3.811 5.113 4.16 7.945z" fill="url(#paint9_linear)"/><path d="M84.952 353.68c-1.585.457-3.082 1.26-3.897 2.734-.484.87-.692 1.87-.848 2.845-.192 1.173-.328 2.462-.2 3.651.09.836.516 1.538 1.152 2.087.55.476 1.326 1.031 2.101.941.806-.095 1.23-.878 1.52-1.539a13.28 13.28 0 00.98-3.528c.184-1.308.196-2.636.12-3.955-.04-.661-.063-1.35-.183-2.002-.087-.496-.469-.824-.745-1.234zm3.421 5.61c.015 1.789-.447 3.528-1.12 5.17-.522 1.282-1.127 2.644-2.427 3.316-2.289 1.185-5.428-.519-6.625-2.565-.637-1.085-.793-2.349-.73-3.577.082-1.624.336-3.316.89-4.846.905-2.476 2.81-4.278 5.343-5.077.773-.244 1.583-.429 2.344-.025.717.381 1.252 1.186 1.634 1.876.467.845.517 1.66.538 2.598.027 1.044.103 2.086.153 3.13z" fill="url(#paint10_linear)"/><path d="M82.595 330.959c-.062.432-.17.859-.216 1.294-.054.467.027.944.072 1.411.085.898.076 2.231.662 2.98.52.664 1.391.651 2.082.305.98-.491 1.49-1.303 1.95-2.255a10.65 10.65 0 00.976-6.028c-.19-1.444-1.262-4.09-3.21-3.428-.992.338-1.489 1.538-1.765 2.452-.323 1.065-.38 2.176-.55 3.269zm1.117-7.911c1.366-.094 2.832-.022 4.035.716 1.25.767 2.11 2.222 2.484 3.598.916 3.377-.003 6.708-1.736 9.632-.766 1.297-1.684 2.287-3.27 2.468-1.264.143-2.614-.141-3.558-1.035-1.102-1.043-1.285-2.529-1.372-3.953-.056-.879-.051-1.759-.07-2.639-.015-.857.223-1.677.309-2.53.114-1.106.214-2.268.721-3.275.58-1.145 1.575-2.071 2.457-2.982z" fill="url(#paint11_linear)"/><path d="M235.29 324.594c2.271.939 4.481 1.907 6.882 2.464 1.219.282 2.446.518 3.655.826 1.265.322 2.495.703 3.791.885 2.554.357 5.138.207 7.693-.037 1.241-.119 2.547-.157 3.747-.514.943-.281 2.113-.599 2.503-1.599.34-.883-.182-1.874-.501-2.702-.35-.912-.755-1.808-1.266-2.648-1.137-1.872-2.749-3.097-4.683-4.107a24.526 24.526 0 00-6.712-2.351 25.94 25.94 0 00-3.543-.429c-1.173-.062-2.464-.169-3.586.21-1.34.454-2.614 1.331-3.845 2.016a126.682 126.682 0 00-3.73 2.147c-.944.569-1.709 1.175-1.611 2.375.103 1.196.766 2.363 1.206 3.464zm16.568 116.391c-5.488 1.21-10.991 1.459-16.565.461a45.088 45.088 0 01-8.108-2.247c-1.304-.493-2.57-1.042-3.898-1.467-.348-.114-.7-.221-1.048-.331-.26-.08-.706-.326-.962-.309-.448.031-.813 1.189-.928 1.61-.31 1.122-.355 2.403-.33 3.567.024 1.175.26 2.358.878 3.385.725 1.201 1.712 2.31 2.582 3.412.843 1.063 1.668 2.292 2.729 3.153.978.801 2.466.868 3.659 1.183 1.324.352 2.658.714 4.026.8 1.421.088 2.856-.167 4.282-.188 1.305-.02 2.61-.081 3.876-.412 2.788-.724 4.847-3.055 6.568-5.207 1.767-2.204 3.293-4.479 3.239-7.41zm7.059-89.796c1.035.079 2.043.254 3.082.14 1.177-.13 2.333-.421 3.526-.419.904.002 1.739-.072 2.513-.567.658-.419 1.153-1.033 1.579-1.672.49-.737.994-1.449.751-2.376-.288-1.106-.642-2.195-.919-3.306-.535-2.151-1.013-4.321-1.766-6.413-.801-2.216-2.021-4.224-3.213-6.255-.106-.182-.296-.684-.465-.804-.183-.129-.422.045-.676.138-.58.212-1.172.388-1.77.538-1.121.28-2.265.462-3.409.61-1.152.149-2.313.259-3.465.405-1.209.152-2.405.322-3.62.129-2.389-.379-4.773-.807-7.134-1.344-2.659-.606-5.289-1.377-7.799-2.447-.932-.395-1.864-.844-2.591-1.556a4.558 4.558 0 01-.841-1.129c-.118-.227-.185-.478-.299-.704-.137-.266-.36-.42-.559-.639-1.075 1.242-1.949 2.665-3.156 3.796-.598.563-1.306.986-1.934 1.513a16.52 16.52 0 00-1.789 1.77c-1.107 1.256-2.098 2.621-3.065 3.983-1.008 1.423-1.946 2.93-2.468 4.603-.134.43-.205.687-.051 1.116.127.35.273.694.447 1.025a7.41 7.41 0 001.166 1.657c1.051 1.12 2.386 1.738 3.771 2.358 1.788.798 3.586 1.565 5.379 2.345.213.093.425.239.624.174.157-.053.342-.273.469-.382.315-.277.614-.576.887-.893.516-.589.957-1.236 1.369-1.898.978-1.569 1.912-3.163 2.911-4.719.244-.379.606-1.308 1.164-1.346.133-.008.262.044.379.098.267.124.286.169.228.412-.108.432-.411.88-.6 1.282-.41.868-.824 1.736-1.194 2.622-.313.746-.551 1.516-.97 2.213-.735 1.213-1.79 2.253-2.238 3.622-.05.15-.135.344-.133.503-.002.25.093.294.3.463.356.288.738.541 1.133.762.738.408 1.527.702 2.321.973a23.334 23.334 0 005.476 1.181c3.689.328 7.378-.221 10.964-.995.921-.199 1.835-.412 2.75-.631.318-.077.331-.098.41-.412.052-.212.108-.424.163-.635.112-.428.219-.858.282-1.296.286-1.934.37-3.911.539-5.858.051-.563.004-1.276.708-1.391.474-.078.468.367.562.745.103.407.179.817.24 1.231.235 1.65.169 3.323.107 4.981-.033.899-.069 1.799-.076 2.699zm-29.722-.65c-.215.805-.405 1.538-.5 2.369-.11 1.001-.227 2-.344 2.999-.224 1.922-.448 3.844-.642 5.769-.394 3.93-.543 7.878-.952 11.806-.825 7.878-2.228 15.682-3.323 23.523-.545 3.919-.985 7.851-1.414 11.784-.423 3.915-1.067 7.825-1.388 11.749-.164 1.972-.217 3.945-.256 5.924-.019 1.01-.034 2.02-.054 3.03-.02.928-.138 1.899-.032 2.823.045.413.097.886.216 1.282.088.274.165.3.422.462.22.136.436.28.661.405.839.47 1.794.77 2.689 1.118 1.767.685 3.49 1.49 5.271 2.135 3.582 1.296 7.369 1.947 11.165 2.083 1.876.065 3.757.011 5.623-.134 1.514-.117 2.953-.328 4.241-1.155 1.16-.741 2.265-1.934 2.763-3.219.304-.781.34-1.621.408-2.447.077-.975.215-1.948.33-2.919.458-3.919.908-7.836 1.351-11.756.892-7.867 1.772-15.731 2.509-23.612.739-7.905 1.406-15.816 2.13-23.722.357-3.889.695-7.784 1.293-11.644.148-.957.31-1.911.495-2.86.089-.468.25-.956.275-1.432.017-.303-.06-1.015-.288-1.115-.293-.13-.946.007-1.277.005-.444-.002-.886-.036-1.332-.063a28.608 28.608 0 00-2.824-.034c-3.857.142-7.547 1.342-11.4 1.441-3.804.096-7.391-.761-10.858-2.298-1.664-.738-3.3-1.539-4.958-2.297zm-2.255-1.672c-2.465-1.112-5.1-2.044-7.108-3.908-.91-.841-1.773-1.844-2.355-2.937-.634-1.195-.612-2.382-.085-3.596 1.061-2.44 2.311-4.828 3.895-6.975a21.941 21.941 0 012.596-2.945c.989-.93 2.05-1.772 2.99-2.753a23.749 23.749 0 002.522-3.102c.706-1.041 1.27-2.168 2.048-3.163a11.782 11.782 0 012.517-2.402c1.029-.72 2.185-1.245 3.251-1.91 1.098-.685 2.18-1.405 3.381-1.91.594-.251 1.217-.429 1.824-.649.776-.28 1.495-.302 2.317-.309 2.904-.022 5.847.133 8.66.945 1.443.417 2.755 1.051 4.094 1.713 1.106.545 2.2 1.063 3.191 1.797 1.722 1.27 3.06 2.961 3.981 4.87 1.005 2.077 1.424 4.271 1.85 6.508.114.591.244 1.183.467 1.746.282.717.73 1.369 1.079 2.057.66 1.303 1.244 2.642 1.907 3.944.654 1.287 1.017 2.633 1.311 4.033.314 1.481.648 2.957.985 4.433l.484 2.137c.075.328.213.69.234 1.025.018.289.045.242-.112.477l-.243.372c-.535.817-1.074 1.635-1.706 2.382-1.302 1.539-2.996 2.537-5.084 2.519-.197-.002-.774-.142-.914-.061-.148.09-.23.845-.278 1.018a71.02 71.02 0 00-.587 2.355 49.77 49.77 0 00-.818 4.455c-.836 6.193-1.209 12.473-1.79 18.696-.574 6.152-1.202 12.294-1.565 18.464-.367 6.213-1.333 12.368-2.171 18.528-.84 6.189-1.09 12.416-1.798 18.614-.304 2.651-.772 5.281-1.698 7.79-.945 2.552-2.358 4.739-4.132 6.793-1.718 1.987-3.306 3.997-5.784 5.11-1.295.583-2.679.592-4.078.697-1.564.117-3.127.229-4.695.263a26.073 26.073 0 01-9.095-1.392c-1.363-.465-2.362-1.474-3.277-2.535a87.02 87.02 0 01-2.907-3.577c-.84-1.088-1.888-2.199-2.349-3.511-.462-1.305-.288-2.571-.143-3.907.336-3.053.219-6.133.174-9.198-.092-6.18.432-12.368 1.232-18.482.811-6.207 1.325-12.452 2.268-18.639.938-6.143 2.26-12.232 2.94-18.412.681-6.203 1.22-12.427 1.815-18.639.282-2.943.556-5.88.759-8.829z" fill="url(#paint12_linear)"/><path d="M239.345 290.418l1.27.398.707.223c.301.094.445.089.566.363.291.639.487 1.554.336 2.241-.302 1.365-2.262 2.104-3.508 1.594-1.136-.464-2.179-1.921-2.345-3.114-.212-1.493.652-2.997 1.463-4.175 1.614-2.34 4.399-4.866 7.511-4.146a5.067 5.067 0 013.01 2.063c.832 1.219 1.003 2.851 1.279 4.262.35 1.788-.121 3.791-.6 5.514a16.18 16.18 0 01-1.954 4.406c-1.605 2.503-3.972 4.51-6.763 5.609-1.515.596-3.203.685-4.77.176-1.556-.506-2.87-1.597-3.982-2.762-2.023-2.116-3.24-4.81-3.595-7.684-.343-2.785-.307-5.693.748-8.312.58-1.439 1.259-2.94 2.264-4.135.997-1.183 2.284-2.089 3.638-2.835.688-.382 1.248-.064 1.99.051-1.415 1.443-2.936 2.799-4.086 4.469-1.288 1.874-2.202 3.967-2.465 6.24-.249 2.142-.142 4.597.517 6.672.576 1.799 1.754 3.309 3.141 4.577 1.528 1.395 3.301 2.186 5.372 1.575 1.7-.5 3.349-1.673 4.587-2.899 2.846-2.816 3.834-7.218 3.39-11.123-.112-.974-.276-2.231-.976-2.993-.579-.632-1.46-.665-2.249-.521-2.201.402-3.869 2.206-4.496 4.266z" fill="url(#paint13_linear)"/><path d="M241.724 261.426c.501-.116.943-.262 1.008-.861.047-.436-.302-1.055-.758-1.154-.446-.098-.723.338-.733.734-.015.5.221.881.483 1.281zm-2.509-4.843c.992-.062 1.732-.329 2.65.172a7.13 7.13 0 012.277 1.98c1.065 1.42 1.047 3-.281 4.216-.622.57-1.512 1.235-2.417 1.125-.95-.116-1.524-1.122-1.855-1.914-.344-.826-.347-1.743-.365-2.62-.017-.986.008-1.973-.009-2.959z" fill="url(#paint14_linear)"/><path d="M75.469 230.467c-.513 1.488-1.857 2.807-1.838 4.45.004.368-.003.817.373.937.37.116.732-.104 1.083-.183.69-.157 1.251.39 1.017 1.07-.487 1.409-2.458 1.701-3.565.855-1.204-.917-.84-2.927-.45-4.164a5.166 5.166 0 011.29-2.148c.277-.273.653-.655 1.027-.789.316-.113.733-.019 1.063-.028z" fill="url(#paint15_linear)"/><path d="M171.077 243.403c-.146 2.639 1.032 5.834 3.694 6.903 2.516 1.009 5.515-.121 6.963-2.288.824-1.233.971-2.563.963-4.014-.015-1.871-.035-3.829-.457-5.665-.578-2.516-3.161-4.532-5.675-3.056-2.91 1.711-5.18 4.717-5.488 8.12zm-2.666 1.125c.382-3.332 1.405-6.707 3.898-9.077 2.247-2.132 6.019-4.072 8.997-2.165.782.499 1.416 1.187 1.936 1.943.634.915.919 1.94 1.217 2.997.612 2.157.992 4.41.732 6.642-.249 2.136-1.06 4.402-2.65 5.906-1.524 1.443-3.643 2.123-5.73 2.281-2.536.194-4.457-1.061-6.093-2.885-1.342-1.498-2.699-3.551-2.307-5.642z" fill="url(#paint16_linear)"/><path d="M107.226 234.414c-.022 1.539.167 3.04.499 4.553.203.931.581 1.882 1.371 2.478 1.661 1.249 4.425.678 5.823-.65 1.787-1.695 2.485-4.791 1.932-7.148a7.48 7.48 0 00-1.669-3.246c-.778-.879-2.059-1.92-3.314-1.737-.654.095-1.311.595-1.84.961a8.082 8.082 0 00-1.428 1.235 5.453 5.453 0 00-1.374 3.554zm12.131 1.776c-.458 3.206-1.839 6.205-4.897 7.678-2.703 1.303-6.541.804-8.218-1.944-.48-.781-.738-1.72-1.003-2.585-.304-.986-.538-1.997-.626-3.023-.185-2.155.387-4.182 1.509-6.009a15.293 15.293 0 011.763-2.311c.561-.614 1.125-1.265 1.915-1.59 1.556-.64 3.482-.315 4.892.555 3.292 2.029 5.094 5.411 4.665 9.229z" fill="url(#paint17_linear)"/><defs><linearGradient id="paint0_linear" x1="198.046" y1="14.682" x2="146.088" y2="584.562" gradientUnits="userSpaceOnUse"><stop stop-color="#4E7CEC"/><stop offset="1" stop-color="#2F39D6"/></linearGradient><linearGradient id="paint1_linear" x1="146.177" y1="228.585" x2="141.411" y2="280.739" gradientUnits="userSpaceOnUse"><stop stop-color="#4E7CEC"/><stop offset="1" stop-color="#2F39D6"/></linearGradient><linearGradient id="paint2_linear" x1="178.693" y1="226.892" x2="175.772" y2="258.847" gradientUnits="userSpaceOnUse"><stop stop-color="#4E7CEC"/><stop offset="1" stop-color="#2F39D6"/></linearGradient><linearGradient id="paint3_linear" x1="113.848" y1="219.247" x2="110.994" y2="250.466" gradientUnits="userSpaceOnUse"><stop stop-color="#4E7CEC"/><stop offset="1" stop-color="#2F39D6"/></linearGradient><linearGradient id="paint4_linear" x1="179.58" y1="210.612" x2="179.108" y2="215.809" gradientUnits="userSpaceOnUse"><stop stop-color="#4E7CEC"/><stop offset="1" stop-color="#2F39D6"/></linearGradient><linearGradient id="paint5_linear" x1="112.408" y1="201.078" x2="112.013" y2="205.433" gradientUnits="userSpaceOnUse"><stop stop-color="#4E7CEC"/><stop offset="1" stop-color="#2F39D6"/></linearGradient><linearGradient id="paint6_linear" x1="192.173" y1="382.466" x2="190.482" y2="400.993" gradientUnits="userSpaceOnUse"><stop stop-color="#4E7CEC"/><stop offset="1" stop-color="#2F39D6"/></linearGradient><linearGradient id="paint7_linear" x1="194.656" y1="347.237" x2="192.967" y2="365.753" gradientUnits="userSpaceOnUse"><stop stop-color="#4E7CEC"/><stop offset="1" stop-color="#2F39D6"/></linearGradient><linearGradient id="paint8_linear" x1="198.797" y1="314.124" x2="197.151" y2="332.165" gradientUnits="userSpaceOnUse"><stop stop-color="#4E7CEC"/><stop offset="1" stop-color="#2F39D6"/></linearGradient><linearGradient id="paint9_linear" x1="88.032" y1="290.652" x2="86.484" y2="307.601" gradientUnits="userSpaceOnUse"><stop stop-color="#4E7CEC"/><stop offset="1" stop-color="#2F39D6"/></linearGradient><linearGradient id="paint10_linear" x1="83.695" y1="351.315" x2="82.163" y2="368.093" gradientUnits="userSpaceOnUse"><stop stop-color="#4E7CEC"/><stop offset="1" stop-color="#2F39D6"/></linearGradient><linearGradient id="paint11_linear" x1="86.064" y1="323.11" x2="84.567" y2="339.515" gradientUnits="userSpaceOnUse"><stop stop-color="#4E7CEC"/><stop offset="1" stop-color="#2F39D6"/></linearGradient><linearGradient id="paint12_linear" x1="247.611" y1="312.332" x2="234.548" y2="456.074" gradientUnits="userSpaceOnUse"><stop stop-color="#4E7CEC"/><stop offset="1" stop-color="#2F39D6"/></linearGradient><linearGradient id="paint13_linear" x1="239.712" y1="280.316" x2="237.349" y2="306.165" gradientUnits="userSpaceOnUse"><stop stop-color="#4E7CEC"/><stop offset="1" stop-color="#2F39D6"/></linearGradient><linearGradient id="paint14_linear" x1="242.237" y1="256.587" x2="241.551" y2="264.086" gradientUnits="userSpaceOnUse"><stop stop-color="#4E7CEC"/><stop offset="1" stop-color="#2F39D6"/></linearGradient><linearGradient id="paint15_linear" x1="74.396" y1="230.369" x2="73.695" y2="238.051" gradientUnits="userSpaceOnUse"><stop stop-color="#4E7CEC"/><stop offset="1" stop-color="#2F39D6"/></linearGradient><linearGradient id="paint16_linear" x1="177.81" y1="232.413" x2="175.922" y2="253.067" gradientUnits="userSpaceOnUse"><stop stop-color="#4E7CEC"/><stop offset="1" stop-color="#2F39D6"/></linearGradient><linearGradient id="paint17_linear" x1="112.757" y1="226.155" x2="111.075" y2="244.557" gradientUnits="userSpaceOnUse"><stop stop-color="#4E7CEC"/><stop offset="1" stop-color="#2F39D6"/></linearGradient></defs></svg>