<svg width="48" height="48" fill="none" xmlns="http://www.w3.org/2000/svg"><path fill-rule="evenodd" clip-rule="evenodd" d="M18.75 10.5a3 3 0 116 0v5.953a3.575 3.575 0 013.75.47 3.571 3.571 0 014.509.007l.12-.12a3 3 0 015.121 2.122V30a.75.75 0 01-1.5 0V18.932a1.5 1.5 0 00-2.56-1.06l-.44.439V24a.75.75 0 01-1.5 0v-5.729a2.064 2.064 0 00-3 0V24a.75.75 0 01-1.5 0v-5.729a2.064 2.064 0 00-3 0V24a.75.75 0 01-1.5 0V10.5a1.5 1.5 0 00-3 0v17.834c0 2.282-3.005 3.115-4.18 1.158l-2.878-4.798a1.152 1.152 0 00-2.001 1.142l6.751 12.463c.093.171.207.33.34.471l2.448 2.6a3.75 3.75 0 011.02 2.57v3.31a.75.75 0 01-1.5 0v-3.31a2.25 2.25 0 00-.612-1.542l-2.448-2.6a3.75 3.75 0 01-.567-.784L9.873 26.55a2.652 2.652 0 014.605-2.627l2.879 4.797c.391.653 1.393.375 1.393-.386V10.5zM37.5 33.75a.75.75 0 01.75.75v3.792a3.75 3.75 0 01-.396 1.677l-.867 1.733a2.25 2.25 0 00-.237 1.006v4.542a.75.75 0 01-1.5 0v-4.542c0-.582.136-1.156.396-1.677l.866-1.733a2.25 2.25 0 00.238-1.006V34.5a.75.75 0 01.75-.75z" fill="#D09D38"/><path fill-rule="evenodd" clip-rule="evenodd" d="M16.447 2.636a.75.75 0 010 1.06 7.5 7.5 0 000 10.607.75.75 0 01-1.061 1.061 9 9 0 010-12.728.75.75 0 011.06 0z" fill="#D09D38"/><path fill-rule="evenodd" clip-rule="evenodd" d="M23.335 4.788a4.5 4.5 0 00-5.482 6.462.75.75 0 11-1.3.75 6 6 0 1110.993-1.447.75.75 0 01-1.45-.388 4.5 4.5 0 00-2.76-5.377z" fill="#D09D38"/></svg>