<svg width="64" height="64" fill="none" xmlns="http://www.w3.org/2000/svg"><path fill-rule="evenodd" clip-rule="evenodd" d="M23.72 50.374A1 1 0 0124.5 50h15a1 1 0 01.977 1.216l-.002.006-.005.026-.023.112a18.507 18.507 0 00-.264 1.894c-.103 1.202-.082 2.508.252 3.392.243.642.752 1.315 1.46 1.983.7.66 1.54 1.267 2.364 1.786a25.35 25.35 0 003.072 1.639l.047.02.01.004.002.001A1 1 0 0147 64H17a1 1 0 01-.39-1.92l.002-.002.01-.004.047-.02.187-.084a25.35 25.35 0 002.885-1.555c.825-.52 1.665-1.125 2.364-1.786.708-.668 1.217-1.34 1.46-1.983.334-.883.355-2.19.253-3.391a18.507 18.507 0 00-.287-2.007l-.006-.026-.001-.006L24.5 51l.977-.216v.005l.003.011.008.038a12.679 12.679 0 01.116.622 20.387 20.387 0 01.206 1.624c.107 1.246.129 2.939-.374 4.27-.394 1.04-1.14 1.957-1.958 2.73-.774.73-1.661 1.376-2.503 1.916h22.05c-.842-.54-1.73-1.186-2.503-1.917-.818-.772-1.564-1.69-1.957-2.73-.503-1.33-.482-3.023-.375-4.269.034-.396.078-.764.123-1.084H25.687m-1.967-1.626a1 1 0 00-.196.842l.196-.842z" fill="#D09D38"/><path fill-rule="evenodd" clip-rule="evenodd" d="M60 6H4a2 2 0 00-2 2v40a2 2 0 002 2h56a2 2 0 002-2V8a2 2 0 00-2-2zM4 4a4 4 0 00-4 4v40a4 4 0 004 4h56a4 4 0 004-4V8a4 4 0 00-4-4H4z" fill="#D09D38"/><path d="M28 47a1 1 0 011-1h6a1 1 0 110 2h-6a1 1 0 01-1-1z" fill="#D09D38"/><path fill-rule="evenodd" clip-rule="evenodd" d="M5 11a2 2 0 012-2h27a1 1 0 110 2H7v31h50V11H40a1 1 0 110-2h17a2 2 0 012 2v31a2 2 0 01-2 2H7a2 2 0 01-2-2V11z" fill="#D09D38"/></svg>